<?xml version="1.0" encoding="UTF-8" standalone="yes"?><svg xmlns="http://www.w3.org/2000/svg" xmlns:xlink="http://www.w3.org/1999/xlink" height="630px" style="width:1241px;height:630px;" version="1.1" viewBox="0 0 1241 630" width="1241px"><defs><filter height="300%" id="f1" width="300%" x="-1" y="-1"><feGaussianBlur result="blurOut" stdDeviation="2.0"/><feColorMatrix in="blurOut" result="blurOut2" type="matrix" values="0 0 0 0 0 0 0 0 0 0 0 0 0 0 0 0 0 0 .4 0"/><feOffset dx="4.0" dy="4.0" in="blurOut2" result="blurOut3"/><feBlend in="SourceGraphic" in2="blurOut3" mode="normal"/></filter></defs><g><polygon fill="#FFFFFF" filter="url(#f1)" points="22,24,209,24,216,46.2969,1234,46.2969,1234,623,22,623,22,24" style="stroke: #000000; stroke-width: 2.0;"/><line style="stroke: #000000; stroke-width: 2.0;" x1="22" x2="216" y1="46.2969" y2="46.2969"/><text fill="#000000" font-family="sans-serif" font-size="14" font-weight="bold" lengthAdjust="spacingAndGlyphs" textLength="181" x="26" y="38.9951">polcz.budget.session.*</text><rect fill="#FEFECE" filter="url(#f1)" height="53.9375" style="stroke: #A80036; stroke-width: 1.5;" width="154" x="102.5" y="59"/><ellipse cx="117.5" cy="77.9688" fill="#FFA500" rx="11" ry="11" style="stroke: #A80036; stroke-width: 1.0;"/><path d="M116.4063,78.3438 L116.4063,82.0156 L118.0313,82.0156 Q119.2031,82.0156 119.6719,81.6172 Q120.1406,81.2188 120.1406,80.2188 Q120.1406,79.2188 119.6484,78.7813 Q119.1563,78.3438 118.0313,78.3438 L116.4063,78.3438 Z M116.4063,73.5156 L116.4063,76.3906 L118.0313,76.3906 Q118.9531,76.3906 119.3516,76.0547 Q119.75,75.7188 119.75,74.9688 Q119.75,74.2031 119.3438,73.8594 Q118.9375,73.5156 118.0313,73.5156 L116.4063,73.5156 Z M114.0313,71.5625 L118.0313,71.5625 Q120.0938,71.5625 121.1406,72.3438 Q122.1875,73.125 122.1875,74.6875 Q122.1875,75.8906 121.5703,76.5625 Q120.9531,77.2344 119.7656,77.3438 Q121.1875,77.4844 121.9063,78.2969 Q122.625,79.1094 122.625,80.5625 Q122.625,82.3594 121.5469,83.1641 Q120.4688,83.9688 118.0313,83.9688 L114.0313,83.9688 L114.0313,71.5625 Z "/><text fill="#000000" font-family="sans-serif" font-size="12" font-style="italic" lengthAdjust="spacingAndGlyphs" textLength="92" x="146.5" y="75.1387">«JSF, Request»</text><text fill="#000000" font-family="sans-serif" font-size="12" lengthAdjust="spacingAndGlyphs" textLength="122" x="131.5" y="89.1074">MapEntityConverter</text><line style="stroke: #A80036; stroke-width: 1.5;" x1="103.5" x2="255.5" y1="96.9375" y2="96.9375"/><line style="stroke: #A80036; stroke-width: 1.5;" x1="103.5" x2="255.5" y1="104.9375" y2="104.9375"/><rect fill="#FEFECE" filter="url(#f1)" height="69.6094" style="stroke: #A80036; stroke-width: 1.5;" width="189" x="409.5" y="176"/><ellipse cx="424.5" cy="192" fill="#ADD1B2" rx="11" ry="11" style="stroke: #A80036; stroke-width: 1.0;"/><path d="M427.4688,197.6406 Q426.8906,197.9375 426.25,198.0859 Q425.6094,198.2344 424.9063,198.2344 Q422.4063,198.2344 421.0859,196.5859 Q419.7656,194.9375 419.7656,191.8125 Q419.7656,188.6875 421.0859,187.0313 Q422.4063,185.375 424.9063,185.375 Q425.6094,185.375 426.2578,185.5313 Q426.9063,185.6875 427.4688,185.9844 L427.4688,188.7031 Q426.8438,188.125 426.25,187.8516 Q425.6563,187.5781 425.0313,187.5781 Q423.6875,187.5781 423,188.6484 Q422.3125,189.7188 422.3125,191.8125 Q422.3125,193.9063 423,194.9766 Q423.6875,196.0469 425.0313,196.0469 Q425.6563,196.0469 426.25,195.7734 Q426.8438,195.5 427.4688,194.9219 L427.4688,197.6406 Z "/><text fill="#000000" font-family="sans-serif" font-size="12" lengthAdjust="spacingAndGlyphs" textLength="146" x="438.5" y="196.1543">AbstractMapEntityBean</text><rect fill="#FFFFFF" height="15.9688" style="stroke: #000000; stroke-width: 1.0; stroke-dasharray: 2.0,2.0;" width="9" x="592.5" y="173"/><text fill="#000000" font-family="sans-serif" font-size="12" font-style="italic" lengthAdjust="spacingAndGlyphs" textLength="7" x="593.5" y="185.1387">T</text><line style="stroke: #A80036; stroke-width: 1.5;" x1="410.5" x2="597.5" y1="208" y2="208"/><rect fill="none" height="6" style="stroke: #C82930; stroke-width: 1.0;" width="6" x="417.5" y="233.707"/><text fill="#000000" font-family="sans-serif" font-size="11" lengthAdjust="spacingAndGlyphs" textLength="134" x="429.5" y="239.0151">items : Map&lt;String, T&gt;</text><line style="stroke: #A80036; stroke-width: 1.0;" x1="410.5" x2="424" y1="222.4023" y2="222.4023"/><text fill="#000000" font-family="sans-serif" font-size="11" lengthAdjust="spacingAndGlyphs" textLength="160" x="424" y="225.7104">used by JSF (selectOneItem)</text><line style="stroke: #A80036; stroke-width: 1.0;" x1="584" x2="597.5" y1="222.4023" y2="222.4023"/><rect fill="#FEFECE" filter="url(#f1)" height="188.8516" style="stroke: #A80036; stroke-width: 1.5;" width="255" x="687" y="233.5"/><ellipse cx="744.75" cy="249.5" fill="#ADD1B2" rx="11" ry="11" style="stroke: #A80036; stroke-width: 1.0;"/><path d="M747.7188,255.1406 Q747.1406,255.4375 746.5,255.5859 Q745.8594,255.7344 745.1563,255.7344 Q742.6563,255.7344 741.3359,254.0859 Q740.0156,252.4375 740.0156,249.3125 Q740.0156,246.1875 741.3359,244.5313 Q742.6563,242.875 745.1563,242.875 Q745.8594,242.875 746.5078,243.0313 Q747.1563,243.1875 747.7188,243.4844 L747.7188,246.2031 Q747.0938,245.625 746.5,245.3516 Q745.9063,245.0781 745.2813,245.0781 Q743.9375,245.0781 743.25,246.1484 Q742.5625,247.2188 742.5625,249.3125 Q742.5625,251.4063 743.25,252.4766 Q743.9375,253.5469 745.2813,253.5469 Q745.9063,253.5469 746.5,253.2734 Q747.0938,253 747.7188,252.4219 L747.7188,255.1406 Z "/><text fill="#000000" font-family="sans-serif" font-size="12" lengthAdjust="spacingAndGlyphs" textLength="120" x="765.25" y="253.6543">AbstractEntityBean</text><rect fill="#FFFFFF" height="15.9688" style="stroke: #000000; stroke-width: 1.0; stroke-dasharray: 2.0,2.0;" width="9" x="936" y="230.5"/><text fill="#000000" font-family="sans-serif" font-size="12" font-style="italic" lengthAdjust="spacingAndGlyphs" textLength="7" x="937" y="242.6387">T</text><line style="stroke: #A80036; stroke-width: 1.5;" x1="688" x2="941" y1="265.5" y2="265.5"/><ellipse cx="698" cy="277.4023" fill="#84BE84" rx="3" ry="3" style="stroke: #038048; stroke-width: 1.0;"/><text fill="#000000" font-family="sans-serif" font-size="11" lengthAdjust="spacingAndGlyphs" textLength="124" x="707" y="279.7104">updateList() : List&lt;T&gt;</text><text fill="#000000" font-family="sans-serif" font-size="11" font-weight="bold" lengthAdjust="spacingAndGlyphs" textLength="101" x="835" y="279.7104">@PostConstruct</text><polygon fill="#FFFF44" points="698,285.207,702,289.207,698,293.207,694,289.207" style="stroke: #B38D22; stroke-width: 1.0;"/><text fill="#000000" font-family="sans-serif" font-size="11" font-style="italic" lengthAdjust="spacingAndGlyphs" textLength="119" x="707" y="292.5151">createNewEntity() : T</text><polygon fill="#FFFF44" points="698,298.0117,702,302.0117,698,306.0117,694,302.0117" style="stroke: #B38D22; stroke-width: 1.0;"/><text fill="#000000" font-family="sans-serif" font-size="11" lengthAdjust="spacingAndGlyphs" textLength="136" x="707" y="305.3198">initBeforeCreate() : void</text><polygon fill="#FFFF44" points="698,327.6211,702,331.6211,698,335.6211,694,331.6211" style="stroke: #B38D22; stroke-width: 1.0;"/><text fill="#000000" font-family="sans-serif" font-size="11" lengthAdjust="spacingAndGlyphs" textLength="194" x="707" y="334.9292">entity : AbstractEntity (edit/create)</text><polygon fill="#FFFF44" points="698,340.4258,702,344.4258,698,348.4258,694,344.4258" style="stroke: #B38D22; stroke-width: 1.0;"/><text fill="#000000" font-family="sans-serif" font-size="11" lengthAdjust="spacingAndGlyphs" textLength="118" x="707" y="347.7339">list : List (data table)</text><line style="stroke: #A80036; stroke-width: 1.0;" x1="688" x2="781.5" y1="318.3164" y2="318.3164"/><text fill="#000000" font-family="sans-serif" font-size="11" lengthAdjust="spacingAndGlyphs" textLength="66" x="781.5" y="321.6245">used by JSF</text><line style="stroke: #A80036; stroke-width: 1.0;" x1="847.5" x2="941" y1="318.3164" y2="318.3164"/><ellipse cx="698" cy="375.0352" fill="#84BE84" rx="3" ry="3" style="stroke: #038048; stroke-width: 1.0;"/><text fill="#000000" font-family="sans-serif" font-size="11" lengthAdjust="spacingAndGlyphs" textLength="109" x="707" y="377.3433">create() --&gt; /create</text><ellipse cx="698" cy="387.8398" fill="#84BE84" rx="3" ry="3" style="stroke: #038048; stroke-width: 1.0;"/><text fill="#000000" font-family="sans-serif" font-size="11" lengthAdjust="spacingAndGlyphs" textLength="86" x="707" y="390.1479">edit(T) --&gt; /edit</text><ellipse cx="698" cy="400.6445" fill="#84BE84" rx="3" ry="3" style="stroke: #038048; stroke-width: 1.0;"/><text fill="#000000" font-family="sans-serif" font-size="11" lengthAdjust="spacingAndGlyphs" textLength="214" x="707" y="402.9526">merge() [SQL insert/update] --&gt; /view</text><ellipse cx="698" cy="413.4492" fill="#84BE84" rx="3" ry="3" style="stroke: #038048; stroke-width: 1.0;"/><text fill="#000000" font-family="sans-serif" font-size="11" lengthAdjust="spacingAndGlyphs" textLength="194" x="707" y="415.7573">remove(T) [SQL remove] --&gt; /view</text><line style="stroke: #A80036; stroke-width: 1.0;" x1="688" x2="779" y1="360.7305" y2="360.7305"/><text fill="#000000" font-family="sans-serif" font-size="11" lengthAdjust="spacingAndGlyphs" textLength="71" x="779" y="364.0386">called by JSF</text><line style="stroke: #A80036; stroke-width: 1.0;" x1="850" x2="941" y1="360.7305" y2="360.7305"/><rect fill="#FEFECE" filter="url(#f1)" height="66.7422" style="stroke: #A80036; stroke-width: 1.5;" width="160" x="99.5" y="148.5"/><ellipse cx="114.5" cy="167.4688" fill="#FFA500" rx="11" ry="11" style="stroke: #A80036; stroke-width: 1.0;"/><path d="M113.4063,167.8438 L113.4063,171.5156 L115.0313,171.5156 Q116.2031,171.5156 116.6719,171.1172 Q117.1406,170.7188 117.1406,169.7188 Q117.1406,168.7188 116.6484,168.2813 Q116.1563,167.8438 115.0313,167.8438 L113.4063,167.8438 Z M113.4063,163.0156 L113.4063,165.8906 L115.0313,165.8906 Q115.9531,165.8906 116.3516,165.5547 Q116.75,165.2188 116.75,164.4688 Q116.75,163.7031 116.3438,163.3594 Q115.9375,163.0156 115.0313,163.0156 L113.4063,163.0156 Z M111.0313,161.0625 L115.0313,161.0625 Q117.0938,161.0625 118.1406,161.8438 Q119.1875,162.625 119.1875,164.1875 Q119.1875,165.3906 118.5703,166.0625 Q117.9531,166.7344 116.7656,166.8438 Q118.1875,166.9844 118.9063,167.7969 Q119.625,168.6094 119.625,170.0625 Q119.625,171.8594 118.5469,172.6641 Q117.4688,173.4688 115.0313,173.4688 L111.0313,173.4688 L111.0313,161.0625 Z "/><text fill="#000000" font-family="sans-serif" font-size="12" font-style="italic" lengthAdjust="spacingAndGlyphs" textLength="88" x="148.5" y="164.6387">«JSF, Session»</text><text fill="#000000" font-family="sans-serif" font-size="12" lengthAdjust="spacingAndGlyphs" textLength="128" x="128.5" y="178.6074">ChargeAccountBean</text><line style="stroke: #A80036; stroke-width: 1.5;" x1="100.5" x2="258.5" y1="186.4375" y2="186.4375"/><text fill="#000000" font-family="sans-serif" font-size="11" font-weight="bold" lengthAdjust="spacingAndGlyphs" textLength="32" x="105.5" y="200.6479">@EJB</text><text fill="#000000" font-family="sans-serif" font-size="11" font-style="italic" font-weight="bold" lengthAdjust="spacingAndGlyphs" textLength="62" x="141.5" y="200.6479">CAService</text><line style="stroke: #A80036; stroke-width: 1.0;" x1="100.5" x2="258.5" y1="207.2422" y2="207.2422"/><rect fill="#FEFECE" filter="url(#f1)" height="66.7422" style="stroke: #A80036; stroke-width: 1.5;" width="137" x="111" y="250.5"/><ellipse cx="135.45" cy="269.4688" fill="#FFA500" rx="11" ry="11" style="stroke: #A80036; stroke-width: 1.0;"/><path d="M134.3563,269.8438 L134.3563,273.5156 L135.9813,273.5156 Q137.1531,273.5156 137.6219,273.1172 Q138.0906,272.7188 138.0906,271.7188 Q138.0906,270.7188 137.5984,270.2813 Q137.1063,269.8438 135.9813,269.8438 L134.3563,269.8438 Z M134.3563,265.0156 L134.3563,267.8906 L135.9813,267.8906 Q136.9031,267.8906 137.3016,267.5547 Q137.7,267.2188 137.7,266.4688 Q137.7,265.7031 137.2938,265.3594 Q136.8875,265.0156 135.9813,265.0156 L134.3563,265.0156 Z M131.9813,263.0625 L135.9813,263.0625 Q138.0438,263.0625 139.0906,263.8438 Q140.1375,264.625 140.1375,266.1875 Q140.1375,267.3906 139.5203,268.0625 Q138.9031,268.7344 137.7156,268.8438 Q139.1375,268.9844 139.8563,269.7969 Q140.575,270.6094 140.575,272.0625 Q140.575,273.8594 139.4969,274.6641 Q138.4188,275.4688 135.9813,275.4688 L131.9813,275.4688 L131.9813,263.0625 Z "/><text fill="#000000" font-family="sans-serif" font-size="12" font-style="italic" lengthAdjust="spacingAndGlyphs" textLength="88" x="149.55" y="266.6387">«JSF, Session»</text><text fill="#000000" font-family="sans-serif" font-size="12" lengthAdjust="spacingAndGlyphs" textLength="76" x="155.55" y="280.6074">ClusterBean</text><line style="stroke: #A80036; stroke-width: 1.5;" x1="112" x2="247" y1="288.4375" y2="288.4375"/><text fill="#000000" font-family="sans-serif" font-size="11" font-weight="bold" lengthAdjust="spacingAndGlyphs" textLength="32" x="117" y="302.6479">@EJB</text><text fill="#000000" font-family="sans-serif" font-size="11" font-style="italic" font-weight="bold" lengthAdjust="spacingAndGlyphs" textLength="89" x="153" y="302.6479">ClusterService</text><line style="stroke: #A80036; stroke-width: 1.0;" x1="112" x2="247" y1="309.2422" y2="309.2422"/><rect fill="#FEFECE" filter="url(#f1)" height="66.7422" style="stroke: #A80036; stroke-width: 1.5;" width="135" x="112" y="352.5"/><ellipse cx="135.55" cy="371.4688" fill="#FFA500" rx="11" ry="11" style="stroke: #A80036; stroke-width: 1.0;"/><path d="M134.4563,371.8438 L134.4563,375.5156 L136.0813,375.5156 Q137.2531,375.5156 137.7219,375.1172 Q138.1906,374.7188 138.1906,373.7188 Q138.1906,372.7188 137.6984,372.2813 Q137.2063,371.8438 136.0813,371.8438 L134.4563,371.8438 Z M134.4563,367.0156 L134.4563,369.8906 L136.0813,369.8906 Q137.0031,369.8906 137.4016,369.5547 Q137.8,369.2188 137.8,368.4688 Q137.8,367.7031 137.3938,367.3594 Q136.9875,367.0156 136.0813,367.0156 L134.4563,367.0156 Z M132.0813,365.0625 L136.0813,365.0625 Q138.1438,365.0625 139.1906,365.8438 Q140.2375,366.625 140.2375,368.1875 Q140.2375,369.3906 139.6203,370.0625 Q139.0031,370.7344 137.8156,370.8438 Q139.2375,370.9844 139.9563,371.7969 Q140.675,372.6094 140.675,374.0625 Q140.675,375.8594 139.5969,376.6641 Q138.5188,377.4688 136.0813,377.4688 L132.0813,377.4688 L132.0813,365.0625 Z "/><text fill="#000000" font-family="sans-serif" font-size="12" font-style="italic" lengthAdjust="spacingAndGlyphs" textLength="88" x="149.45" y="368.6387">«JSF, Session»</text><text fill="#000000" font-family="sans-serif" font-size="12" lengthAdjust="spacingAndGlyphs" textLength="75" x="155.95" y="382.6074">MarketBean</text><line style="stroke: #A80036; stroke-width: 1.5;" x1="113" x2="246" y1="390.4375" y2="390.4375"/><text fill="#000000" font-family="sans-serif" font-size="11" font-weight="bold" lengthAdjust="spacingAndGlyphs" textLength="32" x="118" y="404.6479">@EJB</text><text fill="#000000" font-family="sans-serif" font-size="11" font-style="italic" font-weight="bold" lengthAdjust="spacingAndGlyphs" textLength="87" x="154" y="404.6479">MarketService</text><line style="stroke: #A80036; stroke-width: 1.0;" x1="113" x2="246" y1="411.2422" y2="411.2422"/><rect fill="#FEFECE" filter="url(#f1)" height="326.0313" style="stroke: #A80036; stroke-width: 1.5;" width="246" x="381" y="281"/><ellipse cx="446.75" cy="299.9688" fill="#FFA500" rx="11" ry="11" style="stroke: #A80036; stroke-width: 1.0;"/><path d="M445.6563,300.3438 L445.6563,304.0156 L447.2813,304.0156 Q448.4531,304.0156 448.9219,303.6172 Q449.3906,303.2188 449.3906,302.2188 Q449.3906,301.2188 448.8984,300.7813 Q448.4063,300.3438 447.2813,300.3438 L445.6563,300.3438 Z M445.6563,295.5156 L445.6563,298.3906 L447.2813,298.3906 Q448.2031,298.3906 448.6016,298.0547 Q449,297.7188 449,296.9688 Q449,296.2031 448.5938,295.8594 Q448.1875,295.5156 447.2813,295.5156 L445.6563,295.5156 Z M443.2813,293.5625 L447.2813,293.5625 Q449.3438,293.5625 450.3906,294.3438 Q451.4375,295.125 451.4375,296.6875 Q451.4375,297.8906 450.8203,298.5625 Q450.2031,299.2344 449.0156,299.3438 Q450.4375,299.4844 451.1563,300.2969 Q451.875,301.1094 451.875,302.5625 Q451.875,304.3594 450.7969,305.1641 Q449.7188,305.9688 447.2813,305.9688 L443.2813,305.9688 L443.2813,293.5625 Z "/><text fill="#000000" font-family="sans-serif" font-size="12" font-style="italic" lengthAdjust="spacingAndGlyphs" textLength="88" x="476.25" y="297.1387">«JSF, Session»</text><text fill="#000000" font-family="sans-serif" font-size="12" lengthAdjust="spacingAndGlyphs" textLength="106" x="467.25" y="311.1074">TransactionBean</text><line style="stroke: #A80036; stroke-width: 1.5;" x1="382" x2="626" y1="318.9375" y2="318.9375"/><text fill="#000000" font-family="sans-serif" font-size="11" font-weight="bold" lengthAdjust="spacingAndGlyphs" textLength="32" x="387" y="333.1479">@EJB</text><text fill="#000000" font-family="sans-serif" font-size="11" font-style="italic" font-weight="bold" lengthAdjust="spacingAndGlyphs" textLength="91" x="423" y="333.1479">StartupService</text><text fill="#000000" font-family="sans-serif" font-size="11" font-weight="bold" lengthAdjust="spacingAndGlyphs" textLength="32" x="387" y="345.9526">@EJB</text><text fill="#000000" font-family="sans-serif" font-size="11" font-style="italic" font-weight="bold" lengthAdjust="spacingAndGlyphs" textLength="119" x="423" y="345.9526">TransactionService</text><text fill="#000000" font-family="sans-serif" font-size="11" font-weight="bold" lengthAdjust="spacingAndGlyphs" textLength="32" x="387" y="358.7573">@EJB</text><text fill="#000000" font-family="sans-serif" font-size="11" font-style="italic" font-weight="bold" lengthAdjust="spacingAndGlyphs" textLength="62" x="423" y="358.7573">CAService</text><text fill="#000000" font-family="sans-serif" font-size="11" font-weight="bold" lengthAdjust="spacingAndGlyphs" textLength="32" x="387" y="371.562">@EJB</text><text fill="#000000" font-family="sans-serif" font-size="11" font-style="italic" font-weight="bold" lengthAdjust="spacingAndGlyphs" textLength="87" x="423" y="371.562">MarketService</text><text fill="#000000" font-family="sans-serif" font-size="11" font-weight="bold" lengthAdjust="spacingAndGlyphs" textLength="32" x="387" y="384.3667">@EJB</text><text fill="#000000" font-family="sans-serif" font-size="11" font-style="italic" font-weight="bold" lengthAdjust="spacingAndGlyphs" textLength="89" x="423" y="384.3667">ClusterService</text><line style="stroke: #A80036; stroke-width: 1.0;" x1="382" x2="626" y1="390.9609" y2="390.9609"/><rect fill="none" height="6" style="stroke: #C82930; stroke-width: 1.0;" width="6" x="389" y="399.8633"/><text fill="#000000" font-family="sans-serif" font-size="11" lengthAdjust="spacingAndGlyphs" textLength="137" x="401" y="405.1714">type : TTransactionType</text><rect fill="none" height="6" style="stroke: #C82930; stroke-width: 1.0;" width="6" x="389" y="412.668"/><text fill="#000000" font-family="sans-serif" font-size="11" lengthAdjust="spacingAndGlyphs" textLength="103" x="401" y="417.9761">old : TTransaction</text><rect fill="none" height="6" style="stroke: #C82930; stroke-width: 1.0;" width="6" x="389" y="425.4727"/><text fill="#000000" font-family="sans-serif" font-size="11" lengthAdjust="spacingAndGlyphs" textLength="114" x="401" y="430.7808">filtering parameters</text><line style="stroke: #A80036; stroke-width: 1.0;" x1="382" x2="626" y1="437.375" y2="437.375"/><ellipse cx="392" cy="449.2773" fill="#84BE84" rx="3" ry="3" style="stroke: #038048; stroke-width: 1.0;"/><text fill="#000000" font-family="sans-serif" font-size="11" lengthAdjust="spacingAndGlyphs" textLength="67" x="401" y="451.5854">updateList()</text><text fill="#000000" font-family="sans-serif" font-size="11" font-weight="bold" lengthAdjust="spacingAndGlyphs" textLength="66" x="472" y="451.5854">@Override</text><text fill="#000000" font-family="sans-serif" font-size="11" lengthAdjust="spacingAndGlyphs" textLength="0" x="542" y="451.5854"/><text fill="#000000" font-family="sans-serif" font-size="11" font-style="italic" lengthAdjust="spacingAndGlyphs" textLength="70" x="542" y="451.5854">szűrés miatt</text><rect fill="#F24D5C" height="6" style="stroke: #C82930; stroke-width: 1.0;" width="6" x="389" y="459.082"/><text fill="#000000" font-family="sans-serif" font-size="11" lengthAdjust="spacingAndGlyphs" textLength="220" x="401" y="464.3901">merge(TransactionArguments) : String</text><rect fill="#F24D5C" height="6" style="stroke: #C82930; stroke-width: 1.0;" width="6" x="389" y="471.8867"/><text fill="#000000" font-family="sans-serif" font-size="11" lengthAdjust="spacingAndGlyphs" textLength="212" x="401" y="477.1948">validate(TTransaction) : TTransaction</text><ellipse cx="392" cy="504.4961" fill="#84BE84" rx="3" ry="3" style="stroke: #038048; stroke-width: 1.0;"/><text fill="#000000" font-family="sans-serif" font-size="11" lengthAdjust="spacingAndGlyphs" textLength="103" x="401" y="506.8042">edit(TTransaction)</text><text fill="#000000" font-family="sans-serif" font-size="11" font-weight="bold" lengthAdjust="spacingAndGlyphs" textLength="66" x="508" y="506.8042">@Override</text><ellipse cx="392" cy="517.3008" fill="#84BE84" rx="3" ry="3" style="stroke: #038048; stroke-width: 1.0;"/><text fill="#000000" font-family="sans-serif" font-size="11" lengthAdjust="spacingAndGlyphs" textLength="44" x="401" y="519.6089">create()</text><text fill="#000000" font-family="sans-serif" font-size="11" font-weight="bold" lengthAdjust="spacingAndGlyphs" textLength="66" x="449" y="519.6089">@Override</text><ellipse cx="392" cy="530.1055" fill="#84BE84" rx="3" ry="3" style="stroke: #038048; stroke-width: 1.0;"/><text fill="#000000" font-family="sans-serif" font-size="11" lengthAdjust="spacingAndGlyphs" textLength="94" x="401" y="532.4136">persist() : String</text><ellipse cx="392" cy="542.9102" fill="#84BE84" rx="3" ry="3" style="stroke: #038048; stroke-width: 1.0;"/><text fill="#000000" font-family="sans-serif" font-size="11" lengthAdjust="spacingAndGlyphs" textLength="45" x="401" y="545.2183">merge()</text><text fill="#000000" font-family="sans-serif" font-size="11" font-weight="bold" lengthAdjust="spacingAndGlyphs" textLength="66" x="450" y="545.2183">@Override</text><ellipse cx="392" cy="555.7148" fill="#84BE84" rx="3" ry="3" style="stroke: #038048; stroke-width: 1.0;"/><text fill="#000000" font-family="sans-serif" font-size="11" lengthAdjust="spacingAndGlyphs" textLength="125" x="401" y="558.0229">remove(TTransaction)</text><text fill="#000000" font-family="sans-serif" font-size="11" font-weight="bold" lengthAdjust="spacingAndGlyphs" textLength="66" x="530" y="558.0229">@Override</text><line style="stroke: #A80036; stroke-width: 1.0;" x1="382" x2="468.5" y1="490.1914" y2="490.1914"/><text fill="#000000" font-family="sans-serif" font-size="11" lengthAdjust="spacingAndGlyphs" textLength="71" x="468.5" y="493.4995">called by JSF</text><line style="stroke: #A80036; stroke-width: 1.0;" x1="539.5" x2="626" y1="490.1914" y2="490.1914"/><ellipse cx="392" cy="585.3242" fill="#84BE84" rx="3" ry="3" style="stroke: #038048; stroke-width: 1.0;"/><text fill="#000000" font-family="sans-serif" font-size="11" lengthAdjust="spacingAndGlyphs" textLength="153" x="401" y="587.6323">onEdit(RowEditEvent) : void</text><ellipse cx="392" cy="598.1289" fill="#84BE84" rx="3" ry="3" style="stroke: #038048; stroke-width: 1.0;"/><text fill="#000000" font-family="sans-serif" font-size="11" lengthAdjust="spacingAndGlyphs" textLength="170" x="401" y="600.437">onCancel(RowEditEvent) : void</text><line style="stroke: #A80036; stroke-width: 1.0;" x1="382" x2="479" y1="571.0195" y2="571.0195"/><text fill="#000000" font-family="sans-serif" font-size="11" lengthAdjust="spacingAndGlyphs" textLength="50" x="479" y="574.3276">listeners</text><line style="stroke: #A80036; stroke-width: 1.0;" x1="529" x2="626" y1="571.0195" y2="571.0195"/><rect fill="#FEFECE" filter="url(#f1)" height="82.4141" style="stroke: #A80036; stroke-width: 1.5;" width="216" x="1002" y="287"/><ellipse cx="1017" cy="303" fill="#B4A7E5" rx="11" ry="11" style="stroke: #A80036; stroke-width: 1.0;"/><path d="M1012.9219,298.7656 L1012.9219,296.6094 L1020.3125,296.6094 L1020.3125,298.7656 L1017.8438,298.7656 L1017.8438,306.8438 L1020.3125,306.8438 L1020.3125,309 L1012.9219,309 L1012.9219,306.8438 L1015.3906,306.8438 L1015.3906,298.7656 L1012.9219,298.7656 Z "/><text fill="#000000" font-family="sans-serif" font-size="12" font-style="italic" lengthAdjust="spacingAndGlyphs" textLength="161" x="1031" y="307.1543">AbstractEntityBeanHelper</text><rect fill="#FFFFFF" height="15.9688" style="stroke: #000000; stroke-width: 1.0; stroke-dasharray: 2.0,2.0;" width="21" x="1200" y="284"/><text fill="#000000" font-family="sans-serif" font-size="12" font-style="italic" lengthAdjust="spacingAndGlyphs" textLength="19" x="1201" y="296.1387">T,S</text><line style="stroke: #A80036; stroke-width: 1.5;" x1="1003" x2="1217" y1="319" y2="319"/><ellipse cx="1013" cy="330.9023" fill="#84BE84" rx="3" ry="3" style="stroke: #038048; stroke-width: 1.0;"/><text fill="#000000" font-family="sans-serif" font-size="11" font-style="italic" lengthAdjust="spacingAndGlyphs" textLength="87" x="1022" y="333.2104">getService() : S</text><ellipse cx="1013" cy="360.5117" fill="#84BE84" rx="3" ry="3" style="stroke: #038048; stroke-width: 1.0;"/><text fill="#000000" font-family="sans-serif" font-size="11" font-style="italic" lengthAdjust="spacingAndGlyphs" textLength="101" x="1022" y="362.8198">getList() : List&lt;T&gt;</text><line style="stroke: #A80036; stroke-width: 1.0;" x1="1003" x2="1074.5" y1="346.207" y2="346.207"/><text fill="#000000" font-family="sans-serif" font-size="11" lengthAdjust="spacingAndGlyphs" textLength="71" x="1074.5" y="349.5151">called by JSF</text><line style="stroke: #A80036; stroke-width: 1.0;" x1="1145.5" x2="1217" y1="346.207" y2="346.207"/><rect fill="#FEFECE" filter="url(#f1)" height="151.5703" style="stroke: #A80036; stroke-width: 1.5;" width="283" x="38" y="455"/><ellipse cx="110.25" cy="473.9688" fill="#FFA500" rx="11" ry="11" style="stroke: #A80036; stroke-width: 1.0;"/><path d="M109.1563,474.3438 L109.1563,478.0156 L110.7813,478.0156 Q111.9531,478.0156 112.4219,477.6172 Q112.8906,477.2188 112.8906,476.2188 Q112.8906,475.2188 112.3984,474.7813 Q111.9063,474.3438 110.7813,474.3438 L109.1563,474.3438 Z M109.1563,469.5156 L109.1563,472.3906 L110.7813,472.3906 Q111.7031,472.3906 112.1016,472.0547 Q112.5,471.7188 112.5,470.9688 Q112.5,470.2031 112.0938,469.8594 Q111.6875,469.5156 110.7813,469.5156 L109.1563,469.5156 Z M106.7813,467.5625 L110.7813,467.5625 Q112.8438,467.5625 113.8906,468.3438 Q114.9375,469.125 114.9375,470.6875 Q114.9375,471.8906 114.3203,472.5625 Q113.7031,473.2344 112.5156,473.3438 Q113.9375,473.4844 114.6563,474.2969 Q115.375,475.1094 115.375,476.5625 Q115.375,478.3594 114.2969,479.1641 Q113.2188,479.9688 110.7813,479.9688 L106.7813,479.9688 L106.7813,467.5625 Z "/><text fill="#000000" font-family="sans-serif" font-size="12" font-style="italic" lengthAdjust="spacingAndGlyphs" textLength="92" x="149.75" y="471.1387">«JSF, Request»</text><text fill="#000000" font-family="sans-serif" font-size="12" lengthAdjust="spacingAndGlyphs" textLength="130" x="130.75" y="485.1074">TransactionValidator</text><line style="stroke: #A80036; stroke-width: 1.5;" x1="39" x2="320" y1="492.9375" y2="492.9375"/><text fill="#000000" font-family="sans-serif" font-size="11" font-weight="bold" lengthAdjust="spacingAndGlyphs" textLength="32" x="44" y="507.1479">@EJB</text><text fill="#000000" font-family="sans-serif" font-size="11" font-style="italic" font-weight="bold" lengthAdjust="spacingAndGlyphs" textLength="91" x="80" y="507.1479">StartupService</text><line style="stroke: #A80036; stroke-width: 1.0;" x1="39" x2="320" y1="513.7422" y2="513.7422"/><rect fill="none" height="6" style="stroke: #C82930; stroke-width: 1.0;" width="6" x="46" y="522.6445"/><text fill="#000000" font-family="sans-serif" font-size="11" lengthAdjust="spacingAndGlyphs" textLength="144" x="58" y="527.9526">cafrom : TChargeAccount</text><rect fill="none" height="6" style="stroke: #C82930; stroke-width: 1.0;" width="6" x="46" y="535.4492"/><text fill="#000000" font-family="sans-serif" font-size="11" lengthAdjust="spacingAndGlyphs" textLength="119" x="58" y="540.7573">cafromInput : UIInput</text><line style="stroke: #A80036; stroke-width: 1.0;" x1="39" x2="320" y1="547.3516" y2="547.3516"/><ellipse cx="49" cy="559.2539" fill="#84BE84" rx="3" ry="3" style="stroke: #038048; stroke-width: 1.0;"/><text fill="#000000" font-family="sans-serif" font-size="11" lengthAdjust="spacingAndGlyphs" textLength="184" x="58" y="561.562">validateCluster(..., Object) : void</text><ellipse cx="49" cy="572.0586" fill="#84BE84" rx="3" ry="3" style="stroke: #038048; stroke-width: 1.0;"/><text fill="#000000" font-family="sans-serif" font-size="11" lengthAdjust="spacingAndGlyphs" textLength="181" x="58" y="574.3667">validateMarket(..., Object) : void</text><ellipse cx="49" cy="584.8633" fill="#84BE84" rx="3" ry="3" style="stroke: #038048; stroke-width: 1.0;"/><text fill="#000000" font-family="sans-serif" font-size="11" lengthAdjust="spacingAndGlyphs" textLength="242" x="58" y="587.1714">validateChargeAccountTo(..., Object) : void</text><ellipse cx="49" cy="597.668" fill="#84BE84" rx="3" ry="3" style="stroke: #038048; stroke-width: 1.0;"/><text fill="#000000" font-family="sans-serif" font-size="11" lengthAdjust="spacingAndGlyphs" textLength="257" x="58" y="599.9761">validateChargeAccountFrom(..., Object) : void</text><path d="M597.56,246.104 C619.687,254.496 643.842,263.656 667.725,272.714 " fill="none" style="stroke: #A80036; stroke-width: 1.0;"/><polygon fill="none" points="670.558,266.302,686.776,279.939,665.594,279.392,670.558,266.302" style="stroke: #A80036; stroke-width: 1.0;"/><path d="M259.805,189.131 C298.849,192.642 346.622,196.938 389.459,200.79 " fill="none" style="stroke: #A80036; stroke-width: 1.0;"/><polygon fill="none" points="390.092,193.819,409.385,202.582,388.838,207.762,390.092,193.819" style="stroke: #A80036; stroke-width: 1.0;"/><path d="M248.107,268.697 C289.167,259.402 342.625,247.302 389.973,236.584 " fill="none" style="stroke: #A80036; stroke-width: 1.0;"/><polygon fill="none" points="388.44,229.754,409.492,232.166,391.531,243.409,388.44,229.754" style="stroke: #A80036; stroke-width: 1.0;"/><path d="M247.216,369.617 C271.783,361.633 298.966,350.357 321,335 C354.894,311.377 347.85,288.656 381,264 C384.613,261.313 388.384,258.727 392.267,256.243 " fill="none" style="stroke: #A80036; stroke-width: 1.0;"/><polygon fill="none" points="389.065,250.008,409.873,246.008,396.101,262.111,389.065,250.008" style="stroke: #A80036; stroke-width: 1.0;"/><path d="M627.37,397.987 C640.691,392.978 654.343,387.845 667.906,382.745 " fill="none" style="stroke: #A80036; stroke-width: 1.0;"/><polygon fill="none" points="665.794,376.061,686.978,375.574,670.721,389.165,665.794,376.061" style="stroke: #A80036; stroke-width: 1.0;"/><path d="M942.1,328 C955.132,328 968.381,328 981.424,328 " fill="none" style="stroke: #A80036; stroke-width: 1.0; stroke-dasharray: 7.0,7.0;"/><polygon fill="none" points="981.69,321,1001.69,328,981.69,335,981.69,321" style="stroke: #A80036; stroke-width: 1.0;"/><path d="M321.015,493.094 C340.875,487.736 361.161,482.264 380.642,477.008 " fill="none" style="stroke: #A80036; stroke-width: 1.0;"/></g></svg>