<?xml version="1.0" encoding="UTF-8" standalone="yes"?><svg xmlns="http://www.w3.org/2000/svg" xmlns:xlink="http://www.w3.org/1999/xlink" height="650pt" style="width:1491px;height:650px;" version="1.1" viewBox="0 0 1491 650" width="1491pt"><defs><filter height="300%" id="f1" width="300%" x="-1" y="-1"><feGaussianBlur result="blurOut" stdDeviation="2.0"/><feColorMatrix in="blurOut" result="blurOut2" type="matrix" values="0 0 0 0 0 0 0 0 0 0 0 0 0 0 0 0 0 0 .4 0"/><feOffset dx="4.0" dy="4.0" in="blurOut2" result="blurOut3"/><feBlend in="SourceGraphic" in2="blurOut3" mode="normal"/></filter></defs><g><polygon fill="#FFFFFF" filter="url(#f1)" points="332,214,407,214,414,236.2969,904,236.2969,904,352,332,352,332,214" style="stroke: #000000; stroke-width: 2.0;"/><line style="stroke: #000000; stroke-width: 2.0;" x1="332" x2="414" y1="236.2969" y2="236.2969"/><text fill="#000000" font-family="sans-serif" font-size="14" font-weight="bold" lengthAdjust="spacingAndGlyphs" textLength="69" x="335" y="229.9951">java.lang</text><rect fill="#FEFECE" filter="url(#f1)" height="60.8047" style="stroke: #A80036; stroke-width: 1.5;" width="131" x="348.75" y="262.5"/><ellipse cx="384" cy="278.5" fill="#ADD1B2" rx="11" ry="11" style="stroke: #A80036; stroke-width: 1.0;"/><path d="M386.3438,274.1719 L386.5156,274.25 C386.7344,273.9375 386.9375,273.8438 387.2344,273.8438 C387.5313,273.8438 387.8125,273.9844 387.9688,274.25 C388.0625,274.4063 388.0781,274.5313 388.0781,274.9688 L388.0781,276.3906 C388.0781,276.8125 388.0469,277 387.9375,277.1563 C387.7656,277.375 387.5,277.5156 387.2344,277.5156 C387.0156,277.5156 386.7813,277.4063 386.6406,277.2656 C386.5,277.1406 386.4688,277.0156 386.4063,276.6094 C386.3125,276.2031 386.1406,275.9844 385.6563,275.7031 C385.1875,275.4531 384.5781,275.2969 384,275.2969 C382.2656,275.2969 381.0156,276.6094 381.0156,278.3906 L381.0156,279.4844 C381.0156,281.1875 382.3125,282.2813 384.3594,282.2813 C385.125,282.2813 385.8125,282.1563 386.2344,281.8906 C386.4219,281.7969 386.4219,281.7969 386.875,281.3125 C387.0625,281.125 387.2656,281.0469 387.4844,281.0469 C387.9531,281.0469 388.3438,281.4375 388.3438,281.8906 C388.3438,282.2813 388.0156,282.7344 387.4375,283.1406 C386.6875,283.6875 385.5313,283.9844 384.3125,283.9844 C381.4219,283.9844 379.3125,282.0938 379.3125,279.5156 L379.3125,278.3906 C379.3125,275.6719 381.3125,273.5938 383.9375,273.5938 C384.8125,273.5938 385.4063,273.7344 386.3438,274.1719 Z "/><text fill="#000000" font-family="sans-serif" font-size="12" lengthAdjust="spacingAndGlyphs" textLength="54" x="402.5" y="282.6543">Package</text><line style="stroke: #A80036; stroke-width: 1.5;" x1="349.75" x2="478.75" y1="294.5" y2="294.5"/><line style="stroke: #A80036; stroke-width: 1.5;" x1="349.75" x2="478.75" y1="302.5" y2="302.5"/><ellipse cx="359.75" cy="314.4023" fill="#84BE84" rx="3" ry="3" style="stroke: #038048; stroke-width: 1.0;"/><text fill="#000000" font-family="sans-serif" font-size="11" lengthAdjust="spacingAndGlyphs" textLength="105" x="368.75" y="316.7104">getName() : String</text><rect fill="#FEFECE" filter="url(#f1)" height="86.4141" style="stroke: #A80036; stroke-width: 1.5;" width="162" x="515" y="250"/><ellipse cx="575.25" cy="266" fill="#ADD1B2" rx="11" ry="11" style="stroke: #A80036; stroke-width: 1.0;"/><path d="M577.5938,261.6719 L577.7656,261.75 C577.9844,261.4375 578.1875,261.3438 578.4844,261.3438 C578.7813,261.3438 579.0625,261.4844 579.2188,261.75 C579.3125,261.9063 579.3281,262.0313 579.3281,262.4688 L579.3281,263.8906 C579.3281,264.3125 579.2969,264.5 579.1875,264.6563 C579.0156,264.875 578.75,265.0156 578.4844,265.0156 C578.2656,265.0156 578.0313,264.9063 577.8906,264.7656 C577.75,264.6406 577.7188,264.5156 577.6563,264.1094 C577.5625,263.7031 577.3906,263.4844 576.9063,263.2031 C576.4375,262.9531 575.8281,262.7969 575.25,262.7969 C573.5156,262.7969 572.2656,264.1094 572.2656,265.8906 L572.2656,266.9844 C572.2656,268.6875 573.5625,269.7813 575.6094,269.7813 C576.375,269.7813 577.0625,269.6563 577.4844,269.3906 C577.6719,269.2969 577.6719,269.2969 578.125,268.8125 C578.3125,268.625 578.5156,268.5469 578.7344,268.5469 C579.2031,268.5469 579.5938,268.9375 579.5938,269.3906 C579.5938,269.7813 579.2656,270.2344 578.6875,270.6406 C577.9375,271.1875 576.7813,271.4844 575.5625,271.4844 C572.6719,271.4844 570.5625,269.5938 570.5625,267.0156 L570.5625,265.8906 C570.5625,263.1719 572.5625,261.0938 575.1875,261.0938 C576.0625,261.0938 576.6563,261.2344 577.5938,261.6719 Z "/><text fill="#000000" font-family="sans-serif" font-size="12" lengthAdjust="spacingAndGlyphs" textLength="33" x="595.75" y="270.1543">Class</text><line style="stroke: #A80036; stroke-width: 1.5;" x1="516" x2="676" y1="282" y2="282"/><line style="stroke: #A80036; stroke-width: 1.5;" x1="516" x2="676" y1="290" y2="290"/><ellipse cx="526" cy="301.9023" fill="#84BE84" rx="3" ry="3" style="stroke: #038048; stroke-width: 1.0;"/><text fill="#000000" font-family="sans-serif" font-size="11" lengthAdjust="spacingAndGlyphs" textLength="125" x="535" y="304.2104">isInterface() : boolean</text><ellipse cx="526" cy="314.707" fill="#84BE84" rx="3" ry="3" style="stroke: #038048; stroke-width: 1.0;"/><text fill="#000000" font-family="sans-serif" font-size="11" lengthAdjust="spacingAndGlyphs" textLength="107" x="535" y="317.0151">isEnum() : boolean</text><ellipse cx="526" cy="327.5117" fill="#84BE84" rx="3" ry="3" style="stroke: #038048; stroke-width: 1.0;"/><text fill="#000000" font-family="sans-serif" font-size="11" lengthAdjust="spacingAndGlyphs" textLength="136" x="535" y="329.8198">getSuperClass() : Class</text><rect fill="#FEFECE" filter="url(#f1)" height="48" style="stroke: #A80036; stroke-width: 1.5;" width="61" x="712.75" y="269"/><ellipse cx="727.75" cy="285" fill="#ADD1B2" rx="11" ry="11" style="stroke: #A80036; stroke-width: 1.0;"/><path d="M730.0938,280.6719 L730.2656,280.75 C730.4844,280.4375 730.6875,280.3438 730.9844,280.3438 C731.2813,280.3438 731.5625,280.4844 731.7188,280.75 C731.8125,280.9063 731.8281,281.0313 731.8281,281.4688 L731.8281,282.8906 C731.8281,283.3125 731.7969,283.5 731.6875,283.6563 C731.5156,283.875 731.25,284.0156 730.9844,284.0156 C730.7656,284.0156 730.5313,283.9063 730.3906,283.7656 C730.25,283.6406 730.2188,283.5156 730.1563,283.1094 C730.0625,282.7031 729.8906,282.4844 729.4063,282.2031 C728.9375,281.9531 728.3281,281.7969 727.75,281.7969 C726.0156,281.7969 724.7656,283.1094 724.7656,284.8906 L724.7656,285.9844 C724.7656,287.6875 726.0625,288.7813 728.1094,288.7813 C728.875,288.7813 729.5625,288.6563 729.9844,288.3906 C730.1719,288.2969 730.1719,288.2969 730.625,287.8125 C730.8125,287.625 731.0156,287.5469 731.2344,287.5469 C731.7031,287.5469 732.0938,287.9375 732.0938,288.3906 C732.0938,288.7813 731.7656,289.2344 731.1875,289.6406 C730.4375,290.1875 729.2813,290.4844 728.0625,290.4844 C725.1719,290.4844 723.0625,288.5938 723.0625,286.0156 L723.0625,284.8906 C723.0625,282.1719 725.0625,280.0938 727.6875,280.0938 C728.5625,280.0938 729.1563,280.2344 730.0938,280.6719 Z "/><text fill="#000000" font-family="sans-serif" font-size="12" lengthAdjust="spacingAndGlyphs" textLength="29" x="741.75" y="289.1543">Field</text><line style="stroke: #A80036; stroke-width: 1.5;" x1="713.75" x2="772.75" y1="301" y2="301"/><line style="stroke: #A80036; stroke-width: 1.5;" x1="713.75" x2="772.75" y1="309" y2="309"/><rect fill="#FEFECE" filter="url(#f1)" height="48" style="stroke: #A80036; stroke-width: 1.5;" width="79" x="808.75" y="269"/><ellipse cx="823.75" cy="285" fill="#ADD1B2" rx="11" ry="11" style="stroke: #A80036; stroke-width: 1.0;"/><path d="M826.0938,280.6719 L826.2656,280.75 C826.4844,280.4375 826.6875,280.3438 826.9844,280.3438 C827.2813,280.3438 827.5625,280.4844 827.7188,280.75 C827.8125,280.9063 827.8281,281.0313 827.8281,281.4688 L827.8281,282.8906 C827.8281,283.3125 827.7969,283.5 827.6875,283.6563 C827.5156,283.875 827.25,284.0156 826.9844,284.0156 C826.7656,284.0156 826.5313,283.9063 826.3906,283.7656 C826.25,283.6406 826.2188,283.5156 826.1563,283.1094 C826.0625,282.7031 825.8906,282.4844 825.4063,282.2031 C824.9375,281.9531 824.3281,281.7969 823.75,281.7969 C822.0156,281.7969 820.7656,283.1094 820.7656,284.8906 L820.7656,285.9844 C820.7656,287.6875 822.0625,288.7813 824.1094,288.7813 C824.875,288.7813 825.5625,288.6563 825.9844,288.3906 C826.1719,288.2969 826.1719,288.2969 826.625,287.8125 C826.8125,287.625 827.0156,287.5469 827.2344,287.5469 C827.7031,287.5469 828.0938,287.9375 828.0938,288.3906 C828.0938,288.7813 827.7656,289.2344 827.1875,289.6406 C826.4375,290.1875 825.2813,290.4844 824.0625,290.4844 C821.1719,290.4844 819.0625,288.5938 819.0625,286.0156 L819.0625,284.8906 C819.0625,282.1719 821.0625,280.0938 823.6875,280.0938 C824.5625,280.0938 825.1563,280.2344 826.0938,280.6719 Z "/><text fill="#000000" font-family="sans-serif" font-size="12" lengthAdjust="spacingAndGlyphs" textLength="47" x="837.75" y="289.1543">Method</text><line style="stroke: #A80036; stroke-width: 1.5;" x1="809.75" x2="886.75" y1="301" y2="301"/><line style="stroke: #A80036; stroke-width: 1.5;" x1="809.75" x2="886.75" y1="309" y2="309"/><polygon fill="#FBFB77" filter="url(#f1)" points="597,86.5,597,111.6328,845,111.6328,845,96.5,835,86.5,597,86.5" style="stroke: #A80036; stroke-width: 1.0;"/><polygon fill="#FBFB77" points="597,86.5,597,111.6328,845,111.6328,845,104.5,983.532,99,845,96.5,845,96.5,835,86.5,597,86.5" style="stroke: #A80036; stroke-width: 1.0;"/><line style="stroke: #A80036; stroke-width: 1.0;" x1="835" x2="835" y1="86.5" y2="96.5"/><line style="stroke: #A80036; stroke-width: 1.0;" x1="845" x2="835" y1="96.5" y2="96.5"/><text fill="#000000" font-family="sans-serif" font-size="13" lengthAdjust="spacingAndGlyphs" textLength="227" x="603" y="103.5669">kellene meg valahova egy builder is</text><rect fill="#FEFECE" filter="url(#f1)" height="181.9844" style="stroke: #A80036; stroke-width: 1.5;" width="255" x="983.75" y="8"/><ellipse cx="1035.5" cy="26.9688" fill="#A9DCDF" rx="11" ry="11" style="stroke: #A80036; stroke-width: 1.0;"/><path d="M1037.0781,28.7813 L1033.0313,28.7813 L1032.6406,29.7656 L1033.0313,29.7656 C1033.4844,29.7656 1033.625,29.7969 1033.7969,29.9219 C1034.0156,30.0938 1034.1406,30.3438 1034.1406,30.625 C1034.1406,30.9063 1034,31.2031 1033.7344,31.3438 C1033.6094,31.4375 1033.3906,31.4688 1033.0313,31.4688 L1030.7656,31.4688 C1030.0156,31.4688 1029.6406,31.1875 1029.6406,30.625 C1029.6406,30.3281 1029.7969,30.0469 1030.0469,29.8906 C1030.2031,29.7813 1030.3594,29.7656 1030.7813,29.7656 L1033.4219,23.25 L1032.3438,23.25 C1031.9063,23.25 1031.7344,23.2188 1031.5625,23.1094 C1031.3438,22.9375 1031.2031,22.6875 1031.2031,22.4063 C1031.2031,22.125 1031.3594,21.8438 1031.6094,21.6719 C1031.7656,21.5781 1031.8906,21.5625 1032.3438,21.5625 L1036.0156,21.5625 L1039.4063,29.7656 C1039.875,29.7656 1040.0313,29.7969 1040.2031,29.9375 C1040.4219,30.0938 1040.5625,30.3438 1040.5625,30.625 C1040.5625,30.9063 1040.4063,31.2031 1040.1563,31.3438 C1040.0156,31.4375 1039.7969,31.4688 1039.4375,31.4688 L1037.0781,31.4688 C1036.6563,31.4688 1036.4531,31.4219 1036.3125,31.2969 C1036.0938,31.1406 1035.9531,30.8906 1035.9531,30.625 C1035.9531,30.3281 1036.1094,30.0469 1036.3594,29.8906 C1036.5156,29.7813 1036.625,29.7656 1037.0781,29.7656 L1037.4688,29.7656 Z M1036.375,27.0781 L1035.0469,23.8125 L1033.7031,27.0781 Z "/><text fill="#000000" font-family="sans-serif" font-size="12" font-style="italic" lengthAdjust="spacingAndGlyphs" textLength="147" x="1054" y="24.1387">&lt;&lt; AbstractFactory &gt;&gt;</text><text fill="#000000" font-family="sans-serif" font-size="12" font-style="italic" lengthAdjust="spacingAndGlyphs" textLength="90" x="1082.5" y="38.1074">UMLGenerator</text><line style="stroke: #A80036; stroke-width: 1.5;" x1="984.75" x2="1237.75" y1="45.9375" y2="45.9375"/><rect fill="none" height="6" style="stroke: #C82930; stroke-width: 1.0;" width="6" x="991.75" y="54.8398"/><text fill="#000000" font-family="sans-serif" font-size="11" lengthAdjust="spacingAndGlyphs" textLength="111" x="1003.75" y="60.1479">Element[] elements</text><rect fill="none" height="6" style="stroke: #C82930; stroke-width: 1.0;" width="6" x="991.75" y="67.6445"/><text fill="#000000" font-family="sans-serif" font-size="11" lengthAdjust="spacingAndGlyphs" textLength="200" x="1003.75" y="72.9526">Set&lt;Package&gt; requestedPackages</text><rect fill="none" height="6" style="stroke: #C82930; stroke-width: 1.0;" width="6" x="991.75" y="80.4492"/><text fill="#000000" font-family="sans-serif" font-size="11" lengthAdjust="spacingAndGlyphs" textLength="229" x="1003.75" y="85.7573">Map&lt;Class, Integer&gt; requestedClasses</text><line style="stroke: #A80036; stroke-width: 1.5;" x1="984.75" x2="1237.75" y1="92.3516" y2="92.3516"/><ellipse cx="994.75" cy="104.2539" fill="#84BE84" rx="3" ry="3" style="stroke: #038048; stroke-width: 1.0;"/><text fill="#000000" font-family="sans-serif" font-size="11" lengthAdjust="spacingAndGlyphs" textLength="153" x="1003.75" y="106.562">addRequestedClass(Class)</text><ellipse cx="994.75" cy="117.0586" fill="#84BE84" rx="3" ry="3" style="stroke: #038048; stroke-width: 1.0;"/><text fill="#000000" font-family="sans-serif" font-size="11" lengthAdjust="spacingAndGlyphs" textLength="183" x="1003.75" y="119.3667">addRequestedPackage(Package)</text><ellipse cx="994.75" cy="129.8633" fill="#84BE84" rx="3" ry="3" style="stroke: #038048; stroke-width: 1.0;"/><text fill="#000000" font-family="sans-serif" font-size="11" font-style="italic" lengthAdjust="spacingAndGlyphs" textLength="116" x="1003.75" y="132.1714">createClass() : Class</text><ellipse cx="994.75" cy="142.668" fill="#84BE84" rx="3" ry="3" style="stroke: #038048; stroke-width: 1.0;"/><text fill="#000000" font-family="sans-serif" font-size="11" font-style="italic" lengthAdjust="spacingAndGlyphs" textLength="150" x="1003.75" y="144.9761">createPackage() : Package</text><ellipse cx="994.75" cy="155.4727" fill="#84BE84" rx="3" ry="3" style="stroke: #038048; stroke-width: 1.0;"/><text fill="#000000" font-family="sans-serif" font-size="11" font-style="italic" lengthAdjust="spacingAndGlyphs" textLength="100" x="1003.75" y="157.7808">createLink() : Link</text><ellipse cx="994.75" cy="168.2773" fill="#84BE84" rx="3" ry="3" style="stroke: #038048; stroke-width: 1.0;"/><text fill="#000000" font-family="sans-serif" font-size="11" lengthAdjust="spacingAndGlyphs" textLength="143" x="1003.75" y="170.5854">generateClassDiagram();</text><ellipse cx="994.75" cy="181.082" fill="#84BE84" rx="3" ry="3" style="stroke: #038048; stroke-width: 1.0;"/><text fill="#000000" font-family="sans-serif" font-size="11" lengthAdjust="spacingAndGlyphs" textLength="34" x="1003.75" y="183.3901">print()</text><rect fill="#FEFECE" filter="url(#f1)" height="60.8047" style="stroke: #A80036; stroke-width: 1.5;" width="209" x="1273.75" y="68.5"/><ellipse cx="1353.5" cy="84.5" fill="#ADD1B2" rx="11" ry="11" style="stroke: #A80036; stroke-width: 1.0;"/><path d="M1355.8438,80.1719 L1356.0156,80.25 C1356.2344,79.9375 1356.4375,79.8438 1356.7344,79.8438 C1357.0313,79.8438 1357.3125,79.9844 1357.4688,80.25 C1357.5625,80.4063 1357.5781,80.5313 1357.5781,80.9688 L1357.5781,82.3906 C1357.5781,82.8125 1357.5469,83 1357.4375,83.1563 C1357.2656,83.375 1357,83.5156 1356.7344,83.5156 C1356.5156,83.5156 1356.2813,83.4063 1356.1406,83.2656 C1356,83.1406 1355.9688,83.0156 1355.9063,82.6094 C1355.8125,82.2031 1355.6406,81.9844 1355.1563,81.7031 C1354.6875,81.4531 1354.0781,81.2969 1353.5,81.2969 C1351.7656,81.2969 1350.5156,82.6094 1350.5156,84.3906 L1350.5156,85.4844 C1350.5156,87.1875 1351.8125,88.2813 1353.8594,88.2813 C1354.625,88.2813 1355.3125,88.1563 1355.7344,87.8906 C1355.9219,87.7969 1355.9219,87.7969 1356.375,87.3125 C1356.5625,87.125 1356.7656,87.0469 1356.9844,87.0469 C1357.4531,87.0469 1357.8438,87.4375 1357.8438,87.8906 C1357.8438,88.2813 1357.5156,88.7344 1356.9375,89.1406 C1356.1875,89.6875 1355.0313,89.9844 1353.8125,89.9844 C1350.9219,89.9844 1348.8125,88.0938 1348.8125,85.5156 L1348.8125,84.3906 C1348.8125,81.6719 1350.8125,79.5938 1353.4375,79.5938 C1354.3125,79.5938 1354.9063,79.7344 1355.8438,80.1719 Z "/><text fill="#000000" font-family="sans-serif" font-size="12" lengthAdjust="spacingAndGlyphs" textLength="41" x="1374" y="88.6543">Helper</text><line style="stroke: #A80036; stroke-width: 1.5;" x1="1274.75" x2="1481.75" y1="100.5" y2="100.5"/><line style="stroke: #A80036; stroke-width: 1.5;" x1="1274.75" x2="1481.75" y1="108.5" y2="108.5"/><ellipse cx="1284.75" cy="120.4023" fill="#84BE84" rx="3" ry="3" style="stroke: #038048; stroke-width: 1.0;"/><text fill="#000000" font-family="sans-serif" font-size="11" lengthAdjust="spacingAndGlyphs" text-decoration="underline" textLength="183" x="1293.75" y="122.7104">ModifierToPlantUML(int modifier)</text><line style="stroke: #000000; stroke-width: 1.0;" x1="1293.75" x2="1476.75" y1="124.7104" y2="124.7104"/><rect fill="#FEFECE" filter="url(#f1)" height="86.4141" style="stroke: #A80036; stroke-width: 1.5;" width="238" x="1106" y="250"/><ellipse cx="1121" cy="266" fill="#ADD1B2" rx="11" ry="11" style="stroke: #A80036; stroke-width: 1.0;"/><path d="M1123.3438,261.6719 L1123.5156,261.75 C1123.7344,261.4375 1123.9375,261.3438 1124.2344,261.3438 C1124.5313,261.3438 1124.8125,261.4844 1124.9688,261.75 C1125.0625,261.9063 1125.0781,262.0313 1125.0781,262.4688 L1125.0781,263.8906 C1125.0781,264.3125 1125.0469,264.5 1124.9375,264.6563 C1124.7656,264.875 1124.5,265.0156 1124.2344,265.0156 C1124.0156,265.0156 1123.7813,264.9063 1123.6406,264.7656 C1123.5,264.6406 1123.4688,264.5156 1123.4063,264.1094 C1123.3125,263.7031 1123.1406,263.4844 1122.6563,263.2031 C1122.1875,262.9531 1121.5781,262.7969 1121,262.7969 C1119.2656,262.7969 1118.0156,264.1094 1118.0156,265.8906 L1118.0156,266.9844 C1118.0156,268.6875 1119.3125,269.7813 1121.3594,269.7813 C1122.125,269.7813 1122.8125,269.6563 1123.2344,269.3906 C1123.4219,269.2969 1123.4219,269.2969 1123.875,268.8125 C1124.0625,268.625 1124.2656,268.5469 1124.4844,268.5469 C1124.9531,268.5469 1125.3438,268.9375 1125.3438,269.3906 C1125.3438,269.7813 1125.0156,270.2344 1124.4375,270.6406 C1123.6875,271.1875 1122.5313,271.4844 1121.3125,271.4844 C1118.4219,271.4844 1116.3125,269.5938 1116.3125,267.0156 L1116.3125,265.8906 C1116.3125,263.1719 1118.3125,261.0938 1120.9375,261.0938 C1121.8125,261.0938 1122.4063,261.2344 1123.3438,261.6719 Z "/><text fill="#000000" font-family="sans-serif" font-size="12" lengthAdjust="spacingAndGlyphs" textLength="206" x="1135" y="270.1543">PlantUMLClassDiagramGenerator</text><line style="stroke: #A80036; stroke-width: 1.5;" x1="1107" x2="1343" y1="282" y2="282"/><line style="stroke: #A80036; stroke-width: 1.5;" x1="1107" x2="1343" y1="290" y2="290"/><ellipse cx="1117" cy="301.9023" fill="#84BE84" rx="3" ry="3" style="stroke: #038048; stroke-width: 1.0;"/><text fill="#000000" font-family="sans-serif" font-size="11" lengthAdjust="spacingAndGlyphs" textLength="134" x="1126" y="304.2104">createClass() : PuClass</text><ellipse cx="1117" cy="314.707" fill="#84BE84" rx="3" ry="3" style="stroke: #038048; stroke-width: 1.0;"/><text fill="#000000" font-family="sans-serif" font-size="11" lengthAdjust="spacingAndGlyphs" textLength="164" x="1126" y="317.0151">createPackage() : PuPackage</text><ellipse cx="1117" cy="327.5117" fill="#84BE84" rx="3" ry="3" style="stroke: #038048; stroke-width: 1.0;"/><text fill="#000000" font-family="sans-serif" font-size="11" lengthAdjust="spacingAndGlyphs" textLength="114" x="1126" y="329.8198">createLink() : PuLink</text><rect fill="#FEFECE" filter="url(#f1)" height="79.5469" style="stroke: #A80036; stroke-width: 1.5;" width="148" x="923" y="253"/><ellipse cx="938" cy="271.9688" fill="#B4A7E5" rx="11" ry="11" style="stroke: #A80036; stroke-width: 1.0;"/><path d="M938.9531,268.75 L938.9531,275.2656 L940.6719,275.2656 C941.125,275.2656 941.2656,275.2969 941.4375,275.4219 C941.6719,275.5938 941.7813,275.8438 941.7813,276.125 C941.7813,276.6875 941.4219,276.9688 940.6719,276.9688 L935.5313,276.9688 C935.125,276.9688 934.9219,276.9219 934.7656,276.7969 C934.5469,276.6406 934.4063,276.375 934.4063,276.125 C934.4063,275.8281 934.5625,275.5469 934.8125,275.3906 C934.9688,275.2813 935.0938,275.2656 935.5313,275.2656 L937.25,275.2656 L937.25,268.75 L935.5313,268.75 C935.1094,268.75 934.9219,268.7188 934.7656,268.6094 C934.5469,268.4375 934.4063,268.1875 934.4063,267.9063 C934.4063,267.625 934.5625,267.3281 934.8125,267.1719 C934.9688,267.0781 935.0938,267.0625 935.5313,267.0625 L940.6719,267.0625 C941.125,267.0625 941.2656,267.0938 941.4375,267.2031 C941.6719,267.375 941.7813,267.6406 941.7813,267.9063 C941.7813,268.2031 941.6406,268.4844 941.375,268.6406 C941.25,268.7188 941.0625,268.75 940.6719,268.75 Z "/><text fill="#000000" font-family="sans-serif" font-size="12" font-style="italic" lengthAdjust="spacingAndGlyphs" textLength="120" x="950" y="269.1387">&lt;&lt; Component &gt;&gt;</text><text fill="#000000" font-family="sans-serif" font-size="12" font-style="italic" lengthAdjust="spacingAndGlyphs" textLength="51" x="984.5" y="283.1074">Element</text><line style="stroke: #A80036; stroke-width: 1.5;" x1="924" x2="1070" y1="290.9375" y2="290.9375"/><line style="stroke: #A80036; stroke-width: 1.5;" x1="924" x2="1070" y1="298.9375" y2="298.9375"/><ellipse cx="934" cy="310.8398" fill="#84BE84" rx="3" ry="3" style="stroke: #038048; stroke-width: 1.0;"/><text fill="#000000" font-family="sans-serif" font-size="11" lengthAdjust="spacingAndGlyphs" textLength="121" x="943" y="313.1479">addElement(Element)</text><ellipse cx="934" cy="323.6445" fill="#84BE84" rx="3" ry="3" style="stroke: #038048; stroke-width: 1.0;"/><text fill="#000000" font-family="sans-serif" font-size="11" lengthAdjust="spacingAndGlyphs" textLength="34" x="943" y="325.9526">print()</text><rect fill="#FEFECE" filter="url(#f1)" height="60.8047" style="stroke: #A80036; stroke-width: 1.5;" width="98" x="355" y="68.5"/><ellipse cx="370" cy="84.5" fill="#ADD1B2" rx="11" ry="11" style="stroke: #A80036; stroke-width: 1.0;"/><path d="M372.3438,80.1719 L372.5156,80.25 C372.7344,79.9375 372.9375,79.8438 373.2344,79.8438 C373.5313,79.8438 373.8125,79.9844 373.9688,80.25 C374.0625,80.4063 374.0781,80.5313 374.0781,80.9688 L374.0781,82.3906 C374.0781,82.8125 374.0469,83 373.9375,83.1563 C373.7656,83.375 373.5,83.5156 373.2344,83.5156 C373.0156,83.5156 372.7813,83.4063 372.6406,83.2656 C372.5,83.1406 372.4688,83.0156 372.4063,82.6094 C372.3125,82.2031 372.1406,81.9844 371.6563,81.7031 C371.1875,81.4531 370.5781,81.2969 370,81.2969 C368.2656,81.2969 367.0156,82.6094 367.0156,84.3906 L367.0156,85.4844 C367.0156,87.1875 368.3125,88.2813 370.3594,88.2813 C371.125,88.2813 371.8125,88.1563 372.2344,87.8906 C372.4219,87.7969 372.4219,87.7969 372.875,87.3125 C373.0625,87.125 373.2656,87.0469 373.4844,87.0469 C373.9531,87.0469 374.3438,87.4375 374.3438,87.8906 C374.3438,88.2813 374.0156,88.7344 373.4375,89.1406 C372.6875,89.6875 371.5313,89.9844 370.3125,89.9844 C367.4219,89.9844 365.3125,88.0938 365.3125,85.5156 L365.3125,84.3906 C365.3125,81.6719 367.3125,79.5938 369.9375,79.5938 C370.8125,79.5938 371.4063,79.7344 372.3438,80.1719 Z "/><text fill="#000000" font-family="sans-serif" font-size="12" lengthAdjust="spacingAndGlyphs" textLength="66" x="384" y="88.6543">Composite</text><line style="stroke: #A80036; stroke-width: 1.5;" x1="356" x2="452" y1="100.5" y2="100.5"/><line style="stroke: #A80036; stroke-width: 1.5;" x1="356" x2="452" y1="108.5" y2="108.5"/><ellipse cx="366" cy="120.4023" fill="#84BE84" rx="3" ry="3" style="stroke: #038048; stroke-width: 1.0;"/><text fill="#000000" font-family="sans-serif" font-size="11" lengthAdjust="spacingAndGlyphs" textLength="34" x="375" y="122.7104">print()</text><rect fill="#FEFECE" filter="url(#f1)" height="60.8047" style="stroke: #A80036; stroke-width: 1.5;" width="270" x="35" y="418.5"/><ellipse cx="138.75" cy="434.5" fill="#ADD1B2" rx="11" ry="11" style="stroke: #A80036; stroke-width: 1.0;"/><path d="M141.0938,430.1719 L141.2656,430.25 C141.4844,429.9375 141.6875,429.8438 141.9844,429.8438 C142.2813,429.8438 142.5625,429.9844 142.7188,430.25 C142.8125,430.4063 142.8281,430.5313 142.8281,430.9688 L142.8281,432.3906 C142.8281,432.8125 142.7969,433 142.6875,433.1563 C142.5156,433.375 142.25,433.5156 141.9844,433.5156 C141.7656,433.5156 141.5313,433.4063 141.3906,433.2656 C141.25,433.1406 141.2188,433.0156 141.1563,432.6094 C141.0625,432.2031 140.8906,431.9844 140.4063,431.7031 C139.9375,431.4531 139.3281,431.2969 138.75,431.2969 C137.0156,431.2969 135.7656,432.6094 135.7656,434.3906 L135.7656,435.4844 C135.7656,437.1875 137.0625,438.2813 139.1094,438.2813 C139.875,438.2813 140.5625,438.1563 140.9844,437.8906 C141.1719,437.7969 141.1719,437.7969 141.625,437.3125 C141.8125,437.125 142.0156,437.0469 142.2344,437.0469 C142.7031,437.0469 143.0938,437.4375 143.0938,437.8906 C143.0938,438.2813 142.7656,438.7344 142.1875,439.1406 C141.4375,439.6875 140.2813,439.9844 139.0625,439.9844 C136.1719,439.9844 134.0625,438.0938 134.0625,435.5156 L134.0625,434.3906 C134.0625,431.6719 136.0625,429.5938 138.6875,429.5938 C139.5625,429.5938 140.1563,429.7344 141.0938,430.1719 Z "/><text fill="#000000" font-family="sans-serif" font-size="12" lengthAdjust="spacingAndGlyphs" textLength="54" x="159.25" y="438.6543">Package</text><line style="stroke: #A80036; stroke-width: 1.5;" x1="36" x2="304" y1="450.5" y2="450.5"/><line style="stroke: #A80036; stroke-width: 1.5;" x1="36" x2="304" y1="458.5" y2="458.5"/><ellipse cx="46" cy="470.4023" fill="#84BE84" rx="3" ry="3" style="stroke: #038048; stroke-width: 1.0;"/><text fill="#000000" font-family="sans-serif" font-size="11" font-style="italic" lengthAdjust="spacingAndGlyphs" textLength="244" x="55" y="472.7104">createClassDeclaration() : ClassDeclaration</text><rect fill="#FEFECE" filter="url(#f1)" height="73.6094" style="stroke: #A80036; stroke-width: 1.5;" width="164" x="340" y="412"/><ellipse cx="401.25" cy="428" fill="#ADD1B2" rx="11" ry="11" style="stroke: #A80036; stroke-width: 1.0;"/><path d="M403.5938,423.6719 L403.7656,423.75 C403.9844,423.4375 404.1875,423.3438 404.4844,423.3438 C404.7813,423.3438 405.0625,423.4844 405.2188,423.75 C405.3125,423.9063 405.3281,424.0313 405.3281,424.4688 L405.3281,425.8906 C405.3281,426.3125 405.2969,426.5 405.1875,426.6563 C405.0156,426.875 404.75,427.0156 404.4844,427.0156 C404.2656,427.0156 404.0313,426.9063 403.8906,426.7656 C403.75,426.6406 403.7188,426.5156 403.6563,426.1094 C403.5625,425.7031 403.3906,425.4844 402.9063,425.2031 C402.4375,424.9531 401.8281,424.7969 401.25,424.7969 C399.5156,424.7969 398.2656,426.1094 398.2656,427.8906 L398.2656,428.9844 C398.2656,430.6875 399.5625,431.7813 401.6094,431.7813 C402.375,431.7813 403.0625,431.6563 403.4844,431.3906 C403.6719,431.2969 403.6719,431.2969 404.125,430.8125 C404.3125,430.625 404.5156,430.5469 404.7344,430.5469 C405.2031,430.5469 405.5938,430.9375 405.5938,431.3906 C405.5938,431.7813 405.2656,432.2344 404.6875,432.6406 C403.9375,433.1875 402.7813,433.4844 401.5625,433.4844 C398.6719,433.4844 396.5625,431.5938 396.5625,429.0156 L396.5625,427.8906 C396.5625,425.1719 398.5625,423.0938 401.1875,423.0938 C402.0625,423.0938 402.6563,423.2344 403.5938,423.6719 Z "/><text fill="#000000" font-family="sans-serif" font-size="12" lengthAdjust="spacingAndGlyphs" textLength="33" x="421.75" y="432.1543">Class</text><line style="stroke: #A80036; stroke-width: 1.5;" x1="341" x2="503" y1="444" y2="444"/><line style="stroke: #A80036; stroke-width: 1.5;" x1="341" x2="503" y1="452" y2="452"/><ellipse cx="351" cy="463.9023" fill="#84BE84" rx="3" ry="3" style="stroke: #038048; stroke-width: 1.0;"/><text fill="#000000" font-family="sans-serif" font-size="11" font-style="italic" lengthAdjust="spacingAndGlyphs" textLength="138" x="360" y="466.2104">createMethod() : Method</text><ellipse cx="351" cy="476.707" fill="#84BE84" rx="3" ry="3" style="stroke: #038048; stroke-width: 1.0;"/><text fill="#000000" font-family="sans-serif" font-size="11" font-style="italic" lengthAdjust="spacingAndGlyphs" textLength="108" x="360" y="479.0151">createField() : Field</text><rect fill="#FEFECE" filter="url(#f1)" height="66.7422" style="stroke: #A80036; stroke-width: 1.5;" width="288" x="6" y="568.5"/><ellipse cx="88.75" cy="587.4688" fill="#ADD1B2" rx="11" ry="11" style="stroke: #A80036; stroke-width: 1.0;"/><path d="M91.0938,583.1406 L91.2656,583.2188 C91.4844,582.9063 91.6875,582.8125 91.9844,582.8125 C92.2813,582.8125 92.5625,582.9531 92.7188,583.2188 C92.8125,583.375 92.8281,583.5 92.8281,583.9375 L92.8281,585.3594 C92.8281,585.7813 92.7969,585.9688 92.6875,586.125 C92.5156,586.3438 92.25,586.4844 91.9844,586.4844 C91.7656,586.4844 91.5313,586.375 91.3906,586.2344 C91.25,586.1094 91.2188,585.9844 91.1563,585.5781 C91.0625,585.1719 90.8906,584.9531 90.4063,584.6719 C89.9375,584.4219 89.3281,584.2656 88.75,584.2656 C87.0156,584.2656 85.7656,585.5781 85.7656,587.3594 L85.7656,588.4531 C85.7656,590.1563 87.0625,591.25 89.1094,591.25 C89.875,591.25 90.5625,591.125 90.9844,590.8594 C91.1719,590.7656 91.1719,590.7656 91.625,590.2813 C91.8125,590.0938 92.0156,590.0156 92.2344,590.0156 C92.7031,590.0156 93.0938,590.4063 93.0938,590.8594 C93.0938,591.25 92.7656,591.7031 92.1875,592.1094 C91.4375,592.6563 90.2813,592.9531 89.0625,592.9531 C86.1719,592.9531 84.0625,591.0625 84.0625,588.4844 L84.0625,587.3594 C84.0625,584.6406 86.0625,582.5625 88.6875,582.5625 C89.5625,582.5625 90.1563,582.7031 91.0938,583.1406 Z "/><text fill="#000000" font-family="sans-serif" font-size="12" font-style="italic" lengthAdjust="spacingAndGlyphs" textLength="118" x="107.25" y="584.6387">&lt;&lt; ProductB_1 &gt;&gt;</text><text fill="#000000" font-family="sans-serif" font-size="12" lengthAdjust="spacingAndGlyphs" textLength="70" x="131.25" y="598.6074">PuPackage</text><line style="stroke: #A80036; stroke-width: 1.5;" x1="7" x2="293" y1="606.4375" y2="606.4375"/><line style="stroke: #A80036; stroke-width: 1.5;" x1="7" x2="293" y1="614.4375" y2="614.4375"/><ellipse cx="17" cy="626.3398" fill="#84BE84" rx="3" ry="3" style="stroke: #038048; stroke-width: 1.0;"/><text fill="#000000" font-family="sans-serif" font-size="11" lengthAdjust="spacingAndGlyphs" textLength="262" x="26" y="628.6479">createClassDeclaration() : PuClassDeclaration</text><rect fill="#FEFECE" filter="url(#f1)" height="79.5469" style="stroke: #A80036; stroke-width: 1.5;" width="178" x="329" y="562"/><ellipse cx="358.4" cy="580.9688" fill="#ADD1B2" rx="11" ry="11" style="stroke: #A80036; stroke-width: 1.0;"/><path d="M360.7438,576.6406 L360.9156,576.7188 C361.1344,576.4063 361.3375,576.3125 361.6344,576.3125 C361.9313,576.3125 362.2125,576.4531 362.3688,576.7188 C362.4625,576.875 362.4781,577 362.4781,577.4375 L362.4781,578.8594 C362.4781,579.2813 362.4469,579.4688 362.3375,579.625 C362.1656,579.8438 361.9,579.9844 361.6344,579.9844 C361.4156,579.9844 361.1813,579.875 361.0406,579.7344 C360.9,579.6094 360.8688,579.4844 360.8063,579.0781 C360.7125,578.6719 360.5406,578.4531 360.0563,578.1719 C359.5875,577.9219 358.9781,577.7656 358.4,577.7656 C356.6656,577.7656 355.4156,579.0781 355.4156,580.8594 L355.4156,581.9531 C355.4156,583.6563 356.7125,584.75 358.7594,584.75 C359.525,584.75 360.2125,584.625 360.6344,584.3594 C360.8219,584.2656 360.8219,584.2656 361.275,583.7813 C361.4625,583.5938 361.6656,583.5156 361.8844,583.5156 C362.3531,583.5156 362.7438,583.9063 362.7438,584.3594 C362.7438,584.75 362.4156,585.2031 361.8375,585.6094 C361.0875,586.1563 359.9313,586.4531 358.7125,586.4531 C355.8219,586.4531 353.7125,584.5625 353.7125,581.9844 L353.7125,580.8594 C353.7125,578.1406 355.7125,576.0625 358.3375,576.0625 C359.2125,576.0625 359.8063,576.2031 360.7438,576.6406 Z "/><text fill="#000000" font-family="sans-serif" font-size="12" font-style="italic" lengthAdjust="spacingAndGlyphs" textLength="118" x="373.6" y="578.1387">&lt;&lt; ProductA_2 &gt;&gt;</text><text fill="#000000" font-family="sans-serif" font-size="12" lengthAdjust="spacingAndGlyphs" textLength="49" x="408.1" y="592.1074">PuClass</text><line style="stroke: #A80036; stroke-width: 1.5;" x1="330" x2="506" y1="599.9375" y2="599.9375"/><line style="stroke: #A80036; stroke-width: 1.5;" x1="330" x2="506" y1="607.9375" y2="607.9375"/><ellipse cx="340" cy="619.8398" fill="#84BE84" rx="3" ry="3" style="stroke: #038048; stroke-width: 1.0;"/><text fill="#000000" font-family="sans-serif" font-size="11" lengthAdjust="spacingAndGlyphs" textLength="152" x="349" y="622.1479">createMethod() : PuMethod</text><ellipse cx="340" cy="632.6445" fill="#84BE84" rx="3" ry="3" style="stroke: #038048; stroke-width: 1.0;"/><text fill="#000000" font-family="sans-serif" font-size="11" lengthAdjust="spacingAndGlyphs" textLength="122" x="349" y="634.9526">createField() : PuField</text><rect fill="#FEFECE" filter="url(#f1)" height="66.7422" style="stroke: #A80036; stroke-width: 1.5;" width="137" x="546.75" y="415.5"/><ellipse cx="561.75" cy="434.4688" fill="#ADD1B2" rx="11" ry="11" style="stroke: #A80036; stroke-width: 1.0;"/><path d="M564.0938,430.1406 L564.2656,430.2188 C564.4844,429.9063 564.6875,429.8125 564.9844,429.8125 C565.2813,429.8125 565.5625,429.9531 565.7188,430.2188 C565.8125,430.375 565.8281,430.5 565.8281,430.9375 L565.8281,432.3594 C565.8281,432.7813 565.7969,432.9688 565.6875,433.125 C565.5156,433.3438 565.25,433.4844 564.9844,433.4844 C564.7656,433.4844 564.5313,433.375 564.3906,433.2344 C564.25,433.1094 564.2188,432.9844 564.1563,432.5781 C564.0625,432.1719 563.8906,431.9531 563.4063,431.6719 C562.9375,431.4219 562.3281,431.2656 561.75,431.2656 C560.0156,431.2656 558.7656,432.5781 558.7656,434.3594 L558.7656,435.4531 C558.7656,437.1563 560.0625,438.25 562.1094,438.25 C562.875,438.25 563.5625,438.125 563.9844,437.8594 C564.1719,437.7656 564.1719,437.7656 564.625,437.2813 C564.8125,437.0938 565.0156,437.0156 565.2344,437.0156 C565.7031,437.0156 566.0938,437.4063 566.0938,437.8594 C566.0938,438.25 565.7656,438.7031 565.1875,439.1094 C564.4375,439.6563 563.2813,439.9531 562.0625,439.9531 C559.1719,439.9531 557.0625,438.0625 557.0625,435.4844 L557.0625,434.3594 C557.0625,431.6406 559.0625,429.5625 561.6875,429.5625 C562.5625,429.5625 563.1563,429.7031 564.0938,430.1406 Z "/><text fill="#000000" font-family="sans-serif" font-size="12" font-style="italic" lengthAdjust="spacingAndGlyphs" textLength="89" x="583.75" y="431.6387">&lt;&lt; Leaf_1 &gt;&gt;</text><text fill="#000000" font-family="sans-serif" font-size="12" lengthAdjust="spacingAndGlyphs" textLength="105" x="575.75" y="445.6074">ClassDeclaration</text><line style="stroke: #A80036; stroke-width: 1.5;" x1="547.75" x2="682.75" y1="453.4375" y2="453.4375"/><line style="stroke: #A80036; stroke-width: 1.5;" x1="547.75" x2="682.75" y1="461.4375" y2="461.4375"/><ellipse cx="557.75" cy="473.3398" fill="#84BE84" rx="3" ry="3" style="stroke: #038048; stroke-width: 1.0;"/><text fill="#000000" font-family="sans-serif" font-size="11" lengthAdjust="spacingAndGlyphs" textLength="34" x="566.75" y="475.6479">print()</text><rect fill="#FEFECE" filter="url(#f1)" height="66.7422" style="stroke: #A80036; stroke-width: 1.5;" width="252" x="871" y="415.5"/><ellipse cx="950.25" cy="434.4688" fill="#ADD1B2" rx="11" ry="11" style="stroke: #A80036; stroke-width: 1.0;"/><path d="M952.5938,430.1406 L952.7656,430.2188 C952.9844,429.9063 953.1875,429.8125 953.4844,429.8125 C953.7813,429.8125 954.0625,429.9531 954.2188,430.2188 C954.3125,430.375 954.3281,430.5 954.3281,430.9375 L954.3281,432.3594 C954.3281,432.7813 954.2969,432.9688 954.1875,433.125 C954.0156,433.3438 953.75,433.4844 953.4844,433.4844 C953.2656,433.4844 953.0313,433.375 952.8906,433.2344 C952.75,433.1094 952.7188,432.9844 952.6563,432.5781 C952.5625,432.1719 952.3906,431.9531 951.9063,431.6719 C951.4375,431.4219 950.8281,431.2656 950.25,431.2656 C948.5156,431.2656 947.2656,432.5781 947.2656,434.3594 L947.2656,435.4531 C947.2656,437.1563 948.5625,438.25 950.6094,438.25 C951.375,438.25 952.0625,438.125 952.4844,437.8594 C952.6719,437.7656 952.6719,437.7656 953.125,437.2813 C953.3125,437.0938 953.5156,437.0156 953.7344,437.0156 C954.2031,437.0156 954.5938,437.4063 954.5938,437.8594 C954.5938,438.25 954.2656,438.7031 953.6875,439.1094 C952.9375,439.6563 951.7813,439.9531 950.5625,439.9531 C947.6719,439.9531 945.5625,438.0625 945.5625,435.4844 L945.5625,434.3594 C945.5625,431.6406 947.5625,429.5625 950.1875,429.5625 C951.0625,429.5625 951.6563,429.7031 952.5938,430.1406 Z "/><text fill="#000000" font-family="sans-serif" font-size="12" font-style="italic" lengthAdjust="spacingAndGlyphs" textLength="89" x="968.75" y="431.6387">&lt;&lt; Leaf_3 &gt;&gt;</text><text fill="#000000" font-family="sans-serif" font-size="12" lengthAdjust="spacingAndGlyphs" textLength="47" x="989.75" y="445.6074">Method</text><line style="stroke: #A80036; stroke-width: 1.5;" x1="872" x2="1122" y1="453.4375" y2="453.4375"/><line style="stroke: #A80036; stroke-width: 1.5;" x1="872" x2="1122" y1="461.4375" y2="461.4375"/><ellipse cx="882" cy="473.3398" fill="#84BE84" rx="3" ry="3" style="stroke: #038048; stroke-width: 1.0;"/><text fill="#000000" font-family="sans-serif" font-size="11" lengthAdjust="spacingAndGlyphs" textLength="226" x="891" y="475.6479">parseGenericParamTypes(Type[] types)</text><rect fill="#FEFECE" filter="url(#f1)" height="105.1563" style="stroke: #A80036; stroke-width: 1.5;" width="193" x="1158.75" y="396.5"/><ellipse cx="1208.5" cy="415.4688" fill="#ADD1B2" rx="11" ry="11" style="stroke: #A80036; stroke-width: 1.0;"/><path d="M1210.8438,411.1406 L1211.0156,411.2188 C1211.2344,410.9063 1211.4375,410.8125 1211.7344,410.8125 C1212.0313,410.8125 1212.3125,410.9531 1212.4688,411.2188 C1212.5625,411.375 1212.5781,411.5 1212.5781,411.9375 L1212.5781,413.3594 C1212.5781,413.7813 1212.5469,413.9688 1212.4375,414.125 C1212.2656,414.3438 1212,414.4844 1211.7344,414.4844 C1211.5156,414.4844 1211.2813,414.375 1211.1406,414.2344 C1211,414.1094 1210.9688,413.9844 1210.9063,413.5781 C1210.8125,413.1719 1210.6406,412.9531 1210.1563,412.6719 C1209.6875,412.4219 1209.0781,412.2656 1208.5,412.2656 C1206.7656,412.2656 1205.5156,413.5781 1205.5156,415.3594 L1205.5156,416.4531 C1205.5156,418.1563 1206.8125,419.25 1208.8594,419.25 C1209.625,419.25 1210.3125,419.125 1210.7344,418.8594 C1210.9219,418.7656 1210.9219,418.7656 1211.375,418.2813 C1211.5625,418.0938 1211.7656,418.0156 1211.9844,418.0156 C1212.4531,418.0156 1212.8438,418.4063 1212.8438,418.8594 C1212.8438,419.25 1212.5156,419.7031 1211.9375,420.1094 C1211.1875,420.6563 1210.0313,420.9531 1208.8125,420.9531 C1205.9219,420.9531 1203.8125,419.0625 1203.8125,416.4844 L1203.8125,415.3594 C1203.8125,412.6406 1205.8125,410.5625 1208.4375,410.5625 C1209.3125,410.5625 1209.9063,410.7031 1210.8438,411.1406 Z "/><text fill="#000000" font-family="sans-serif" font-size="12" font-style="italic" lengthAdjust="spacingAndGlyphs" textLength="89" x="1227" y="412.6387">&lt;&lt; Leaf_4 &gt;&gt;</text><text fill="#000000" font-family="sans-serif" font-size="12" lengthAdjust="spacingAndGlyphs" textLength="24" x="1259.5" y="426.6074">Link</text><line style="stroke: #A80036; stroke-width: 1.5;" x1="1159.75" x2="1350.75" y1="434.4375" y2="434.4375"/><line style="stroke: #A80036; stroke-width: 1.5;" x1="1159.75" x2="1350.75" y1="442.4375" y2="442.4375"/><ellipse cx="1169.75" cy="454.3398" fill="#84BE84" rx="3" ry="3" style="stroke: #038048; stroke-width: 1.0;"/><text fill="#000000" font-family="sans-serif" font-size="11" lengthAdjust="spacingAndGlyphs" textLength="34" x="1178.75" y="456.6479">print()</text><ellipse cx="1169.75" cy="467.1445" fill="#84BE84" rx="3" ry="3" style="stroke: #038048; stroke-width: 1.0;"/><text fill="#000000" font-family="sans-serif" font-size="11" lengthAdjust="spacingAndGlyphs" textLength="166" x="1178.75" y="469.4526">setA(Element el, String label)</text><ellipse cx="1169.75" cy="479.9492" fill="#84BE84" rx="3" ry="3" style="stroke: #038048; stroke-width: 1.0;"/><text fill="#000000" font-family="sans-serif" font-size="11" lengthAdjust="spacingAndGlyphs" textLength="167" x="1178.75" y="482.2573">setB(Element el, String label)</text><ellipse cx="1169.75" cy="492.7539" fill="#84BE84" rx="3" ry="3" style="stroke: #038048; stroke-width: 1.0;"/><text fill="#000000" font-family="sans-serif" font-size="11" lengthAdjust="spacingAndGlyphs" textLength="159" x="1178.75" y="495.062">setLinkType(ELinkType type)</text><rect fill="#FEFECE" filter="url(#f1)" height="53.9375" style="stroke: #A80036; stroke-width: 1.5;" width="117" x="718.75" y="422"/><ellipse cx="733.75" cy="440.9688" fill="#ADD1B2" rx="11" ry="11" style="stroke: #A80036; stroke-width: 1.0;"/><path d="M736.0938,436.6406 L736.2656,436.7188 C736.4844,436.4063 736.6875,436.3125 736.9844,436.3125 C737.2813,436.3125 737.5625,436.4531 737.7188,436.7188 C737.8125,436.875 737.8281,437 737.8281,437.4375 L737.8281,438.8594 C737.8281,439.2813 737.7969,439.4688 737.6875,439.625 C737.5156,439.8438 737.25,439.9844 736.9844,439.9844 C736.7656,439.9844 736.5313,439.875 736.3906,439.7344 C736.25,439.6094 736.2188,439.4844 736.1563,439.0781 C736.0625,438.6719 735.8906,438.4531 735.4063,438.1719 C734.9375,437.9219 734.3281,437.7656 733.75,437.7656 C732.0156,437.7656 730.7656,439.0781 730.7656,440.8594 L730.7656,441.9531 C730.7656,443.6563 732.0625,444.75 734.1094,444.75 C734.875,444.75 735.5625,444.625 735.9844,444.3594 C736.1719,444.2656 736.1719,444.2656 736.625,443.7813 C736.8125,443.5938 737.0156,443.5156 737.2344,443.5156 C737.7031,443.5156 738.0938,443.9063 738.0938,444.3594 C738.0938,444.75 737.7656,445.2031 737.1875,445.6094 C736.4375,446.1563 735.2813,446.4531 734.0625,446.4531 C731.1719,446.4531 729.0625,444.5625 729.0625,441.9844 L729.0625,440.8594 C729.0625,438.1406 731.0625,436.0625 733.6875,436.0625 C734.5625,436.0625 735.1563,436.2031 736.0938,436.6406 Z "/><text fill="#000000" font-family="sans-serif" font-size="12" font-style="italic" lengthAdjust="spacingAndGlyphs" textLength="89" x="745.75" y="438.1387">&lt;&lt; Leaf_2 &gt;&gt;</text><text fill="#000000" font-family="sans-serif" font-size="12" lengthAdjust="spacingAndGlyphs" textLength="29" x="775.75" y="452.1074">Field</text><line style="stroke: #A80036; stroke-width: 1.5;" x1="719.75" x2="834.75" y1="459.9375" y2="459.9375"/><line style="stroke: #A80036; stroke-width: 1.5;" x1="719.75" x2="834.75" y1="467.9375" y2="467.9375"/><rect fill="#FEFECE" filter="url(#f1)" height="53.9375" style="stroke: #A80036; stroke-width: 1.5;" width="153" x="542.75" y="575"/><ellipse cx="557.75" cy="593.9688" fill="#ADD1B2" rx="11" ry="11" style="stroke: #A80036; stroke-width: 1.0;"/><path d="M560.0938,589.6406 L560.2656,589.7188 C560.4844,589.4063 560.6875,589.3125 560.9844,589.3125 C561.2813,589.3125 561.5625,589.4531 561.7188,589.7188 C561.8125,589.875 561.8281,590 561.8281,590.4375 L561.8281,591.8594 C561.8281,592.2813 561.7969,592.4688 561.6875,592.625 C561.5156,592.8438 561.25,592.9844 560.9844,592.9844 C560.7656,592.9844 560.5313,592.875 560.3906,592.7344 C560.25,592.6094 560.2188,592.4844 560.1563,592.0781 C560.0625,591.6719 559.8906,591.4531 559.4063,591.1719 C558.9375,590.9219 558.3281,590.7656 557.75,590.7656 C556.0156,590.7656 554.7656,592.0781 554.7656,593.8594 L554.7656,594.9531 C554.7656,596.6563 556.0625,597.75 558.1094,597.75 C558.875,597.75 559.5625,597.625 559.9844,597.3594 C560.1719,597.2656 560.1719,597.2656 560.625,596.7813 C560.8125,596.5938 561.0156,596.5156 561.2344,596.5156 C561.7031,596.5156 562.0938,596.9063 562.0938,597.3594 C562.0938,597.75 561.7656,598.2031 561.1875,598.6094 C560.4375,599.1563 559.2813,599.4531 558.0625,599.4531 C555.1719,599.4531 553.0625,597.5625 553.0625,594.9844 L553.0625,593.8594 C553.0625,591.1406 555.0625,589.0625 557.6875,589.0625 C558.5625,589.0625 559.1563,589.2031 560.0938,589.6406 Z "/><text fill="#000000" font-family="sans-serif" font-size="12" font-style="italic" lengthAdjust="spacingAndGlyphs" textLength="118" x="573.25" y="591.1387">&lt;&lt; ProductA_3 &gt;&gt;</text><text fill="#000000" font-family="sans-serif" font-size="12" lengthAdjust="spacingAndGlyphs" textLength="121" x="571.75" y="605.1074">PuClassDeclaration</text><line style="stroke: #A80036; stroke-width: 1.5;" x1="543.75" x2="694.75" y1="612.9375" y2="612.9375"/><line style="stroke: #A80036; stroke-width: 1.5;" x1="543.75" x2="694.75" y1="620.9375" y2="620.9375"/><rect fill="#FEFECE" filter="url(#f1)" height="53.9375" style="stroke: #A80036; stroke-width: 1.5;" width="146" x="731" y="575"/><ellipse cx="746" cy="593.9688" fill="#ADD1B2" rx="11" ry="11" style="stroke: #A80036; stroke-width: 1.0;"/><path d="M748.3438,589.6406 L748.5156,589.7188 C748.7344,589.4063 748.9375,589.3125 749.2344,589.3125 C749.5313,589.3125 749.8125,589.4531 749.9688,589.7188 C750.0625,589.875 750.0781,590 750.0781,590.4375 L750.0781,591.8594 C750.0781,592.2813 750.0469,592.4688 749.9375,592.625 C749.7656,592.8438 749.5,592.9844 749.2344,592.9844 C749.0156,592.9844 748.7813,592.875 748.6406,592.7344 C748.5,592.6094 748.4688,592.4844 748.4063,592.0781 C748.3125,591.6719 748.1406,591.4531 747.6563,591.1719 C747.1875,590.9219 746.5781,590.7656 746,590.7656 C744.2656,590.7656 743.0156,592.0781 743.0156,593.8594 L743.0156,594.9531 C743.0156,596.6563 744.3125,597.75 746.3594,597.75 C747.125,597.75 747.8125,597.625 748.2344,597.3594 C748.4219,597.2656 748.4219,597.2656 748.875,596.7813 C749.0625,596.5938 749.2656,596.5156 749.4844,596.5156 C749.9531,596.5156 750.3438,596.9063 750.3438,597.3594 C750.3438,597.75 750.0156,598.2031 749.4375,598.6094 C748.6875,599.1563 747.5313,599.4531 746.3125,599.4531 C743.4219,599.4531 741.3125,597.5625 741.3125,594.9844 L741.3125,593.8594 C741.3125,591.1406 743.3125,589.0625 745.9375,589.0625 C746.8125,589.0625 747.4063,589.2031 748.3438,589.6406 Z "/><text fill="#000000" font-family="sans-serif" font-size="12" font-style="italic" lengthAdjust="spacingAndGlyphs" textLength="118" x="758" y="591.1387">&lt;&lt; ProductA_4 &gt;&gt;</text><text fill="#000000" font-family="sans-serif" font-size="12" lengthAdjust="spacingAndGlyphs" textLength="45" x="794.5" y="605.1074">PuField</text><line style="stroke: #A80036; stroke-width: 1.5;" x1="732" x2="876" y1="612.9375" y2="612.9375"/><line style="stroke: #A80036; stroke-width: 1.5;" x1="732" x2="876" y1="620.9375" y2="620.9375"/><rect fill="#FEFECE" filter="url(#f1)" height="53.9375" style="stroke: #A80036; stroke-width: 1.5;" width="146" x="924" y="575"/><ellipse cx="939" cy="593.9688" fill="#ADD1B2" rx="11" ry="11" style="stroke: #A80036; stroke-width: 1.0;"/><path d="M941.3438,589.6406 L941.5156,589.7188 C941.7344,589.4063 941.9375,589.3125 942.2344,589.3125 C942.5313,589.3125 942.8125,589.4531 942.9688,589.7188 C943.0625,589.875 943.0781,590 943.0781,590.4375 L943.0781,591.8594 C943.0781,592.2813 943.0469,592.4688 942.9375,592.625 C942.7656,592.8438 942.5,592.9844 942.2344,592.9844 C942.0156,592.9844 941.7813,592.875 941.6406,592.7344 C941.5,592.6094 941.4688,592.4844 941.4063,592.0781 C941.3125,591.6719 941.1406,591.4531 940.6563,591.1719 C940.1875,590.9219 939.5781,590.7656 939,590.7656 C937.2656,590.7656 936.0156,592.0781 936.0156,593.8594 L936.0156,594.9531 C936.0156,596.6563 937.3125,597.75 939.3594,597.75 C940.125,597.75 940.8125,597.625 941.2344,597.3594 C941.4219,597.2656 941.4219,597.2656 941.875,596.7813 C942.0625,596.5938 942.2656,596.5156 942.4844,596.5156 C942.9531,596.5156 943.3438,596.9063 943.3438,597.3594 C943.3438,597.75 943.0156,598.2031 942.4375,598.6094 C941.6875,599.1563 940.5313,599.4531 939.3125,599.4531 C936.4219,599.4531 934.3125,597.5625 934.3125,594.9844 L934.3125,593.8594 C934.3125,591.1406 936.3125,589.0625 938.9375,589.0625 C939.8125,589.0625 940.4063,589.2031 941.3438,589.6406 Z "/><text fill="#000000" font-family="sans-serif" font-size="12" font-style="italic" lengthAdjust="spacingAndGlyphs" textLength="118" x="951" y="591.1387">&lt;&lt; ProductA_5 &gt;&gt;</text><text fill="#000000" font-family="sans-serif" font-size="12" lengthAdjust="spacingAndGlyphs" textLength="63" x="978.5" y="605.1074">PuMethod</text><line style="stroke: #A80036; stroke-width: 1.5;" x1="925" x2="1069" y1="612.9375" y2="612.9375"/><line style="stroke: #A80036; stroke-width: 1.5;" x1="925" x2="1069" y1="620.9375" y2="620.9375"/><rect fill="#FEFECE" filter="url(#f1)" height="53.9375" style="stroke: #A80036; stroke-width: 1.5;" width="146" x="1182" y="575"/><ellipse cx="1197" cy="593.9688" fill="#ADD1B2" rx="11" ry="11" style="stroke: #A80036; stroke-width: 1.0;"/><path d="M1199.3438,589.6406 L1199.5156,589.7188 C1199.7344,589.4063 1199.9375,589.3125 1200.2344,589.3125 C1200.5313,589.3125 1200.8125,589.4531 1200.9688,589.7188 C1201.0625,589.875 1201.0781,590 1201.0781,590.4375 L1201.0781,591.8594 C1201.0781,592.2813 1201.0469,592.4688 1200.9375,592.625 C1200.7656,592.8438 1200.5,592.9844 1200.2344,592.9844 C1200.0156,592.9844 1199.7813,592.875 1199.6406,592.7344 C1199.5,592.6094 1199.4688,592.4844 1199.4063,592.0781 C1199.3125,591.6719 1199.1406,591.4531 1198.6563,591.1719 C1198.1875,590.9219 1197.5781,590.7656 1197,590.7656 C1195.2656,590.7656 1194.0156,592.0781 1194.0156,593.8594 L1194.0156,594.9531 C1194.0156,596.6563 1195.3125,597.75 1197.3594,597.75 C1198.125,597.75 1198.8125,597.625 1199.2344,597.3594 C1199.4219,597.2656 1199.4219,597.2656 1199.875,596.7813 C1200.0625,596.5938 1200.2656,596.5156 1200.4844,596.5156 C1200.9531,596.5156 1201.3438,596.9063 1201.3438,597.3594 C1201.3438,597.75 1201.0156,598.2031 1200.4375,598.6094 C1199.6875,599.1563 1198.5313,599.4531 1197.3125,599.4531 C1194.4219,599.4531 1192.3125,597.5625 1192.3125,594.9844 L1192.3125,593.8594 C1192.3125,591.1406 1194.3125,589.0625 1196.9375,589.0625 C1197.8125,589.0625 1198.4063,589.2031 1199.3438,589.6406 Z "/><text fill="#000000" font-family="sans-serif" font-size="12" font-style="italic" lengthAdjust="spacingAndGlyphs" textLength="118" x="1209" y="591.1387">&lt;&lt; ProductA_6 &gt;&gt;</text><text fill="#000000" font-family="sans-serif" font-size="12" lengthAdjust="spacingAndGlyphs" textLength="40" x="1248" y="605.1074">PuLink</text><line style="stroke: #A80036; stroke-width: 1.5;" x1="1183" x2="1327" y1="612.9375" y2="612.9375"/><line style="stroke: #A80036; stroke-width: 1.5;" x1="1183" x2="1327" y1="620.9375" y2="620.9375"/><path d="M1174.94,207.69 C1183.79,222.602 1192.42,237.132 1199.95,249.812 " fill="none" style="stroke: #A80036; stroke-width: 1.0;"/><polygon fill="none" points="1168.69,210.868,1164.5,190.097,1180.72,203.72,1168.69,210.868" style="stroke: #A80036; stroke-width: 1.0;"/><path d="M359.245,144.364 C341.93,162.651 322.574,184.554 307,206 C254.8,277.879 206.863,371.449 184.028,418.397 " fill="none" style="stroke: #A80036; stroke-width: 1.0;"/><polygon fill="none" points="354.25,139.46,373.182,129.943,364.317,149.189,354.25,139.46" style="stroke: #A80036; stroke-width: 1.0;"/><path d="M364.05,145.889 C351.21,163.484 338.606,184.518 332,206 C311.882,271.421 305.453,296.914 332,360 C340.391,379.941 355.752,397.619 371.437,411.803 " fill="none" style="stroke: #A80036; stroke-width: 1.0;"/><polygon fill="none" points="358.702,141.363,376.499,129.862,369.759,149.951,358.702,141.363" style="stroke: #A80036; stroke-width: 1.0;"/><path d="M968.272,237.755 C955.204,225.101 939.195,213.224 922,206 C855.335,177.991 666.84,208.736 597,190 C545.359,176.146 491.456,145.596 453.243,123.941 " fill="none" style="stroke: #A80036; stroke-width: 1.0; stroke-dasharray: 7.0,7.0;"/><polygon fill="none" points="973.693,233.307,982.155,252.734,963.425,242.824,973.693,233.307" style="stroke: #A80036; stroke-width: 1.0;"/><path d="M445.499,136.85 C476.53,156.434 520.013,178.736 562,190 C631.84,208.736 820.335,177.991 887,206 C910.924,216.051 932.552,235.109 950.583,252.734 " fill="none" style="stroke: #A80036; stroke-width: 1.0;"/><polygon fill="none" points="434.245,129.506,437.0829,136.1352,444.2937,136.0653,441.4558,129.4361,434.245,129.506" style="stroke: #A80036; stroke-width: 1.0;"/><text fill="#000000" font-family="sans-serif" font-size="13" lengthAdjust="spacingAndGlyphs" textLength="8" x="430.4518" y="149.4455">1</text><text fill="#000000" font-family="sans-serif" font-size="13" lengthAdjust="spacingAndGlyphs" textLength="8" x="934.3525" y="241.9844">n</text><path d="M367.243,323.511 C327.611,348.524 270.598,384.508 228.051,411.361 " fill="none" style="stroke: #A80036; stroke-width: 1.0;"/><polygon fill="none" points="217.014,418.327,224.2229,418.507,227.1617,411.9219,219.9528,411.7419,217.014,418.327" style="stroke: #A80036; stroke-width: 1.0;"/><path d="M548.454,336.081 C524.946,356.887 496.563,382.008 472.648,403.174 " fill="none" style="stroke: #A80036; stroke-width: 1.0;"/><polygon fill="none" points="462.699,411.979,469.8429,410.9971,471.6842,404.025,464.5403,405.0069,462.699,411.979" style="stroke: #A80036; stroke-width: 1.0;"/><path d="M933.253,344.618 C923.816,350.488 913.919,355.849 904,360 C819.474,395.374 786.767,363.749 701,396 C687.772,400.974 674.305,408.007 662.074,415.297 " fill="none" style="stroke: #A80036; stroke-width: 1.0; stroke-dasharray: 7.0,7.0;"/><polygon fill="none" points="929.667,338.595,950.178,333.275,937.461,350.225,929.667,338.595" style="stroke: #A80036; stroke-width: 1.0;"/><path d="M603.654,356.041 C606.155,376.309 608.833,398.015 610.959,415.246 " fill="none" style="stroke: #A80036; stroke-width: 1.0;"/><polygon fill="none" points="596.694,356.788,601.192,336.081,610.588,355.074,596.694,356.788" style="stroke: #A80036; stroke-width: 1.0;"/><path d="M752.419,336.662 C758.458,364.014 766.101,398.635 771.249,421.95 " fill="none" style="stroke: #A80036; stroke-width: 1.0;"/><polygon fill="none" points="745.567,338.094,748.09,317.055,759.237,335.076,745.567,338.094" style="stroke: #A80036; stroke-width: 1.0;"/><path d="M925.64,344.765 C918.339,349.922 911.026,355.073 904,360 C874.131,380.946 840.155,404.473 814.866,421.927 " fill="none" style="stroke: #A80036; stroke-width: 1.0; stroke-dasharray: 7.0,7.0;"/><polygon fill="none" points="921.626,339.03,941.995,333.19,929.714,350.458,921.626,339.03" style="stroke: #A80036; stroke-width: 1.0;"/><path d="M880.028,332.336 C888.018,341.548 896.684,351.25 905,360 C922.968,378.905 943.918,399.078 961.284,415.335 " fill="none" style="stroke: #A80036; stroke-width: 1.0;"/><polygon fill="none" points="874.663,336.832,867.001,317.076,885.31,327.742,874.663,336.832" style="stroke: #A80036; stroke-width: 1.0;"/><path d="M997,353.422 C997,374.451 997,397.327 997,415.313 " fill="none" style="stroke: #A80036; stroke-width: 1.0; stroke-dasharray: 7.0,7.0;"/><polygon fill="none" points="990,353.259,997,333.259,1004,353.259,990,353.259" style="stroke: #A80036; stroke-width: 1.0;"/><path d="M1064.72,344.718 C1072.47,350.036 1080.33,355.234 1088,360 C1110.4,373.929 1135.23,387.8 1158.74,400.271 " fill="none" style="stroke: #A80036; stroke-width: 1.0; stroke-dasharray: 7.0,7.0;"/><polygon fill="none" points="1060.41,350.243,1048.09,333.003,1068.47,338.797,1060.41,350.243" style="stroke: #A80036; stroke-width: 1.0;"/><path d="M163.419,499.69 C160.43,522.252 156.979,548.3115 154.324,568.35 " fill="none" style="stroke: #A80036; stroke-width: 1.0;"/><polygon fill="none" points="156.483,498.74,166.049,479.833,170.362,500.579,156.483,498.74" style="stroke: #A80036; stroke-width: 1.0;"/><path d="M420.505,506.455 C420.015,524.937 419.482,545.0488 419.034,561.9527 " fill="none" style="stroke: #A80036; stroke-width: 1.0;"/><polygon fill="none" points="413.515,505.976,421.042,486.168,427.51,506.347,413.515,505.976" style="stroke: #A80036; stroke-width: 1.0;"/><path d="M616.403,502.972 C617.048,527.301 617.783,555.0643 618.306,574.8191 " fill="none" style="stroke: #A80036; stroke-width: 1.0;"/><polygon fill="none" points="609.4,502.943,615.868,482.765,623.395,502.572,609.4,502.943" style="stroke: #A80036; stroke-width: 1.0;"/><path d="M785.229,496.023 C789.862,521.929 795.476,553.3283 799.351,574.9992 " fill="none" style="stroke: #A80036; stroke-width: 1.0;"/><polygon fill="none" points="778.333,497.222,781.703,476.302,792.114,494.758,778.333,497.222" style="stroke: #A80036; stroke-width: 1.0;"/><path d="M997,502.972 C997,527.301 997,555.0643 997,574.8191 " fill="none" style="stroke: #A80036; stroke-width: 1.0;"/><polygon fill="none" points="990,502.765,997,482.765,1004,502.765,990,502.765" style="stroke: #A80036; stroke-width: 1.0;"/><path d="M1255,521.727 C1255,540.65 1255,559.8902 1255,574.6762 " fill="none" style="stroke: #A80036; stroke-width: 1.0;"/><polygon fill="none" points="1248,521.543,1255,501.543,1262,521.543,1248,521.543" style="stroke: #A80036; stroke-width: 1.0;"/><path d="M1050.76,201.464 C1039.93,219.703 1029.25,237.679 1020.31,252.745 " fill="none" style="stroke: #A80036; stroke-width: 1.0;"/><polygon fill="none" points="1057.5,190.097,1050.9965,193.2122,1051.3707,200.4136,1057.8742,197.2984,1057.5,190.097" style="stroke: #A80036; stroke-width: 1.0;"/><text fill="#000000" font-family="sans-serif" font-size="13" lengthAdjust="spacingAndGlyphs" textLength="8" x="1043.8184" y="210.0268">1</text><text fill="#000000" font-family="sans-serif" font-size="13" lengthAdjust="spacingAndGlyphs" textLength="8" x="1013.8848" y="241.9969">n</text></g></svg>