<?xml version="1.0" encoding="UTF-8" standalone="yes"?><svg xmlns="http://www.w3.org/2000/svg" xmlns:xlink="http://www.w3.org/1999/xlink" height="706pt" style="width:2104px;height:706px;" version="1.1" viewBox="0 0 2104 706" width="2104pt"><defs><filter height="300%" id="f1" width="300%" x="-1" y="-1"><feGaussianBlur result="blurOut" stdDeviation="2.0"/><feColorMatrix in="blurOut" result="blurOut2" type="matrix" values="0 0 0 0 0 0 0 0 0 0 0 0 0 0 0 0 0 0 .4 0"/><feOffset dx="4.0" dy="4.0" in="blurOut2" result="blurOut3"/><feBlend in="SourceGraphic" in2="blurOut3" mode="normal"/></filter></defs><g><polygon fill="#FFFFFF" filter="url(#f1)" points="348,157,423,157,430,179.2969,915,179.2969,915,295,348,295,348,157" style="stroke: #000000; stroke-width: 2.0;"/><line style="stroke: #000000; stroke-width: 2.0;" x1="348" x2="430" y1="179.2969" y2="179.2969"/><text fill="#000000" font-family="sans-serif" font-size="14" font-weight="bold" lengthAdjust="spacingAndGlyphs" textLength="69" x="351" y="172.9951">java.lang</text><rect fill="#FEFECE" filter="url(#f1)" height="60.8047" style="stroke: #A80036; stroke-width: 1.5;" width="131" x="364" y="205.5"/><ellipse cx="399.25" cy="221.5" fill="#ADD1B2" rx="11" ry="11" style="stroke: #A80036; stroke-width: 1.0;"/><path d="M402.2188,227.1406 Q401.6406,227.4375 401,227.5859 Q400.3594,227.7344 399.6563,227.7344 Q397.1563,227.7344 395.8359,226.0859 Q394.5156,224.4375 394.5156,221.3125 Q394.5156,218.1875 395.8359,216.5313 Q397.1563,214.875 399.6563,214.875 Q400.3594,214.875 401.0078,215.0313 Q401.6563,215.1875 402.2188,215.4844 L402.2188,218.2031 Q401.5938,217.625 401,217.3516 Q400.4063,217.0781 399.7813,217.0781 Q398.4375,217.0781 397.75,218.1484 Q397.0625,219.2188 397.0625,221.3125 Q397.0625,223.4063 397.75,224.4766 Q398.4375,225.5469 399.7813,225.5469 Q400.4063,225.5469 401,225.2734 Q401.5938,225 402.2188,224.4219 L402.2188,227.1406 Z "/><text fill="#000000" font-family="sans-serif" font-size="12" lengthAdjust="spacingAndGlyphs" textLength="54" x="417.75" y="225.6543">Package</text><line style="stroke: #A80036; stroke-width: 1.5;" x1="365" x2="494" y1="237.5" y2="237.5"/><line style="stroke: #A80036; stroke-width: 1.5;" x1="365" x2="494" y1="245.5" y2="245.5"/><ellipse cx="375" cy="257.4023" fill="#84BE84" rx="3" ry="3" style="stroke: #038048; stroke-width: 1.0;"/><text fill="#000000" font-family="sans-serif" font-size="11" lengthAdjust="spacingAndGlyphs" textLength="105" x="384" y="259.7104">getName() : String</text><rect fill="#FEFECE" filter="url(#f1)" height="86.4141" style="stroke: #A80036; stroke-width: 1.5;" width="162" x="529" y="193"/><ellipse cx="589.25" cy="209" fill="#ADD1B2" rx="11" ry="11" style="stroke: #A80036; stroke-width: 1.0;"/><path d="M592.2188,214.6406 Q591.6406,214.9375 591,215.0859 Q590.3594,215.2344 589.6563,215.2344 Q587.1563,215.2344 585.8359,213.5859 Q584.5156,211.9375 584.5156,208.8125 Q584.5156,205.6875 585.8359,204.0313 Q587.1563,202.375 589.6563,202.375 Q590.3594,202.375 591.0078,202.5313 Q591.6563,202.6875 592.2188,202.9844 L592.2188,205.7031 Q591.5938,205.125 591,204.8516 Q590.4063,204.5781 589.7813,204.5781 Q588.4375,204.5781 587.75,205.6484 Q587.0625,206.7188 587.0625,208.8125 Q587.0625,210.9063 587.75,211.9766 Q588.4375,213.0469 589.7813,213.0469 Q590.4063,213.0469 591,212.7734 Q591.5938,212.5 592.2188,211.9219 L592.2188,214.6406 Z "/><text fill="#000000" font-family="sans-serif" font-size="12" lengthAdjust="spacingAndGlyphs" textLength="33" x="609.75" y="213.1543">Class</text><line style="stroke: #A80036; stroke-width: 1.5;" x1="530" x2="690" y1="225" y2="225"/><line style="stroke: #A80036; stroke-width: 1.5;" x1="530" x2="690" y1="233" y2="233"/><ellipse cx="540" cy="244.9023" fill="#84BE84" rx="3" ry="3" style="stroke: #038048; stroke-width: 1.0;"/><text fill="#000000" font-family="sans-serif" font-size="11" lengthAdjust="spacingAndGlyphs" textLength="125" x="549" y="247.2104">isInterface() : boolean</text><ellipse cx="540" cy="257.707" fill="#84BE84" rx="3" ry="3" style="stroke: #038048; stroke-width: 1.0;"/><text fill="#000000" font-family="sans-serif" font-size="11" lengthAdjust="spacingAndGlyphs" textLength="107" x="549" y="260.0151">isEnum() : boolean</text><ellipse cx="540" cy="270.5117" fill="#84BE84" rx="3" ry="3" style="stroke: #038048; stroke-width: 1.0;"/><text fill="#000000" font-family="sans-serif" font-size="11" lengthAdjust="spacingAndGlyphs" textLength="136" x="549" y="272.8198">getSuperClass() : Class</text><rect fill="#FEFECE" filter="url(#f1)" height="48" style="stroke: #A80036; stroke-width: 1.5;" width="61" x="726" y="212"/><ellipse cx="741" cy="228" fill="#ADD1B2" rx="11" ry="11" style="stroke: #A80036; stroke-width: 1.0;"/><path d="M743.9688,233.6406 Q743.3906,233.9375 742.75,234.0859 Q742.1094,234.2344 741.4063,234.2344 Q738.9063,234.2344 737.5859,232.5859 Q736.2656,230.9375 736.2656,227.8125 Q736.2656,224.6875 737.5859,223.0313 Q738.9063,221.375 741.4063,221.375 Q742.1094,221.375 742.7578,221.5313 Q743.4063,221.6875 743.9688,221.9844 L743.9688,224.7031 Q743.3438,224.125 742.75,223.8516 Q742.1563,223.5781 741.5313,223.5781 Q740.1875,223.5781 739.5,224.6484 Q738.8125,225.7188 738.8125,227.8125 Q738.8125,229.9063 739.5,230.9766 Q740.1875,232.0469 741.5313,232.0469 Q742.1563,232.0469 742.75,231.7734 Q743.3438,231.5 743.9688,230.9219 L743.9688,233.6406 Z "/><text fill="#000000" font-family="sans-serif" font-size="12" lengthAdjust="spacingAndGlyphs" textLength="29" x="755" y="232.1543">Field</text><line style="stroke: #A80036; stroke-width: 1.5;" x1="727" x2="786" y1="244" y2="244"/><line style="stroke: #A80036; stroke-width: 1.5;" x1="727" x2="786" y1="252" y2="252"/><rect fill="#FEFECE" filter="url(#f1)" height="48" style="stroke: #A80036; stroke-width: 1.5;" width="79" x="821" y="212"/><ellipse cx="836" cy="228" fill="#ADD1B2" rx="11" ry="11" style="stroke: #A80036; stroke-width: 1.0;"/><path d="M838.9688,233.6406 Q838.3906,233.9375 837.75,234.0859 Q837.1094,234.2344 836.4063,234.2344 Q833.9063,234.2344 832.5859,232.5859 Q831.2656,230.9375 831.2656,227.8125 Q831.2656,224.6875 832.5859,223.0313 Q833.9063,221.375 836.4063,221.375 Q837.1094,221.375 837.7578,221.5313 Q838.4063,221.6875 838.9688,221.9844 L838.9688,224.7031 Q838.3438,224.125 837.75,223.8516 Q837.1563,223.5781 836.5313,223.5781 Q835.1875,223.5781 834.5,224.6484 Q833.8125,225.7188 833.8125,227.8125 Q833.8125,229.9063 834.5,230.9766 Q835.1875,232.0469 836.5313,232.0469 Q837.1563,232.0469 837.75,231.7734 Q838.3438,231.5 838.9688,230.9219 L838.9688,233.6406 Z "/><text fill="#000000" font-family="sans-serif" font-size="12" lengthAdjust="spacingAndGlyphs" textLength="47" x="850" y="232.1543">Method</text><line style="stroke: #A80036; stroke-width: 1.5;" x1="822" x2="899" y1="244" y2="244"/><line style="stroke: #A80036; stroke-width: 1.5;" x1="822" x2="899" y1="252" y2="252"/><rect fill="#FEFECE" filter="url(#f1)" height="60.8047" style="stroke: #A80036; stroke-width: 1.5;" width="209" x="1886" y="31.5"/><ellipse cx="1965.75" cy="47.5" fill="#ADD1B2" rx="11" ry="11" style="stroke: #A80036; stroke-width: 1.0;"/><path d="M1968.7188,53.1406 Q1968.1406,53.4375 1967.5,53.5859 Q1966.8594,53.7344 1966.1563,53.7344 Q1963.6563,53.7344 1962.3359,52.0859 Q1961.0156,50.4375 1961.0156,47.3125 Q1961.0156,44.1875 1962.3359,42.5313 Q1963.6563,40.875 1966.1563,40.875 Q1966.8594,40.875 1967.5078,41.0313 Q1968.1563,41.1875 1968.7188,41.4844 L1968.7188,44.2031 Q1968.0938,43.625 1967.5,43.3516 Q1966.9063,43.0781 1966.2813,43.0781 Q1964.9375,43.0781 1964.25,44.1484 Q1963.5625,45.2188 1963.5625,47.3125 Q1963.5625,49.4063 1964.25,50.4766 Q1964.9375,51.5469 1966.2813,51.5469 Q1966.9063,51.5469 1967.5,51.2734 Q1968.0938,51 1968.7188,50.4219 L1968.7188,53.1406 Z "/><text fill="#000000" font-family="sans-serif" font-size="12" lengthAdjust="spacingAndGlyphs" textLength="41" x="1986.25" y="51.6543">Helper</text><line style="stroke: #A80036; stroke-width: 1.5;" x1="1887" x2="2094" y1="63.5" y2="63.5"/><line style="stroke: #A80036; stroke-width: 1.5;" x1="1887" x2="2094" y1="71.5" y2="71.5"/><ellipse cx="1897" cy="83.4023" fill="#84BE84" rx="3" ry="3" style="stroke: #038048; stroke-width: 1.0;"/><text fill="#000000" font-family="sans-serif" font-size="11" lengthAdjust="spacingAndGlyphs" text-decoration="underline" textLength="183" x="1906" y="85.7104">ModifierToPlantUML(int modifier)</text><line style="stroke: #000000; stroke-width: 1.0;" x1="1906" x2="2089" y1="87.7104" y2="87.7104"/><rect fill="#FEFECE" filter="url(#f1)" height="160.375" style="stroke: #A80036; stroke-width: 1.5;" width="309" x="1403" y="378"/><ellipse cx="1486.75" cy="396.9688" fill="#ADD1B2" rx="11" ry="11" style="stroke: #A80036; stroke-width: 1.0;"/><path d="M1489.7188,402.6094 Q1489.1406,402.9063 1488.5,403.0547 Q1487.8594,403.2031 1487.1563,403.2031 Q1484.6563,403.2031 1483.3359,401.5547 Q1482.0156,399.9063 1482.0156,396.7813 Q1482.0156,393.6563 1483.3359,392 Q1484.6563,390.3438 1487.1563,390.3438 Q1487.8594,390.3438 1488.5078,390.5 Q1489.1563,390.6563 1489.7188,390.9531 L1489.7188,393.6719 Q1489.0938,393.0938 1488.5,392.8203 Q1487.9063,392.5469 1487.2813,392.5469 Q1485.9375,392.5469 1485.25,393.6172 Q1484.5625,394.6875 1484.5625,396.7813 Q1484.5625,398.875 1485.25,399.9453 Q1485.9375,401.0156 1487.2813,401.0156 Q1487.9063,401.0156 1488.5,400.7422 Q1489.0938,400.4688 1489.7188,399.8906 L1489.7188,402.6094 Z "/><text fill="#000000" font-family="sans-serif" font-size="12" font-style="italic" lengthAdjust="spacingAndGlyphs" textLength="137" x="1505.25" y="394.1387">&lt;&lt;Builder.Director&gt;&gt;</text><text fill="#000000" font-family="sans-serif" font-size="12" lengthAdjust="spacingAndGlyphs" textLength="89" x="1529.25" y="408.1074">UMLGenerator</text><line style="stroke: #A80036; stroke-width: 1.5;" x1="1404" x2="1711" y1="415.9375" y2="415.9375"/><rect fill="none" height="6" style="stroke: #C82930; stroke-width: 1.0;" width="6" x="1411" y="424.8398"/><text fill="#000000" font-family="sans-serif" font-size="11" lengthAdjust="spacingAndGlyphs" textLength="137" x="1423" y="430.1479">builder : ElementBuilder</text><rect fill="none" height="6" style="stroke: #C82930; stroke-width: 1.0;" width="6" x="1411" y="454.4492"/><text fill="#000000" font-family="sans-serif" font-size="11" lengthAdjust="spacingAndGlyphs" textLength="208" x="1423" y="459.7573">requestedPackages : Set&lt;Package&gt;</text><rect fill="none" height="6" style="stroke: #C82930; stroke-width: 1.0;" width="6" x="1411" y="467.2539"/><text fill="#000000" font-family="sans-serif" font-size="11" lengthAdjust="spacingAndGlyphs" textLength="237" x="1423" y="472.562">requestedClasses : Map&lt;Class, Integer&gt;</text><line style="stroke: #A80036; stroke-width: 1.0; stroke-dasharray: 1.0,2.0;" x1="1404" x2="1473.5" y1="443.1445" y2="443.1445"/><text fill="#000000" font-family="sans-serif" font-size="11" lengthAdjust="spacingAndGlyphs" textLength="168" x="1473.5" y="446.4526">objects to process on (intput)</text><line style="stroke: #A80036; stroke-width: 1.0; stroke-dasharray: 1.0,2.0;" x1="1641.5" x2="1711" y1="443.1445" y2="443.1445"/><line style="stroke: #A80036; stroke-width: 1.0;" x1="1404" x2="1711" y1="479.1563" y2="479.1563"/><ellipse cx="1414" cy="491.0586" fill="#84BE84" rx="3" ry="3" style="stroke: #038048; stroke-width: 1.0;"/><text fill="#000000" font-family="sans-serif" font-size="11" lengthAdjust="spacingAndGlyphs" textLength="153" x="1423" y="493.3667">addRequestedClass(Class)</text><ellipse cx="1414" cy="503.8633" fill="#84BE84" rx="3" ry="3" style="stroke: #038048; stroke-width: 1.0;"/><text fill="#000000" font-family="sans-serif" font-size="11" lengthAdjust="spacingAndGlyphs" textLength="183" x="1423" y="506.1714">addRequestedPackage(Package)</text><ellipse cx="1414" cy="516.668" fill="#84BE84" rx="3" ry="3" style="stroke: #038048; stroke-width: 1.0;"/><text fill="#000000" font-family="sans-serif" font-size="11" lengthAdjust="spacingAndGlyphs" textLength="283" x="1423" y="518.9761">generateClassDiagram() -- ALGORITHM (generate)</text><ellipse cx="1414" cy="529.4727" fill="#84BE84" rx="3" ry="3" style="stroke: #038048; stroke-width: 1.0;"/><text fill="#000000" font-family="sans-serif" font-size="11" lengthAdjust="spacingAndGlyphs" textLength="175" x="1423" y="531.7808">print() -- ALGORITHM (visualize)</text><rect fill="#FEFECE" filter="url(#f1)" height="105.1563" style="stroke: #A80036; stroke-width: 1.5;" width="266" x="1579" y="183.5"/><ellipse cx="1660.75" cy="202.4688" fill="#A9DCDF" rx="11" ry="11" style="stroke: #A80036; stroke-width: 1.0;"/><path d="M1660.8594,197.8125 L1659.7031,202.8906 L1662.0313,202.8906 L1660.8594,197.8125 Z M1659.375,195.5781 L1662.3594,195.5781 L1665.7188,207.9688 L1663.2656,207.9688 L1662.5,204.9063 L1659.2188,204.9063 L1658.4688,207.9688 L1656.0313,207.9688 L1659.375,195.5781 Z "/><text fill="#000000" font-family="sans-serif" font-size="12" font-style="italic" lengthAdjust="spacingAndGlyphs" textLength="87" x="1684.75" y="199.6387">&lt;&lt;Builder.&gt;&gt;</text><text fill="#000000" font-family="sans-serif" font-size="12" font-style="italic" lengthAdjust="spacingAndGlyphs" textLength="94" x="1681.25" y="213.6074">ElementBuilder</text><line style="stroke: #A80036; stroke-width: 1.5;" x1="1580" x2="1844" y1="221.4375" y2="221.4375"/><rect fill="none" height="6" style="stroke: #C82930; stroke-width: 1.0;" width="6" x="1587" y="230.3398"/><text fill="#000000" font-family="sans-serif" font-size="11" lengthAdjust="spacingAndGlyphs" textLength="240" x="1599" y="235.6479">umlmodel : Element -- COMPOSITE MODEL</text><line style="stroke: #A80036; stroke-width: 1.5;" x1="1580" x2="1844" y1="242.2422" y2="242.2422"/><ellipse cx="1590" cy="254.1445" fill="#84BE84" rx="3" ry="3" style="stroke: #038048; stroke-width: 1.0;"/><text fill="#000000" font-family="sans-serif" font-size="11" font-style="italic" lengthAdjust="spacingAndGlyphs" textLength="116" x="1599" y="256.4526">createClass() : Class</text><ellipse cx="1590" cy="266.9492" fill="#84BE84" rx="3" ry="3" style="stroke: #038048; stroke-width: 1.0;"/><text fill="#000000" font-family="sans-serif" font-size="11" font-style="italic" lengthAdjust="spacingAndGlyphs" textLength="150" x="1599" y="269.2573">createPackage() : Package</text><ellipse cx="1590" cy="279.7539" fill="#84BE84" rx="3" ry="3" style="stroke: #038048; stroke-width: 1.0;"/><text fill="#000000" font-family="sans-serif" font-size="11" font-style="italic" lengthAdjust="spacingAndGlyphs" textLength="100" x="1599" y="282.062">createLink() : Link</text><polygon fill="#FBFB77" filter="url(#f1)" points="1573,49.5,1573,74.6328,1852,74.6328,1852,59.5,1842,49.5,1573,49.5" style="stroke: #A80036; stroke-width: 1.0;"/><polygon fill="#FBFB77" points="1573,49.5,1573,74.6328,1708,74.6328,1712,183.204,1716,74.6328,1852,74.6328,1852,59.5,1842,49.5,1573,49.5" style="stroke: #A80036; stroke-width: 1.0;"/><line style="stroke: #A80036; stroke-width: 1.0;" x1="1842" x2="1842" y1="49.5" y2="59.5"/><line style="stroke: #A80036; stroke-width: 1.0;" x1="1852" x2="1842" y1="59.5" y2="59.5"/><text fill="#000000" font-family="sans-serif" font-size="13" lengthAdjust="spacingAndGlyphs" textLength="258" x="1579" y="66.5669">This is very similar to an AbstractFactory</text><rect fill="#FEFECE" filter="url(#f1)" height="79.5469" style="stroke: #A80036; stroke-width: 1.5;" width="217" x="959" y="197"/><ellipse cx="974" cy="215.9688" fill="#B4A7E5" rx="11" ry="11" style="stroke: #A80036; stroke-width: 1.0;"/><path d="M969.9219,211.7344 L969.9219,209.5781 L977.3125,209.5781 L977.3125,211.7344 L974.8438,211.7344 L974.8438,219.8125 L977.3125,219.8125 L977.3125,221.9688 L969.9219,221.9688 L969.9219,219.8125 L972.3906,219.8125 L972.3906,211.7344 L969.9219,211.7344 Z "/><text fill="#000000" font-family="sans-serif" font-size="12" font-style="italic" lengthAdjust="spacingAndGlyphs" textLength="189" x="986" y="213.1387">&lt;&lt; Composite.Component &gt;&gt;</text><text fill="#000000" font-family="sans-serif" font-size="12" font-style="italic" lengthAdjust="spacingAndGlyphs" textLength="51" x="1055" y="227.1074">Element</text><line style="stroke: #A80036; stroke-width: 1.5;" x1="960" x2="1175" y1="234.9375" y2="234.9375"/><line style="stroke: #A80036; stroke-width: 1.5;" x1="960" x2="1175" y1="242.9375" y2="242.9375"/><ellipse cx="970" cy="254.8398" fill="#84BE84" rx="3" ry="3" style="stroke: #038048; stroke-width: 1.0;"/><text fill="#000000" font-family="sans-serif" font-size="11" lengthAdjust="spacingAndGlyphs" textLength="121" x="979" y="257.1479">addElement(Element)</text><ellipse cx="970" cy="267.6445" fill="#84BE84" rx="3" ry="3" style="stroke: #038048; stroke-width: 1.0;"/><text fill="#000000" font-family="sans-serif" font-size="11" lengthAdjust="spacingAndGlyphs" textLength="34" x="979" y="269.9526">print()</text><rect fill="#FEFECE" filter="url(#f1)" height="92.3516" style="stroke: #A80036; stroke-width: 1.5;" width="190" x="1771" y="411"/><ellipse cx="1786.45" cy="429.9688" fill="#ADD1B2" rx="11" ry="11" style="stroke: #A80036; stroke-width: 1.0;"/><path d="M1789.4188,435.6094 Q1788.8406,435.9063 1788.2,436.0547 Q1787.5594,436.2031 1786.8563,436.2031 Q1784.3563,436.2031 1783.0359,434.5547 Q1781.7156,432.9063 1781.7156,429.7813 Q1781.7156,426.6563 1783.0359,425 Q1784.3563,423.3438 1786.8563,423.3438 Q1787.5594,423.3438 1788.2078,423.5 Q1788.8563,423.6563 1789.4188,423.9531 L1789.4188,426.6719 Q1788.7938,426.0938 1788.2,425.8203 Q1787.6063,425.5469 1786.9813,425.5469 Q1785.6375,425.5469 1784.95,426.6172 Q1784.2625,427.6875 1784.2625,429.7813 Q1784.2625,431.875 1784.95,432.9453 Q1785.6375,434.0156 1786.9813,434.0156 Q1787.6063,434.0156 1788.2,433.7422 Q1788.7938,433.4688 1789.4188,432.8906 L1789.4188,435.6094 Z "/><text fill="#000000" font-family="sans-serif" font-size="12" font-style="italic" lengthAdjust="spacingAndGlyphs" textLength="161" x="1798.55" y="427.1387">&lt;&lt;Builder.ConcBuilder&gt;&gt;</text><text fill="#000000" font-family="sans-serif" font-size="12" lengthAdjust="spacingAndGlyphs" textLength="151" x="1803.55" y="441.1074">PlantUMLElementBuilder</text><line style="stroke: #A80036; stroke-width: 1.5;" x1="1772" x2="1960" y1="448.9375" y2="448.9375"/><line style="stroke: #A80036; stroke-width: 1.5;" x1="1772" x2="1960" y1="456.9375" y2="456.9375"/><ellipse cx="1782" cy="468.8398" fill="#84BE84" rx="3" ry="3" style="stroke: #038048; stroke-width: 1.0;"/><text fill="#000000" font-family="sans-serif" font-size="11" lengthAdjust="spacingAndGlyphs" textLength="134" x="1791" y="471.1479">createClass() : PuClass</text><ellipse cx="1782" cy="481.6445" fill="#84BE84" rx="3" ry="3" style="stroke: #038048; stroke-width: 1.0;"/><text fill="#000000" font-family="sans-serif" font-size="11" lengthAdjust="spacingAndGlyphs" textLength="164" x="1791" y="483.9526">createPackage() : PuPackage</text><ellipse cx="1782" cy="494.4492" fill="#84BE84" rx="3" ry="3" style="stroke: #038048; stroke-width: 1.0;"/><text fill="#000000" font-family="sans-serif" font-size="11" lengthAdjust="spacingAndGlyphs" textLength="114" x="1791" y="496.7573">createLink() : PuLink</text><rect fill="#FEFECE" filter="url(#f1)" height="66.7422" style="stroke: #A80036; stroke-width: 1.5;" width="137" x="516" y="30"/><ellipse cx="531" cy="48.9688" fill="#ADD1B2" rx="11" ry="11" style="stroke: #A80036; stroke-width: 1.0;"/><path d="M533.9688,54.6094 Q533.3906,54.9063 532.75,55.0547 Q532.1094,55.2031 531.4063,55.2031 Q528.9063,55.2031 527.5859,53.5547 Q526.2656,51.9063 526.2656,48.7813 Q526.2656,45.6563 527.5859,44 Q528.9063,42.3438 531.4063,42.3438 Q532.1094,42.3438 532.7578,42.5 Q533.4063,42.6563 533.9688,42.9531 L533.9688,45.6719 Q533.3438,45.0938 532.75,44.8203 Q532.1563,44.5469 531.5313,44.5469 Q530.1875,44.5469 529.5,45.6172 Q528.8125,46.6875 528.8125,48.7813 Q528.8125,50.875 529.5,51.9453 Q530.1875,53.0156 531.5313,53.0156 Q532.1563,53.0156 532.75,52.7422 Q533.3438,52.4688 533.9688,51.8906 L533.9688,54.6094 Z "/><text fill="#000000" font-family="sans-serif" font-size="12" font-style="italic" lengthAdjust="spacingAndGlyphs" textLength="109" x="543" y="46.1387">&lt;&lt;Composite.&gt;&gt;</text><text fill="#000000" font-family="sans-serif" font-size="12" lengthAdjust="spacingAndGlyphs" textLength="66" x="564.5" y="60.1074">Composite</text><line style="stroke: #A80036; stroke-width: 1.5;" x1="517" x2="652" y1="67.9375" y2="67.9375"/><line style="stroke: #A80036; stroke-width: 1.5;" x1="517" x2="652" y1="75.9375" y2="75.9375"/><ellipse cx="527" cy="87.8398" fill="#84BE84" rx="3" ry="3" style="stroke: #038048; stroke-width: 1.0;"/><text fill="#000000" font-family="sans-serif" font-size="11" lengthAdjust="spacingAndGlyphs" textLength="34" x="536" y="90.1479">print()</text><rect fill="#FEFECE" filter="url(#f1)" height="79.5469" style="stroke: #A80036; stroke-width: 1.5;" width="164" x="986" y="22"/><ellipse cx="1001" cy="40.9688" fill="#ADD1B2" rx="11" ry="11" style="stroke: #A80036; stroke-width: 1.0;"/><path d="M1003.9688,46.6094 Q1003.3906,46.9063 1002.75,47.0547 Q1002.1094,47.2031 1001.4063,47.2031 Q998.9063,47.2031 997.5859,45.5547 Q996.2656,43.9063 996.2656,40.7813 Q996.2656,37.6563 997.5859,36 Q998.9063,34.3438 1001.4063,34.3438 Q1002.1094,34.3438 1002.7578,34.5 Q1003.4063,34.6563 1003.9688,34.9531 L1003.9688,37.6719 Q1003.3438,37.0938 1002.75,36.8203 Q1002.1563,36.5469 1001.5313,36.5469 Q1000.1875,36.5469 999.5,37.6172 Q998.8125,38.6875 998.8125,40.7813 Q998.8125,42.875 999.5,43.9453 Q1000.1875,45.0156 1001.5313,45.0156 Q1002.1563,45.0156 1002.75,44.7422 Q1003.3438,44.4688 1003.9688,43.8906 L1003.9688,46.6094 Z "/><text fill="#000000" font-family="sans-serif" font-size="12" font-style="italic" lengthAdjust="spacingAndGlyphs" textLength="136" x="1013" y="38.1387">&lt;&lt;Composite.Leaf&gt;&gt;</text><text fill="#000000" font-family="sans-serif" font-size="12" lengthAdjust="spacingAndGlyphs" textLength="26" x="1068" y="52.1074">Leaf</text><line style="stroke: #A80036; stroke-width: 1.5;" x1="987" x2="1149" y1="59.9375" y2="59.9375"/><line style="stroke: #A80036; stroke-width: 1.5;" x1="987" x2="1149" y1="67.9375" y2="67.9375"/><ellipse cx="997" cy="79.8398" fill="#84BE84" rx="3" ry="3" style="stroke: #038048; stroke-width: 1.0;"/><text fill="#000000" font-family="sans-serif" font-size="11" lengthAdjust="spacingAndGlyphs" textLength="93" x="1006" y="82.1479">addElement() {}</text><ellipse cx="997" cy="92.6445" fill="#84BE84" rx="3" ry="3" style="stroke: #038048; stroke-width: 1.0;"/><text fill="#000000" font-family="sans-serif" font-size="11" font-style="italic" lengthAdjust="spacingAndGlyphs" textLength="34" x="1006" y="94.9526">print()</text><rect fill="#FEFECE" filter="url(#f1)" height="60.8047" style="stroke: #A80036; stroke-width: 1.5;" width="270" x="31" y="426.5"/><ellipse cx="134.75" cy="442.5" fill="#ADD1B2" rx="11" ry="11" style="stroke: #A80036; stroke-width: 1.0;"/><path d="M137.7188,448.1406 Q137.1406,448.4375 136.5,448.5859 Q135.8594,448.7344 135.1563,448.7344 Q132.6563,448.7344 131.3359,447.0859 Q130.0156,445.4375 130.0156,442.3125 Q130.0156,439.1875 131.3359,437.5313 Q132.6563,435.875 135.1563,435.875 Q135.8594,435.875 136.5078,436.0313 Q137.1563,436.1875 137.7188,436.4844 L137.7188,439.2031 Q137.0938,438.625 136.5,438.3516 Q135.9063,438.0781 135.2813,438.0781 Q133.9375,438.0781 133.25,439.1484 Q132.5625,440.2188 132.5625,442.3125 Q132.5625,444.4063 133.25,445.4766 Q133.9375,446.5469 135.2813,446.5469 Q135.9063,446.5469 136.5,446.2734 Q137.0938,446 137.7188,445.4219 L137.7188,448.1406 Z "/><text fill="#000000" font-family="sans-serif" font-size="12" lengthAdjust="spacingAndGlyphs" textLength="54" x="155.25" y="446.6543">Package</text><line style="stroke: #A80036; stroke-width: 1.5;" x1="32" x2="300" y1="458.5" y2="458.5"/><line style="stroke: #A80036; stroke-width: 1.5;" x1="32" x2="300" y1="466.5" y2="466.5"/><ellipse cx="42" cy="478.4023" fill="#84BE84" rx="3" ry="3" style="stroke: #038048; stroke-width: 1.0;"/><text fill="#000000" font-family="sans-serif" font-size="11" font-style="italic" lengthAdjust="spacingAndGlyphs" textLength="244" x="51" y="480.7104">createClassDeclaration() : ClassDeclaration</text><rect fill="#FEFECE" filter="url(#f1)" height="73.6094" style="stroke: #A80036; stroke-width: 1.5;" width="164" x="336" y="420"/><ellipse cx="397.25" cy="436" fill="#ADD1B2" rx="11" ry="11" style="stroke: #A80036; stroke-width: 1.0;"/><path d="M400.2188,441.6406 Q399.6406,441.9375 399,442.0859 Q398.3594,442.2344 397.6563,442.2344 Q395.1563,442.2344 393.8359,440.5859 Q392.5156,438.9375 392.5156,435.8125 Q392.5156,432.6875 393.8359,431.0313 Q395.1563,429.375 397.6563,429.375 Q398.3594,429.375 399.0078,429.5313 Q399.6563,429.6875 400.2188,429.9844 L400.2188,432.7031 Q399.5938,432.125 399,431.8516 Q398.4063,431.5781 397.7813,431.5781 Q396.4375,431.5781 395.75,432.6484 Q395.0625,433.7188 395.0625,435.8125 Q395.0625,437.9063 395.75,438.9766 Q396.4375,440.0469 397.7813,440.0469 Q398.4063,440.0469 399,439.7734 Q399.5938,439.5 400.2188,438.9219 L400.2188,441.6406 Z "/><text fill="#000000" font-family="sans-serif" font-size="12" lengthAdjust="spacingAndGlyphs" textLength="33" x="417.75" y="440.1543">Class</text><line style="stroke: #A80036; stroke-width: 1.5;" x1="337" x2="499" y1="452" y2="452"/><line style="stroke: #A80036; stroke-width: 1.5;" x1="337" x2="499" y1="460" y2="460"/><ellipse cx="347" cy="471.9023" fill="#84BE84" rx="3" ry="3" style="stroke: #038048; stroke-width: 1.0;"/><text fill="#000000" font-family="sans-serif" font-size="11" font-style="italic" lengthAdjust="spacingAndGlyphs" textLength="138" x="356" y="474.2104">createMethod() : Method</text><ellipse cx="347" cy="484.707" fill="#84BE84" rx="3" ry="3" style="stroke: #038048; stroke-width: 1.0;"/><text fill="#000000" font-family="sans-serif" font-size="11" font-style="italic" lengthAdjust="spacingAndGlyphs" textLength="108" x="356" y="487.0151">createField() : Field</text><rect fill="#FEFECE" filter="url(#f1)" height="66.7422" style="stroke: #A80036; stroke-width: 1.5;" width="288" x="6" y="624.5"/><ellipse cx="88.75" cy="643.4688" fill="#ADD1B2" rx="11" ry="11" style="stroke: #A80036; stroke-width: 1.0;"/><path d="M91.7188,649.1094 Q91.1406,649.4063 90.5,649.5547 Q89.8594,649.7031 89.1563,649.7031 Q86.6563,649.7031 85.3359,648.0547 Q84.0156,646.4063 84.0156,643.2813 Q84.0156,640.1563 85.3359,638.5 Q86.6563,636.8438 89.1563,636.8438 Q89.8594,636.8438 90.5078,637 Q91.1563,637.1563 91.7188,637.4531 L91.7188,640.1719 Q91.0938,639.5938 90.5,639.3203 Q89.9063,639.0469 89.2813,639.0469 Q87.9375,639.0469 87.25,640.1172 Q86.5625,641.1875 86.5625,643.2813 Q86.5625,645.375 87.25,646.4453 Q87.9375,647.5156 89.2813,647.5156 Q89.9063,647.5156 90.5,647.2422 Q91.0938,646.9688 91.7188,646.3906 L91.7188,649.1094 Z "/><text fill="#000000" font-family="sans-serif" font-size="12" font-style="italic" lengthAdjust="spacingAndGlyphs" textLength="118" x="107.25" y="640.6387">&lt;&lt; ProductB_1 &gt;&gt;</text><text fill="#000000" font-family="sans-serif" font-size="12" lengthAdjust="spacingAndGlyphs" textLength="70" x="131.25" y="654.6074">PuPackage</text><line style="stroke: #A80036; stroke-width: 1.5;" x1="7" x2="293" y1="662.4375" y2="662.4375"/><line style="stroke: #A80036; stroke-width: 1.5;" x1="7" x2="293" y1="670.4375" y2="670.4375"/><ellipse cx="17" cy="682.3398" fill="#84BE84" rx="3" ry="3" style="stroke: #038048; stroke-width: 1.0;"/><text fill="#000000" font-family="sans-serif" font-size="11" lengthAdjust="spacingAndGlyphs" textLength="262" x="26" y="684.6479">createClassDeclaration() : PuClassDeclaration</text><rect fill="#FEFECE" filter="url(#f1)" height="79.5469" style="stroke: #A80036; stroke-width: 1.5;" width="178" x="329" y="618"/><ellipse cx="358.4" cy="636.9688" fill="#ADD1B2" rx="11" ry="11" style="stroke: #A80036; stroke-width: 1.0;"/><path d="M361.3688,642.6094 Q360.7906,642.9063 360.15,643.0547 Q359.5094,643.2031 358.8063,643.2031 Q356.3063,643.2031 354.9859,641.5547 Q353.6656,639.9063 353.6656,636.7813 Q353.6656,633.6563 354.9859,632 Q356.3063,630.3438 358.8063,630.3438 Q359.5094,630.3438 360.1578,630.5 Q360.8063,630.6563 361.3688,630.9531 L361.3688,633.6719 Q360.7438,633.0938 360.15,632.8203 Q359.5563,632.5469 358.9313,632.5469 Q357.5875,632.5469 356.9,633.6172 Q356.2125,634.6875 356.2125,636.7813 Q356.2125,638.875 356.9,639.9453 Q357.5875,641.0156 358.9313,641.0156 Q359.5563,641.0156 360.15,640.7422 Q360.7438,640.4688 361.3688,639.8906 L361.3688,642.6094 Z "/><text fill="#000000" font-family="sans-serif" font-size="12" font-style="italic" lengthAdjust="spacingAndGlyphs" textLength="118" x="373.6" y="634.1387">&lt;&lt; ProductA_2 &gt;&gt;</text><text fill="#000000" font-family="sans-serif" font-size="12" lengthAdjust="spacingAndGlyphs" textLength="49" x="408.1" y="648.1074">PuClass</text><line style="stroke: #A80036; stroke-width: 1.5;" x1="330" x2="506" y1="655.9375" y2="655.9375"/><line style="stroke: #A80036; stroke-width: 1.5;" x1="330" x2="506" y1="663.9375" y2="663.9375"/><ellipse cx="340" cy="675.8398" fill="#84BE84" rx="3" ry="3" style="stroke: #038048; stroke-width: 1.0;"/><text fill="#000000" font-family="sans-serif" font-size="11" lengthAdjust="spacingAndGlyphs" textLength="152" x="349" y="678.1479">createMethod() : PuMethod</text><ellipse cx="340" cy="688.6445" fill="#84BE84" rx="3" ry="3" style="stroke: #038048; stroke-width: 1.0;"/><text fill="#000000" font-family="sans-serif" font-size="11" lengthAdjust="spacingAndGlyphs" textLength="122" x="349" y="690.9526">createField() : PuField</text><rect fill="#FEFECE" filter="url(#f1)" height="66.7422" style="stroke: #A80036; stroke-width: 1.5;" width="137" x="542" y="423.5"/><ellipse cx="557" cy="442.4688" fill="#ADD1B2" rx="11" ry="11" style="stroke: #A80036; stroke-width: 1.0;"/><path d="M559.9688,448.1094 Q559.3906,448.4063 558.75,448.5547 Q558.1094,448.7031 557.4063,448.7031 Q554.9063,448.7031 553.5859,447.0547 Q552.2656,445.4063 552.2656,442.2813 Q552.2656,439.1563 553.5859,437.5 Q554.9063,435.8438 557.4063,435.8438 Q558.1094,435.8438 558.7578,436 Q559.4063,436.1563 559.9688,436.4531 L559.9688,439.1719 Q559.3438,438.5938 558.75,438.3203 Q558.1563,438.0469 557.5313,438.0469 Q556.1875,438.0469 555.5,439.1172 Q554.8125,440.1875 554.8125,442.2813 Q554.8125,444.375 555.5,445.4453 Q556.1875,446.5156 557.5313,446.5156 Q558.1563,446.5156 558.75,446.2422 Q559.3438,445.9688 559.9688,445.3906 L559.9688,448.1094 Z "/><text fill="#000000" font-family="sans-serif" font-size="12" font-style="italic" lengthAdjust="spacingAndGlyphs" textLength="89" x="579" y="439.6387">&lt;&lt; Leaf_1 &gt;&gt;</text><text fill="#000000" font-family="sans-serif" font-size="12" lengthAdjust="spacingAndGlyphs" textLength="105" x="571" y="453.6074">ClassDeclaration</text><line style="stroke: #A80036; stroke-width: 1.5;" x1="543" x2="678" y1="461.4375" y2="461.4375"/><line style="stroke: #A80036; stroke-width: 1.5;" x1="543" x2="678" y1="469.4375" y2="469.4375"/><ellipse cx="553" cy="481.3398" fill="#84BE84" rx="3" ry="3" style="stroke: #038048; stroke-width: 1.0;"/><text fill="#000000" font-family="sans-serif" font-size="11" lengthAdjust="spacingAndGlyphs" textLength="34" x="562" y="483.6479">print()</text><rect fill="#FEFECE" filter="url(#f1)" height="66.7422" style="stroke: #A80036; stroke-width: 1.5;" width="252" x="864" y="423.5"/><ellipse cx="943.25" cy="442.4688" fill="#ADD1B2" rx="11" ry="11" style="stroke: #A80036; stroke-width: 1.0;"/><path d="M946.2188,448.1094 Q945.6406,448.4063 945,448.5547 Q944.3594,448.7031 943.6563,448.7031 Q941.1563,448.7031 939.8359,447.0547 Q938.5156,445.4063 938.5156,442.2813 Q938.5156,439.1563 939.8359,437.5 Q941.1563,435.8438 943.6563,435.8438 Q944.3594,435.8438 945.0078,436 Q945.6563,436.1563 946.2188,436.4531 L946.2188,439.1719 Q945.5938,438.5938 945,438.3203 Q944.4063,438.0469 943.7813,438.0469 Q942.4375,438.0469 941.75,439.1172 Q941.0625,440.1875 941.0625,442.2813 Q941.0625,444.375 941.75,445.4453 Q942.4375,446.5156 943.7813,446.5156 Q944.4063,446.5156 945,446.2422 Q945.5938,445.9688 946.2188,445.3906 L946.2188,448.1094 Z "/><text fill="#000000" font-family="sans-serif" font-size="12" font-style="italic" lengthAdjust="spacingAndGlyphs" textLength="89" x="961.75" y="439.6387">&lt;&lt; Leaf_3 &gt;&gt;</text><text fill="#000000" font-family="sans-serif" font-size="12" lengthAdjust="spacingAndGlyphs" textLength="47" x="982.75" y="453.6074">Method</text><line style="stroke: #A80036; stroke-width: 1.5;" x1="865" x2="1115" y1="461.4375" y2="461.4375"/><line style="stroke: #A80036; stroke-width: 1.5;" x1="865" x2="1115" y1="469.4375" y2="469.4375"/><ellipse cx="875" cy="481.3398" fill="#84BE84" rx="3" ry="3" style="stroke: #038048; stroke-width: 1.0;"/><text fill="#000000" font-family="sans-serif" font-size="11" lengthAdjust="spacingAndGlyphs" textLength="226" x="884" y="483.6479">parseGenericParamTypes(Type[] types)</text><rect fill="#FEFECE" filter="url(#f1)" height="105.1563" style="stroke: #A80036; stroke-width: 1.5;" width="193" x="1151" y="404.5"/><ellipse cx="1200.75" cy="423.4688" fill="#ADD1B2" rx="11" ry="11" style="stroke: #A80036; stroke-width: 1.0;"/><path d="M1203.7188,429.1094 Q1203.1406,429.4063 1202.5,429.5547 Q1201.8594,429.7031 1201.1563,429.7031 Q1198.6563,429.7031 1197.3359,428.0547 Q1196.0156,426.4063 1196.0156,423.2813 Q1196.0156,420.1563 1197.3359,418.5 Q1198.6563,416.8438 1201.1563,416.8438 Q1201.8594,416.8438 1202.5078,417 Q1203.1563,417.1563 1203.7188,417.4531 L1203.7188,420.1719 Q1203.0938,419.5938 1202.5,419.3203 Q1201.9063,419.0469 1201.2813,419.0469 Q1199.9375,419.0469 1199.25,420.1172 Q1198.5625,421.1875 1198.5625,423.2813 Q1198.5625,425.375 1199.25,426.4453 Q1199.9375,427.5156 1201.2813,427.5156 Q1201.9063,427.5156 1202.5,427.2422 Q1203.0938,426.9688 1203.7188,426.3906 L1203.7188,429.1094 Z "/><text fill="#000000" font-family="sans-serif" font-size="12" font-style="italic" lengthAdjust="spacingAndGlyphs" textLength="89" x="1219.25" y="420.6387">&lt;&lt; Leaf_4 &gt;&gt;</text><text fill="#000000" font-family="sans-serif" font-size="12" lengthAdjust="spacingAndGlyphs" textLength="24" x="1251.75" y="434.6074">Link</text><line style="stroke: #A80036; stroke-width: 1.5;" x1="1152" x2="1343" y1="442.4375" y2="442.4375"/><line style="stroke: #A80036; stroke-width: 1.5;" x1="1152" x2="1343" y1="450.4375" y2="450.4375"/><ellipse cx="1162" cy="462.3398" fill="#84BE84" rx="3" ry="3" style="stroke: #038048; stroke-width: 1.0;"/><text fill="#000000" font-family="sans-serif" font-size="11" lengthAdjust="spacingAndGlyphs" textLength="34" x="1171" y="464.6479">print()</text><ellipse cx="1162" cy="475.1445" fill="#84BE84" rx="3" ry="3" style="stroke: #038048; stroke-width: 1.0;"/><text fill="#000000" font-family="sans-serif" font-size="11" lengthAdjust="spacingAndGlyphs" textLength="166" x="1171" y="477.4526">setA(Element el, String label)</text><ellipse cx="1162" cy="487.9492" fill="#84BE84" rx="3" ry="3" style="stroke: #038048; stroke-width: 1.0;"/><text fill="#000000" font-family="sans-serif" font-size="11" lengthAdjust="spacingAndGlyphs" textLength="167" x="1171" y="490.2573">setB(Element el, String label)</text><ellipse cx="1162" cy="500.7539" fill="#84BE84" rx="3" ry="3" style="stroke: #038048; stroke-width: 1.0;"/><text fill="#000000" font-family="sans-serif" font-size="11" lengthAdjust="spacingAndGlyphs" textLength="159" x="1171" y="503.062">setLinkType(ELinkType type)</text><rect fill="#FEFECE" filter="url(#f1)" height="53.9375" style="stroke: #A80036; stroke-width: 1.5;" width="117" x="713" y="430"/><ellipse cx="728" cy="448.9688" fill="#ADD1B2" rx="11" ry="11" style="stroke: #A80036; stroke-width: 1.0;"/><path d="M730.9688,454.6094 Q730.3906,454.9063 729.75,455.0547 Q729.1094,455.2031 728.4063,455.2031 Q725.9063,455.2031 724.5859,453.5547 Q723.2656,451.9063 723.2656,448.7813 Q723.2656,445.6563 724.5859,444 Q725.9063,442.3438 728.4063,442.3438 Q729.1094,442.3438 729.7578,442.5 Q730.4063,442.6563 730.9688,442.9531 L730.9688,445.6719 Q730.3438,445.0938 729.75,444.8203 Q729.1563,444.5469 728.5313,444.5469 Q727.1875,444.5469 726.5,445.6172 Q725.8125,446.6875 725.8125,448.7813 Q725.8125,450.875 726.5,451.9453 Q727.1875,453.0156 728.5313,453.0156 Q729.1563,453.0156 729.75,452.7422 Q730.3438,452.4688 730.9688,451.8906 L730.9688,454.6094 Z "/><text fill="#000000" font-family="sans-serif" font-size="12" font-style="italic" lengthAdjust="spacingAndGlyphs" textLength="89" x="740" y="446.1387">&lt;&lt; Leaf_2 &gt;&gt;</text><text fill="#000000" font-family="sans-serif" font-size="12" lengthAdjust="spacingAndGlyphs" textLength="29" x="770" y="460.1074">Field</text><line style="stroke: #A80036; stroke-width: 1.5;" x1="714" x2="829" y1="467.9375" y2="467.9375"/><line style="stroke: #A80036; stroke-width: 1.5;" x1="714" x2="829" y1="475.9375" y2="475.9375"/><rect fill="#FEFECE" filter="url(#f1)" height="53.9375" style="stroke: #A80036; stroke-width: 1.5;" width="153" x="542" y="631"/><ellipse cx="557" cy="649.9688" fill="#ADD1B2" rx="11" ry="11" style="stroke: #A80036; stroke-width: 1.0;"/><path d="M559.9688,655.6094 Q559.3906,655.9063 558.75,656.0547 Q558.1094,656.2031 557.4063,656.2031 Q554.9063,656.2031 553.5859,654.5547 Q552.2656,652.9063 552.2656,649.7813 Q552.2656,646.6563 553.5859,645 Q554.9063,643.3438 557.4063,643.3438 Q558.1094,643.3438 558.7578,643.5 Q559.4063,643.6563 559.9688,643.9531 L559.9688,646.6719 Q559.3438,646.0938 558.75,645.8203 Q558.1563,645.5469 557.5313,645.5469 Q556.1875,645.5469 555.5,646.6172 Q554.8125,647.6875 554.8125,649.7813 Q554.8125,651.875 555.5,652.9453 Q556.1875,654.0156 557.5313,654.0156 Q558.1563,654.0156 558.75,653.7422 Q559.3438,653.4688 559.9688,652.8906 L559.9688,655.6094 Z "/><text fill="#000000" font-family="sans-serif" font-size="12" font-style="italic" lengthAdjust="spacingAndGlyphs" textLength="118" x="572.5" y="647.1387">&lt;&lt; ProductA_3 &gt;&gt;</text><text fill="#000000" font-family="sans-serif" font-size="12" lengthAdjust="spacingAndGlyphs" textLength="121" x="571" y="661.1074">PuClassDeclaration</text><line style="stroke: #A80036; stroke-width: 1.5;" x1="543" x2="694" y1="668.9375" y2="668.9375"/><line style="stroke: #A80036; stroke-width: 1.5;" x1="543" x2="694" y1="676.9375" y2="676.9375"/><rect fill="#FEFECE" filter="url(#f1)" height="53.9375" style="stroke: #A80036; stroke-width: 1.5;" width="146" x="729" y="631"/><ellipse cx="744" cy="649.9688" fill="#ADD1B2" rx="11" ry="11" style="stroke: #A80036; stroke-width: 1.0;"/><path d="M746.9688,655.6094 Q746.3906,655.9063 745.75,656.0547 Q745.1094,656.2031 744.4063,656.2031 Q741.9063,656.2031 740.5859,654.5547 Q739.2656,652.9063 739.2656,649.7813 Q739.2656,646.6563 740.5859,645 Q741.9063,643.3438 744.4063,643.3438 Q745.1094,643.3438 745.7578,643.5 Q746.4063,643.6563 746.9688,643.9531 L746.9688,646.6719 Q746.3438,646.0938 745.75,645.8203 Q745.1563,645.5469 744.5313,645.5469 Q743.1875,645.5469 742.5,646.6172 Q741.8125,647.6875 741.8125,649.7813 Q741.8125,651.875 742.5,652.9453 Q743.1875,654.0156 744.5313,654.0156 Q745.1563,654.0156 745.75,653.7422 Q746.3438,653.4688 746.9688,652.8906 L746.9688,655.6094 Z "/><text fill="#000000" font-family="sans-serif" font-size="12" font-style="italic" lengthAdjust="spacingAndGlyphs" textLength="118" x="756" y="647.1387">&lt;&lt; ProductA_4 &gt;&gt;</text><text fill="#000000" font-family="sans-serif" font-size="12" lengthAdjust="spacingAndGlyphs" textLength="45" x="792.5" y="661.1074">PuField</text><line style="stroke: #A80036; stroke-width: 1.5;" x1="730" x2="874" y1="668.9375" y2="668.9375"/><line style="stroke: #A80036; stroke-width: 1.5;" x1="730" x2="874" y1="676.9375" y2="676.9375"/><rect fill="#FEFECE" filter="url(#f1)" height="53.9375" style="stroke: #A80036; stroke-width: 1.5;" width="146" x="917" y="631"/><ellipse cx="932" cy="649.9688" fill="#ADD1B2" rx="11" ry="11" style="stroke: #A80036; stroke-width: 1.0;"/><path d="M934.9688,655.6094 Q934.3906,655.9063 933.75,656.0547 Q933.1094,656.2031 932.4063,656.2031 Q929.9063,656.2031 928.5859,654.5547 Q927.2656,652.9063 927.2656,649.7813 Q927.2656,646.6563 928.5859,645 Q929.9063,643.3438 932.4063,643.3438 Q933.1094,643.3438 933.7578,643.5 Q934.4063,643.6563 934.9688,643.9531 L934.9688,646.6719 Q934.3438,646.0938 933.75,645.8203 Q933.1563,645.5469 932.5313,645.5469 Q931.1875,645.5469 930.5,646.6172 Q929.8125,647.6875 929.8125,649.7813 Q929.8125,651.875 930.5,652.9453 Q931.1875,654.0156 932.5313,654.0156 Q933.1563,654.0156 933.75,653.7422 Q934.3438,653.4688 934.9688,652.8906 L934.9688,655.6094 Z "/><text fill="#000000" font-family="sans-serif" font-size="12" font-style="italic" lengthAdjust="spacingAndGlyphs" textLength="118" x="944" y="647.1387">&lt;&lt; ProductA_5 &gt;&gt;</text><text fill="#000000" font-family="sans-serif" font-size="12" lengthAdjust="spacingAndGlyphs" textLength="63" x="971.5" y="661.1074">PuMethod</text><line style="stroke: #A80036; stroke-width: 1.5;" x1="918" x2="1062" y1="668.9375" y2="668.9375"/><line style="stroke: #A80036; stroke-width: 1.5;" x1="918" x2="1062" y1="676.9375" y2="676.9375"/><rect fill="#FEFECE" filter="url(#f1)" height="53.9375" style="stroke: #A80036; stroke-width: 1.5;" width="146" x="1174" y="631"/><ellipse cx="1189" cy="649.9688" fill="#ADD1B2" rx="11" ry="11" style="stroke: #A80036; stroke-width: 1.0;"/><path d="M1191.9688,655.6094 Q1191.3906,655.9063 1190.75,656.0547 Q1190.1094,656.2031 1189.4063,656.2031 Q1186.9063,656.2031 1185.5859,654.5547 Q1184.2656,652.9063 1184.2656,649.7813 Q1184.2656,646.6563 1185.5859,645 Q1186.9063,643.3438 1189.4063,643.3438 Q1190.1094,643.3438 1190.7578,643.5 Q1191.4063,643.6563 1191.9688,643.9531 L1191.9688,646.6719 Q1191.3438,646.0938 1190.75,645.8203 Q1190.1563,645.5469 1189.5313,645.5469 Q1188.1875,645.5469 1187.5,646.6172 Q1186.8125,647.6875 1186.8125,649.7813 Q1186.8125,651.875 1187.5,652.9453 Q1188.1875,654.0156 1189.5313,654.0156 Q1190.1563,654.0156 1190.75,653.7422 Q1191.3438,653.4688 1191.9688,652.8906 L1191.9688,655.6094 Z "/><text fill="#000000" font-family="sans-serif" font-size="12" font-style="italic" lengthAdjust="spacingAndGlyphs" textLength="118" x="1201" y="647.1387">&lt;&lt; ProductA_6 &gt;&gt;</text><text fill="#000000" font-family="sans-serif" font-size="12" lengthAdjust="spacingAndGlyphs" textLength="40" x="1240" y="661.1074">PuLink</text><line style="stroke: #A80036; stroke-width: 1.5;" x1="1175" x2="1319" y1="668.9375" y2="668.9375"/><line style="stroke: #A80036; stroke-width: 1.5;" x1="1175" x2="1319" y1="676.9375" y2="676.9375"/><path d="M1181.4,246.811 C1292.42,250.122 1461.53,250.049 1578.88,246.762 " fill="none" style="stroke: #A80036; stroke-width: 1.0; stroke-dasharray: 7.0,7.0;"/><polygon fill="#A80036" points="1176.15,246.651,1185.0199,250.9318,1181.1475,246.8081,1185.2712,242.9358,1176.15,246.651" style="stroke: #A80036; stroke-width: 1.0;"/><path d="M1760.39,305.447 C1784.31,339.772 1812.52,380.259 1833.77,410.747 " fill="none" style="stroke: #A80036; stroke-width: 1.0;"/><polygon fill="none" points="1754.38,309.065,1748.69,288.654,1765.87,301.061,1754.38,309.065" style="stroke: #A80036; stroke-width: 1.0;"/><path d="M1675.5,288.611 C1659.24,312.051 1639.61,340.348 1621.1,367.044 " fill="none" style="stroke: #A80036; stroke-width: 1.0;"/><polygon fill="none" points="1613.52,377.971,1620.2275,375.3235,1620.3634,368.1136,1613.6559,370.7612,1613.52,377.971" style="stroke: #A80036; stroke-width: 1.0;"/><path d="M1826.14,410.821 C1806.43,390.892 1781.08,369.172 1754,356 C1655.01,307.841 1349.6,267.97 1181.62,248.973 " fill="none" style="stroke: #A80036; stroke-width: 1.0; stroke-dasharray: 7.0,7.0;"/><polygon fill="#A80036" points="1176.2,248.362,1184.6982,253.34,1181.1689,248.9192,1185.5897,245.3898,1176.2,248.362" style="stroke: #A80036; stroke-width: 1.0;"/><path d="M1068,122.292 C1068,146.89 1068,174.673 1068,196.736 " fill="none" style="stroke: #A80036; stroke-width: 1.0; stroke-dasharray: 7.0,7.0;"/><polygon fill="none" points="1061,122.149,1068,102.149,1075,122.149,1061,122.149" style="stroke: #A80036; stroke-width: 1.0;"/><path d="M495.996,73.459 C439.186,84.163 367.075,105.72 317,149 C228.916,225.132 187.304,364.608 172.556,426.281 " fill="none" style="stroke: #A80036; stroke-width: 1.0;"/><polygon fill="none" points="494.878,66.548,515.777,70.046,497.258,80.344,494.878,66.548" style="stroke: #A80036; stroke-width: 1.0;"/><path d="M496.133,83.926 C436.535,99.965 365.804,123.6 348,149 C289.3,232.745 353.279,357.937 392.344,419.741 " fill="none" style="stroke: #A80036; stroke-width: 1.0;"/><polygon fill="none" points="494.706,77.064,515.825,78.786,498.242,90.61,494.706,77.064" style="stroke: #A80036; stroke-width: 1.0;"/><path d="M1006.31,186.233 C983.823,172.797 957.951,159.211 933,149 C839.987,110.935 725.23,85.538 653.213,72.746 " fill="none" style="stroke: #A80036; stroke-width: 1.0; stroke-dasharray: 7.0,7.0;"/><polygon fill="none" points="1010.22,180.421,1023.53,196.908,1002.84,192.32,1010.22,180.421" style="stroke: #A80036; stroke-width: 1.0;"/><path d="M666.227,80.817 C730.574,95.026 821.619,117.742 898,149 C929.621,161.941 962.722,180.302 991.419,196.908 " fill="none" style="stroke: #A80036; stroke-width: 1.0;"/><polygon fill="none" points="653.322,78.002,658.3312,83.1893,665.0461,80.5605,660.0369,75.3732,653.322,78.002" style="stroke: #A80036; stroke-width: 1.0;"/><text fill="#000000" font-family="sans-serif" font-size="13" lengthAdjust="spacingAndGlyphs" textLength="8" x="660.9473" y="89.2378">1</text><text fill="#000000" font-family="sans-serif" font-size="13" lengthAdjust="spacingAndGlyphs" textLength="8" x="969.5946" y="185.9741">n</text><path d="M398.708,266.69 C386.88,278.332 373.046,291.539 360,303 C313.243,344.077 257.348,387.93 217.591,418.291 " fill="none" style="stroke: #A80036; stroke-width: 1.0;"/><polygon fill="none" points="207.082,426.289,214.279,425.8381,216.6308,419.0212,209.4338,419.4722,207.082,426.289" style="stroke: #A80036; stroke-width: 1.0;"/><path d="M572.525,279.136 C539.866,316.727 492.595,371.138 458.95,409.865 " fill="none" style="stroke: #A80036; stroke-width: 1.0;"/><polygon fill="none" points="450.277,419.848,457.2316,417.9417,458.1467,410.7889,451.1921,412.6952,450.277,419.848" style="stroke: #A80036; stroke-width: 1.0;"/><path d="M965.785,283.941 C949,290.822 931.649,297.449 915,303 C819.589,334.812 780.542,303.105 695,356 C667.906,372.754 645.175,401.091 630.057,423.492 " fill="none" style="stroke: #A80036; stroke-width: 1.0; stroke-dasharray: 7.0,7.0;"/><polygon fill="none" points="963.277,277.402,984.427,276.108,968.7,290.309,963.277,277.402" style="stroke: #A80036; stroke-width: 1.0;"/><path d="M610,299.182 C610,339.621 610,390.483 610,423.36 " fill="none" style="stroke: #A80036; stroke-width: 1.0;"/><polygon fill="none" points="603,299.136,610,279.136,617,299.136,603,299.136" style="stroke: #A80036; stroke-width: 1.0;"/><path d="M759.001,280.217 C762.034,324.906 766.625,392.537 769.158,429.864 " fill="none" style="stroke: #A80036; stroke-width: 1.0;"/><polygon fill="none" points="752.004,280.5,757.634,260.072,765.972,279.552,752.004,280.5" style="stroke: #A80036; stroke-width: 1.0;"/><path d="M955.974,284.93 C918.729,303.907 878.503,327.946 846,356 C821.365,377.263 800,407.989 786.443,429.96 " fill="none" style="stroke: #A80036; stroke-width: 1.0; stroke-dasharray: 7.0,7.0;"/><polygon fill="none" points="952.941,278.62,973.971,276.025,959.149,291.168,952.941,278.62" style="stroke: #A80036; stroke-width: 1.0;"/><path d="M884.367,277.423 C909.159,319.57 947.119,384.102 970.145,423.246 " fill="none" style="stroke: #A80036; stroke-width: 1.0;"/><polygon fill="none" points="878.267,280.859,874.16,260.072,890.334,273.761,878.267,280.859" style="stroke: #A80036; stroke-width: 1.0;"/><path d="M1047.43,295.015 C1032.93,335.91 1014.02,389.255 1001.938,423.328 " fill="none" style="stroke: #A80036; stroke-width: 1.0; stroke-dasharray: 7.0,7.0;"/><polygon fill="none" points="1040.86,292.589,1054.15,276.078,1054.06,297.268,1040.86,292.589" style="stroke: #A80036; stroke-width: 1.0;"/><path d="M1112.43,291.608 C1140.42,326.012 1176.37,370.197 1204.07,404.242 " fill="none" style="stroke: #A80036; stroke-width: 1.0; stroke-dasharray: 7.0,7.0;"/><polygon fill="none" points="1106.99,296.01,1099.8,276.078,1117.85,287.174,1106.99,296.01" style="stroke: #A80036; stroke-width: 1.0;"/><path d="M161.981,507.492 C159.067,544.096 155.208,592.578 152.667,624.4986 " fill="none" style="stroke: #A80036; stroke-width: 1.0;"/><polygon fill="none" points="155.005,506.909,163.57,487.528,168.961,508.02,155.005,506.909" style="stroke: #A80036; stroke-width: 1.0;"/><path d="M418,514.724 C418,547.701 418,588.233 418,617.7616 " fill="none" style="stroke: #A80036; stroke-width: 1.0;"/><polygon fill="none" points="411,514.336,418,494.335,425,514.335,411,514.336" style="stroke: #A80036; stroke-width: 1.0;"/><path d="M612.138,510.713 C613.678,549.408 615.692,600.0159 616.914,630.7092 " fill="none" style="stroke: #A80036; stroke-width: 1.0;"/><polygon fill="none" points="605.14,510.905,611.339,490.643,619.129,510.349,605.14,510.905" style="stroke: #A80036; stroke-width: 1.0;"/><path d="M778.23,503.876 C784.301,543.245 792.768,598.1391 797.786,630.6798 " fill="none" style="stroke: #A80036; stroke-width: 1.0;"/><polygon fill="none" points="771.311,504.941,775.181,484.108,785.148,502.807,771.311,504.941" style="stroke: #A80036; stroke-width: 1.0;"/><path d="M990,510.713 C990,549.408 990,600.0159 990,630.7092 " fill="none" style="stroke: #A80036; stroke-width: 1.0;"/><polygon fill="none" points="983,510.643,990,490.643,997,510.643,983,510.643" style="stroke: #A80036; stroke-width: 1.0;"/><path d="M1247,530.026 C1247,565.07 1247,604.9419 1247,630.7346 " fill="none" style="stroke: #A80036; stroke-width: 1.0;"/><polygon fill="none" points="1240,529.548,1247,509.548,1254,529.548,1240,529.548" style="stroke: #A80036; stroke-width: 1.0;"/><path d="M1394.03,372.122 C1382.57,366.554 1371.15,361.129 1360,356 C1297.84,327.391 1226.76,298.349 1170.3,276.117 " fill="none" style="stroke: #A80036; stroke-width: 1.0;"/><polygon fill="none" points="1405.98,377.97,1402.3492,371.7397,1395.2016,372.6949,1398.8324,378.9252,1405.98,377.97" style="stroke: #A80036; stroke-width: 1.0;"/><text fill="#000000" font-family="sans-serif" font-size="13" lengthAdjust="spacingAndGlyphs" textLength="8" x="1387.0377" y="369.6972">1</text><text fill="#000000" font-family="sans-serif" font-size="13" lengthAdjust="spacingAndGlyphs" textLength="8" x="1183.9282" y="292.2096">n</text></g></svg>