<?xml version="1.0" encoding="UTF-8" standalone="yes"?><svg xmlns="http://www.w3.org/2000/svg" xmlns:xlink="http://www.w3.org/1999/xlink" height="540px" style="width:742px;height:540px;" version="1.1" viewBox="0 0 742 540" width="742px"><defs><filter height="300%" id="f1" width="300%" x="-1" y="-1"><feGaussianBlur result="blurOut" stdDeviation="2.0"/><feColorMatrix in="blurOut" result="blurOut2" type="matrix" values="0 0 0 0 0 0 0 0 0 0 0 0 0 0 0 0 0 0 .4 0"/><feOffset dx="4.0" dy="4.0" in="blurOut2" result="blurOut3"/><feBlend in="SourceGraphic" in2="blurOut3" mode="normal"/></filter></defs><g><rect fill="#FEFECE" filter="url(#f1)" height="99.2188" style="stroke: #A80036; stroke-width: 1.5;" width="165" x="568" y="281.5"/><ellipse cx="603.25" cy="297.5" fill="#A9DCDF" rx="11" ry="11" style="stroke: #A80036; stroke-width: 1.0;"/><path d="M603.3594,292.8438 L602.2031,297.9219 L604.5313,297.9219 L603.3594,292.8438 Z M601.875,290.6094 L604.8594,290.6094 L608.2188,303 L605.7656,303 L605,299.9375 L601.7188,299.9375 L600.9688,303 L598.5313,303 L601.875,290.6094 Z "/><text fill="#000000" font-family="sans-serif" font-size="12" font-style="italic" lengthAdjust="spacingAndGlyphs" textLength="88" x="621.75" y="301.6543">AbstractEntity</text><line style="stroke: #A80036; stroke-width: 1.5;" x1="569" x2="732" y1="313.5" y2="313.5"/><ellipse cx="579" cy="325.4023" fill="#84BE84" rx="3" ry="3" style="stroke: #038048; stroke-width: 1.0;"/><text fill="#000000" font-family="sans-serif" font-size="11" font-style="italic" lengthAdjust="spacingAndGlyphs" textLength="70" x="588" y="327.7104">getUid() : int</text><ellipse cx="579" cy="338.207" fill="#84BE84" rx="3" ry="3" style="stroke: #038048; stroke-width: 1.0;"/><text fill="#000000" font-family="sans-serif" font-size="11" font-style="italic" lengthAdjust="spacingAndGlyphs" textLength="93" x="588" y="340.5151">setUid(int) : void</text><line style="stroke: #A80036; stroke-width: 1.0;" x1="569" x2="732" y1="347.1094" y2="347.1094"/><ellipse cx="579" cy="359.0117" fill="#84BE84" rx="3" ry="3" style="stroke: #038048; stroke-width: 1.0;"/><text fill="#000000" font-family="sans-serif" font-size="11" lengthAdjust="spacingAndGlyphs" textLength="139" x="588" y="361.3198">equals(Object) : boolean</text><ellipse cx="579" cy="371.8164" fill="#84BE84" rx="3" ry="3" style="stroke: #038048; stroke-width: 1.0;"/><text fill="#000000" font-family="sans-serif" font-size="11" lengthAdjust="spacingAndGlyphs" textLength="91" x="588" y="374.1245">hashCode() : int</text><rect fill="#FEFECE" filter="url(#f1)" height="112.0234" style="stroke: #A80036; stroke-width: 1.5;" width="186" x="282.5" y="177"/><ellipse cx="297.5" cy="193" fill="#A9DCDF" rx="11" ry="11" style="stroke: #A80036; stroke-width: 1.0;"/><path d="M297.6094,188.3438 L296.4531,193.4219 L298.7813,193.4219 L297.6094,188.3438 Z M296.125,186.1094 L299.1094,186.1094 L302.4688,198.5 L300.0156,198.5 L299.25,195.4375 L295.9688,195.4375 L295.2188,198.5 L292.7813,198.5 L296.125,186.1094 Z "/><text fill="#000000" font-family="sans-serif" font-size="12" font-style="italic" lengthAdjust="spacingAndGlyphs" textLength="154" x="311.5" y="197.1543">AbstractNameDescEntity</text><line style="stroke: #A80036; stroke-width: 1.5;" x1="283.5" x2="467.5" y1="209" y2="209"/><ellipse cx="293.5" cy="220.9023" fill="#84BE84" rx="3" ry="3" style="stroke: #038048; stroke-width: 1.0;"/><text fill="#000000" font-family="sans-serif" font-size="11" font-style="italic" lengthAdjust="spacingAndGlyphs" textLength="98" x="302.5" y="223.2104">getDesc() : String</text><ellipse cx="293.5" cy="233.707" fill="#84BE84" rx="3" ry="3" style="stroke: #038048; stroke-width: 1.0;"/><text fill="#000000" font-family="sans-serif" font-size="11" font-style="italic" lengthAdjust="spacingAndGlyphs" textLength="121" x="302.5" y="236.0151">setDesc(String) : void</text><ellipse cx="293.5" cy="246.5117" fill="#84BE84" rx="3" ry="3" style="stroke: #038048; stroke-width: 1.0;"/><text fill="#000000" font-family="sans-serif" font-size="11" font-style="italic" lengthAdjust="spacingAndGlyphs" textLength="104" x="302.5" y="248.8198">getName() : String</text><ellipse cx="293.5" cy="259.3164" fill="#84BE84" rx="3" ry="3" style="stroke: #038048; stroke-width: 1.0;"/><text fill="#000000" font-family="sans-serif" font-size="11" font-style="italic" lengthAdjust="spacingAndGlyphs" textLength="127" x="302.5" y="261.6245">setName(String) : void</text><line style="stroke: #A80036; stroke-width: 1.0;" x1="283.5" x2="467.5" y1="268.2188" y2="268.2188"/><ellipse cx="293.5" cy="280.1211" fill="#84BE84" rx="3" ry="3" style="stroke: #038048; stroke-width: 1.0;"/><text fill="#000000" font-family="sans-serif" font-size="11" lengthAdjust="spacingAndGlyphs" textLength="99" x="302.5" y="282.4292">toString() : String</text><rect fill="#FEFECE" filter="url(#f1)" height="105.1563" style="stroke: #A80036; stroke-width: 1.5;" width="139" x="25" y="8.5"/><ellipse cx="41.8" cy="27.4688" fill="#FFFF00" rx="11" ry="11" style="stroke: #A80036; stroke-width: 1.0;"/><path d="M45.9094,33.4688 L38.1906,33.4688 L38.1906,21.0781 L45.9094,21.0781 L45.9094,23.2344 L40.6438,23.2344 L40.6438,25.9063 L45.4094,25.9063 L45.4094,28.0625 L40.6438,28.0625 L40.6438,31.3125 L45.9094,31.3125 L45.9094,33.4688 Z "/><text fill="#000000" font-family="sans-serif" font-size="12" font-style="italic" lengthAdjust="spacingAndGlyphs" textLength="50" x="82.7" y="24.6387">«Entity»</text><text fill="#000000" font-family="sans-serif" font-size="12" lengthAdjust="spacingAndGlyphs" textLength="103" x="56.2" y="38.6074">TChargeAccount</text><line style="stroke: #A80036; stroke-width: 1.5;" x1="26" x2="163" y1="46.4375" y2="46.4375"/><polygon fill="none" points="36,53.3398,40,57.3398,36,61.3398,32,57.3398" style="stroke: #B38D22; stroke-width: 1.0;"/><text fill="#000000" font-family="sans-serif" font-size="11" lengthAdjust="spacingAndGlyphs" textLength="43" x="45" y="60.6479">uid : int</text><rect fill="none" height="6" style="stroke: #C82930; stroke-width: 1.0;" width="6" x="33" y="68.1445"/><text fill="#000000" font-family="sans-serif" font-size="11" lengthAdjust="spacingAndGlyphs" textLength="73" x="45" y="73.4526">desc : String</text><rect fill="none" height="6" style="stroke: #C82930; stroke-width: 1.0;" width="6" x="33" y="80.9492"/><text fill="#000000" font-family="sans-serif" font-size="11" lengthAdjust="spacingAndGlyphs" textLength="78" x="45" y="86.2573">name : String</text><rect fill="none" height="6" style="stroke: #C82930; stroke-width: 1.0;" width="6" x="33" y="93.7539"/><text fill="#000000" font-family="sans-serif" font-size="11" lengthAdjust="spacingAndGlyphs" textLength="113" x="45" y="99.062">TTransactions : List</text><line style="stroke: #A80036; stroke-width: 1.0;" x1="26" x2="163" y1="105.6563" y2="105.6563"/><rect fill="#FEFECE" filter="url(#f1)" height="169.1797" style="stroke: #A80036; stroke-width: 1.5;" width="177" x="6" y="148.5"/><ellipse cx="64.75" cy="167.4688" fill="#FFFF00" rx="11" ry="11" style="stroke: #A80036; stroke-width: 1.0;"/><path d="M68.8594,173.4688 L61.1406,173.4688 L61.1406,161.0781 L68.8594,161.0781 L68.8594,163.2344 L63.5938,163.2344 L63.5938,165.9063 L68.3594,165.9063 L68.3594,168.0625 L63.5938,168.0625 L63.5938,171.3125 L68.8594,171.3125 L68.8594,173.4688 Z "/><text fill="#000000" font-family="sans-serif" font-size="12" font-style="italic" lengthAdjust="spacingAndGlyphs" textLength="50" x="85.75" y="164.6387">«Entity»</text><text fill="#000000" font-family="sans-serif" font-size="12" lengthAdjust="spacingAndGlyphs" textLength="51" x="85.25" y="178.6074">TCluster</text><line style="stroke: #A80036; stroke-width: 1.5;" x1="7" x2="182" y1="186.4375" y2="186.4375"/><polygon fill="none" points="17,193.3398,21,197.3398,17,201.3398,13,197.3398" style="stroke: #B38D22; stroke-width: 1.0;"/><text fill="#000000" font-family="sans-serif" font-size="11" lengthAdjust="spacingAndGlyphs" textLength="43" x="26" y="200.6479">uid : int</text><polygon fill="none" points="17,206.1445,21,210.1445,17,214.1445,13,210.1445" style="stroke: #B38D22; stroke-width: 1.0;"/><text fill="#000000" font-family="sans-serif" font-size="11" lengthAdjust="spacingAndGlyphs" textLength="73" x="26" y="213.4526">desc : String</text><polygon fill="none" points="17,218.9492,21,222.9492,17,226.9492,13,222.9492" style="stroke: #B38D22; stroke-width: 1.0;"/><text fill="#000000" font-family="sans-serif" font-size="11" lengthAdjust="spacingAndGlyphs" textLength="78" x="26" y="226.2573">name : String</text><rect fill="none" height="6" style="stroke: #C82930; stroke-width: 1.0;" width="6" x="14" y="233.7539"/><text fill="#000000" font-family="sans-serif" font-size="11" lengthAdjust="spacingAndGlyphs" textLength="47" x="26" y="239.062">sgn : int</text><rect fill="none" height="6" style="stroke: #C82930; stroke-width: 1.0;" width="6" x="14" y="246.5586"/><text fill="#000000" font-family="sans-serif" font-size="11" lengthAdjust="spacingAndGlyphs" textLength="97" x="26" y="251.8667">parent : TCluster</text><rect fill="none" height="6" style="stroke: #C82930; stroke-width: 1.0;" width="6" x="14" y="259.3633"/><text fill="#000000" font-family="sans-serif" font-size="11" lengthAdjust="spacingAndGlyphs" textLength="77" x="26" y="264.6714">children : List</text><rect fill="none" height="6" style="stroke: #C82930; stroke-width: 1.0;" width="6" x="14" y="272.168"/><text fill="#000000" font-family="sans-serif" font-size="11" lengthAdjust="spacingAndGlyphs" textLength="49" x="26" y="277.4761">pis : List</text><rect fill="none" height="6" style="stroke: #C82930; stroke-width: 1.0;" width="6" x="14" y="284.9727"/><text fill="#000000" font-family="sans-serif" font-size="11" lengthAdjust="spacingAndGlyphs" textLength="48" x="26" y="290.2808">trs : List</text><line style="stroke: #A80036; stroke-width: 1.0;" x1="7" x2="182" y1="296.875" y2="296.875"/><ellipse cx="17" cy="308.7773" fill="#84BE84" rx="3" ry="3" style="stroke: #038048; stroke-width: 1.0;"/><text fill="#000000" font-family="sans-serif" font-size="11" lengthAdjust="spacingAndGlyphs" textLength="151" x="26" y="311.0854">equals(TCluster) : boolean</text><rect fill="#FEFECE" filter="url(#f1)" height="117.9609" style="stroke: #A80036; stroke-width: 1.5;" width="136" x="26.5" y="353"/><ellipse cx="65.8" cy="371.9688" fill="#FFFF00" rx="11" ry="11" style="stroke: #A80036; stroke-width: 1.0;"/><path d="M69.9094,377.9688 L62.1906,377.9688 L62.1906,365.5781 L69.9094,365.5781 L69.9094,367.7344 L64.6438,367.7344 L64.6438,370.4063 L69.4094,370.4063 L69.4094,372.5625 L64.6438,372.5625 L64.6438,375.8125 L69.9094,375.8125 L69.9094,377.9688 Z "/><text fill="#000000" font-family="sans-serif" font-size="12" font-style="italic" lengthAdjust="spacingAndGlyphs" textLength="50" x="85.2" y="369.1387">«Entity»</text><text fill="#000000" font-family="sans-serif" font-size="12" lengthAdjust="spacingAndGlyphs" textLength="50" x="85.2" y="383.1074">TMarket</text><line style="stroke: #A80036; stroke-width: 1.5;" x1="27.5" x2="161.5" y1="390.9375" y2="390.9375"/><polygon fill="none" points="37.5,397.8398,41.5,401.8398,37.5,405.8398,33.5,401.8398" style="stroke: #B38D22; stroke-width: 1.0;"/><text fill="#000000" font-family="sans-serif" font-size="11" lengthAdjust="spacingAndGlyphs" textLength="43" x="46.5" y="405.1479">uid : int</text><polygon fill="none" points="37.5,410.6445,41.5,414.6445,37.5,418.6445,33.5,414.6445" style="stroke: #B38D22; stroke-width: 1.0;"/><text fill="#000000" font-family="sans-serif" font-size="11" lengthAdjust="spacingAndGlyphs" textLength="73" x="46.5" y="417.9526">desc : String</text><polygon fill="none" points="37.5,423.4492,41.5,427.4492,37.5,431.4492,33.5,427.4492" style="stroke: #B38D22; stroke-width: 1.0;"/><text fill="#000000" font-family="sans-serif" font-size="11" lengthAdjust="spacingAndGlyphs" textLength="78" x="46.5" y="430.7573">name : String</text><rect fill="none" height="6" style="stroke: #C82930; stroke-width: 1.0;" width="6" x="34.5" y="438.2539"/><text fill="#000000" font-family="sans-serif" font-size="11" lengthAdjust="spacingAndGlyphs" textLength="110" x="46.5" y="443.562">TProductInfos : List</text><rect fill="none" height="6" style="stroke: #C82930; stroke-width: 1.0;" width="6" x="34.5" y="451.0586"/><text fill="#000000" font-family="sans-serif" font-size="11" lengthAdjust="spacingAndGlyphs" textLength="48" x="46.5" y="456.3667">trs : List</text><line style="stroke: #A80036; stroke-width: 1.0;" x1="27.5" x2="161.5" y1="462.9609" y2="462.9609"/><rect fill="#FEFECE" filter="url(#f1)" height="207.5938" style="stroke: #A80036; stroke-width: 1.5;" width="189" x="281" y="324"/><ellipse cx="330.75" cy="342.9688" fill="#FFFF00" rx="11" ry="11" style="stroke: #A80036; stroke-width: 1.0;"/><path d="M334.8594,348.9688 L327.1406,348.9688 L327.1406,336.5781 L334.8594,336.5781 L334.8594,338.7344 L329.5938,338.7344 L329.5938,341.4063 L334.3594,341.4063 L334.3594,343.5625 L329.5938,343.5625 L329.5938,346.8125 L334.8594,346.8125 L334.8594,348.9688 Z "/><text fill="#000000" font-family="sans-serif" font-size="12" font-style="italic" lengthAdjust="spacingAndGlyphs" textLength="50" x="366.75" y="340.1387">«Entity»</text><text fill="#000000" font-family="sans-serif" font-size="12" lengthAdjust="spacingAndGlyphs" textLength="81" x="351.25" y="354.1074">TTransaction</text><line style="stroke: #A80036; stroke-width: 1.5;" x1="282" x2="469" y1="361.9375" y2="361.9375"/><rect fill="none" height="6" style="stroke: #C82930; stroke-width: 1.0;" width="6" x="289" y="370.8398"/><text fill="#000000" font-family="sans-serif" font-size="11" lengthAdjust="spacingAndGlyphs" textLength="43" x="301" y="376.1479">uid : int</text><rect fill="none" height="6" style="stroke: #C82930; stroke-width: 1.0;" width="6" x="289" y="383.6445"/><text fill="#000000" font-family="sans-serif" font-size="11" lengthAdjust="spacingAndGlyphs" textLength="69" x="301" y="388.9526">amount : int</text><rect fill="none" height="6" style="stroke: #C82930; stroke-width: 1.0;" width="6" x="289" y="396.4492"/><text fill="#000000" font-family="sans-serif" font-size="11" lengthAdjust="spacingAndGlyphs" textLength="70" x="301" y="401.7573">balance : int</text><rect fill="none" height="6" style="stroke: #C82930; stroke-width: 1.0;" width="6" x="289" y="409.2539"/><text fill="#000000" font-family="sans-serif" font-size="11" lengthAdjust="spacingAndGlyphs" textLength="63" x="301" y="414.562">date : Date</text><rect fill="none" height="6" style="stroke: #C82930; stroke-width: 1.0;" width="6" x="289" y="422.0586"/><text fill="#000000" font-family="sans-serif" font-size="11" lengthAdjust="spacingAndGlyphs" textLength="87" x="301" y="427.3667">remark : String</text><rect fill="none" height="6" style="stroke: #C82930; stroke-width: 1.0;" width="6" x="289" y="434.8633"/><text fill="#000000" font-family="sans-serif" font-size="11" lengthAdjust="spacingAndGlyphs" textLength="84" x="301" y="440.1714">pivot : boolean</text><rect fill="none" height="6" style="stroke: #C82930; stroke-width: 1.0;" width="6" x="289" y="447.668"/><text fill="#000000" font-family="sans-serif" font-size="11" lengthAdjust="spacingAndGlyphs" textLength="49" x="301" y="452.9761">pis : List</text><rect fill="none" height="6" style="stroke: #C82930; stroke-width: 1.0;" width="6" x="289" y="460.4727"/><text fill="#000000" font-family="sans-serif" font-size="11" lengthAdjust="spacingAndGlyphs" textLength="117" x="301" y="465.7808">ca : TChargeAccount</text><rect fill="none" height="6" style="stroke: #C82930; stroke-width: 1.0;" width="6" x="289" y="473.2773"/><text fill="#000000" font-family="sans-serif" font-size="11" lengthAdjust="spacingAndGlyphs" textLength="163" x="301" y="478.5854">catransfer : TChargeAccount</text><rect fill="none" height="6" style="stroke: #C82930; stroke-width: 1.0;" width="6" x="289" y="486.082"/><text fill="#000000" font-family="sans-serif" font-size="11" lengthAdjust="spacingAndGlyphs" textLength="99" x="301" y="491.3901">cluster : TCluster</text><rect fill="none" height="6" style="stroke: #C82930; stroke-width: 1.0;" width="6" x="289" y="498.8867"/><text fill="#000000" font-family="sans-serif" font-size="11" lengthAdjust="spacingAndGlyphs" textLength="97" x="301" y="504.1948">market : TMarket</text><line style="stroke: #A80036; stroke-width: 1.0;" x1="282" x2="469" y1="510.7891" y2="510.7891"/><ellipse cx="292" cy="522.6914" fill="#84BE84" rx="3" ry="3" style="stroke: #038048; stroke-width: 1.0;"/><text fill="#000000" font-family="sans-serif" font-size="11" lengthAdjust="spacingAndGlyphs" textLength="99" x="301" y="524.9995">toString() : String</text><rect fill="#FEFECE" filter="url(#f1)" height="117.9609" style="stroke: #A80036; stroke-width: 1.5;" width="265" x="243" y="24"/><ellipse cx="310.25" cy="42.9688" fill="#FFA500" rx="11" ry="11" style="stroke: #A80036; stroke-width: 1.0;"/><path d="M309.1563,43.3438 L309.1563,47.0156 L310.7813,47.0156 Q311.9531,47.0156 312.4219,46.6172 Q312.8906,46.2188 312.8906,45.2188 Q312.8906,44.2188 312.3984,43.7813 Q311.9063,43.3438 310.7813,43.3438 L309.1563,43.3438 Z M309.1563,38.5156 L309.1563,41.3906 L310.7813,41.3906 Q311.7031,41.3906 312.1016,41.0547 Q312.5,40.7188 312.5,39.9688 Q312.5,39.2031 312.0938,38.8594 Q311.6875,38.5156 310.7813,38.5156 L309.1563,38.5156 Z M306.7813,36.5625 L310.7813,36.5625 Q312.8438,36.5625 313.8906,37.3438 Q314.9375,38.125 314.9375,39.6875 Q314.9375,40.8906 314.3203,41.5625 Q313.7031,42.2344 312.5156,42.3438 Q313.9375,42.4844 314.6563,43.2969 Q315.375,44.1094 315.375,45.5625 Q315.375,47.3594 314.2969,48.1641 Q313.2188,48.9688 310.7813,48.9688 L306.7813,48.9688 L306.7813,36.5625 Z "/><text fill="#000000" font-family="sans-serif" font-size="12" font-style="italic" lengthAdjust="spacingAndGlyphs" textLength="92" x="345.75" y="40.1387">«JSF, Request»</text><text fill="#000000" font-family="sans-serif" font-size="12" lengthAdjust="spacingAndGlyphs" textLength="122" x="330.75" y="54.1074">MapEntityConverter</text><line style="stroke: #A80036; stroke-width: 1.5;" x1="244" x2="507" y1="61.9375" y2="61.9375"/><text fill="#000000" font-family="sans-serif" font-size="11" font-weight="bold" lengthAdjust="spacingAndGlyphs" textLength="124" x="249" y="76.1479">@ManagedProperty</text><text fill="#000000" font-family="sans-serif" font-size="11" font-style="italic" font-weight="bold" lengthAdjust="spacingAndGlyphs" textLength="72" x="377" y="76.1479">MarketBean</text><text fill="#000000" font-family="sans-serif" font-size="11" font-weight="bold" lengthAdjust="spacingAndGlyphs" textLength="124" x="249" y="88.9526">@ManagedProperty</text><text fill="#000000" font-family="sans-serif" font-size="11" font-style="italic" font-weight="bold" lengthAdjust="spacingAndGlyphs" textLength="74" x="377" y="88.9526">ClusterBean</text><text fill="#000000" font-family="sans-serif" font-size="11" font-weight="bold" lengthAdjust="spacingAndGlyphs" textLength="124" x="249" y="101.7573">@ManagedProperty</text><text fill="#000000" font-family="sans-serif" font-size="11" font-style="italic" font-weight="bold" lengthAdjust="spacingAndGlyphs" textLength="125" x="377" y="101.7573">ChargeAccountBean</text><line style="stroke: #A80036; stroke-width: 1.0;" x1="244" x2="507" y1="108.3516" y2="108.3516"/><ellipse cx="254" cy="120.2539" fill="#84BE84" rx="3" ry="3" style="stroke: #038048; stroke-width: 1.0;"/><text fill="#000000" font-family="sans-serif" font-size="11" lengthAdjust="spacingAndGlyphs" textLength="178" x="263" y="122.562">getAsObject(..., String) : Object</text><ellipse cx="254" cy="133.0586" fill="#84BE84" rx="3" ry="3" style="stroke: #038048; stroke-width: 1.0;"/><text fill="#000000" font-family="sans-serif" font-size="11" lengthAdjust="spacingAndGlyphs" textLength="176" x="263" y="135.3667">getAsString(..., Object) : String</text><path d="M468.545,266.042 C494.328,275.297 522.486,285.405 548.746,294.832 " fill="none" style="stroke: #A80036; stroke-width: 1.0;"/><polygon fill="none" points="551.467,288.371,567.926,301.717,546.737,301.548,551.467,288.371" style="stroke: #A80036; stroke-width: 1.0;"/><path d="M164.226,108.183 C188.822,124.662 216.913,143.024 243,159 C250.1,163.348 257.464,167.757 264.916,172.145 " fill="none" style="stroke: #A80036; stroke-width: 1.0;"/><polygon fill="none" points="268.616,166.199,282.385,182.306,261.577,178.301,268.616,166.199" style="stroke: #A80036; stroke-width: 1.0;"/><path d="M183.012,233 C208.103,233 235.812,233 262.175,233 " fill="none" style="stroke: #A80036; stroke-width: 1.0;"/><polygon fill="none" points="262.478,226,282.478,233,262.478,240,262.478,226" style="stroke: #A80036; stroke-width: 1.0;"/><path d="M162.761,361.847 C187.584,343.947 216.197,324.014 243,307 C250.029,302.538 257.339,298.044 264.753,293.593 " fill="none" style="stroke: #A80036; stroke-width: 1.0;"/><polygon fill="none" points="261.373,287.46,282.155,283.326,268.487,299.518,261.373,287.46" style="stroke: #A80036; stroke-width: 1.0;"/><path d="M470.069,394.754 C495.531,385.707 523.212,375.872 549.039,366.695 " fill="none" style="stroke: #A80036; stroke-width: 1.0;"/><polygon fill="none" points="546.718,360.091,567.907,359.991,551.405,373.283,546.718,360.091" style="stroke: #A80036; stroke-width: 1.0;"/><path d="M375.5,142.326 C375.5,153.801 375.5,165.275 375.5,176.75 " fill="none" style="stroke: #A80036; stroke-width: 1.0;"/></g></svg>