<?xml version="1.0" encoding="UTF-8" standalone="yes"?><svg xmlns="http://www.w3.org/2000/svg" xmlns:xlink="http://www.w3.org/1999/xlink" height="1111pt" style="width:1566px;height:1111px;" version="1.1" viewBox="0 0 1566 1111" width="1566pt"><defs><filter height="300%" id="f1" width="300%" x="-1" y="-1"><feGaussianBlur result="blurOut" stdDeviation="2.0"/><feColorMatrix in="blurOut" result="blurOut2" type="matrix" values="0 0 0 0 0 0 0 0 0 0 0 0 0 0 0 0 0 0 .4 0"/><feOffset dx="4.0" dy="4.0" in="blurOut2" result="blurOut3"/><feBlend in="SourceGraphic" in2="blurOut3" mode="normal"/></filter></defs><g><polygon fill="#FFFFFF" filter="url(#f1)" points="301,589,376,589,383,611.2969,868,611.2969,868,727,301,727,301,589" style="stroke: #000000; stroke-width: 2.0;"/><line style="stroke: #000000; stroke-width: 2.0;" x1="301" x2="383" y1="611.2969" y2="611.2969"/><text fill="#000000" font-family="sans-serif" font-size="14" font-weight="bold" lengthAdjust="spacingAndGlyphs" textLength="69" x="304" y="604.9951">java.lang</text><rect fill="#FEFECE" filter="url(#f1)" height="60.8047" style="stroke: #A80036; stroke-width: 1.5;" width="131" x="317" y="637.5"/><ellipse cx="352.25" cy="653.5" fill="#ADD1B2" rx="11" ry="11" style="stroke: #A80036; stroke-width: 1.0;"/><path d="M355.2188,659.1406 Q354.6406,659.4375 354,659.5859 Q353.3594,659.7344 352.6563,659.7344 Q350.1563,659.7344 348.8359,658.0859 Q347.5156,656.4375 347.5156,653.3125 Q347.5156,650.1875 348.8359,648.5313 Q350.1563,646.875 352.6563,646.875 Q353.3594,646.875 354.0078,647.0313 Q354.6563,647.1875 355.2188,647.4844 L355.2188,650.2031 Q354.5938,649.625 354,649.3516 Q353.4063,649.0781 352.7813,649.0781 Q351.4375,649.0781 350.75,650.1484 Q350.0625,651.2188 350.0625,653.3125 Q350.0625,655.4063 350.75,656.4766 Q351.4375,657.5469 352.7813,657.5469 Q353.4063,657.5469 354,657.2734 Q354.5938,657 355.2188,656.4219 L355.2188,659.1406 Z "/><text fill="#000000" font-family="sans-serif" font-size="12" lengthAdjust="spacingAndGlyphs" textLength="54" x="370.75" y="657.6543">Package</text><line style="stroke: #A80036; stroke-width: 1.5;" x1="318" x2="447" y1="669.5" y2="669.5"/><line style="stroke: #A80036; stroke-width: 1.5;" x1="318" x2="447" y1="677.5" y2="677.5"/><ellipse cx="328" cy="689.4023" fill="#84BE84" rx="3" ry="3" style="stroke: #038048; stroke-width: 1.0;"/><text fill="#000000" font-family="sans-serif" font-size="11" lengthAdjust="spacingAndGlyphs" textLength="105" x="337" y="691.7104">getName() : String</text><rect fill="#FEFECE" filter="url(#f1)" height="86.4141" style="stroke: #A80036; stroke-width: 1.5;" width="162" x="482" y="625"/><ellipse cx="542.25" cy="641" fill="#ADD1B2" rx="11" ry="11" style="stroke: #A80036; stroke-width: 1.0;"/><path d="M545.2188,646.6406 Q544.6406,646.9375 544,647.0859 Q543.3594,647.2344 542.6563,647.2344 Q540.1563,647.2344 538.8359,645.5859 Q537.5156,643.9375 537.5156,640.8125 Q537.5156,637.6875 538.8359,636.0313 Q540.1563,634.375 542.6563,634.375 Q543.3594,634.375 544.0078,634.5313 Q544.6563,634.6875 545.2188,634.9844 L545.2188,637.7031 Q544.5938,637.125 544,636.8516 Q543.4063,636.5781 542.7813,636.5781 Q541.4375,636.5781 540.75,637.6484 Q540.0625,638.7188 540.0625,640.8125 Q540.0625,642.9063 540.75,643.9766 Q541.4375,645.0469 542.7813,645.0469 Q543.4063,645.0469 544,644.7734 Q544.5938,644.5 545.2188,643.9219 L545.2188,646.6406 Z "/><text fill="#000000" font-family="sans-serif" font-size="12" lengthAdjust="spacingAndGlyphs" textLength="33" x="562.75" y="645.1543">Class</text><line style="stroke: #A80036; stroke-width: 1.5;" x1="483" x2="643" y1="657" y2="657"/><line style="stroke: #A80036; stroke-width: 1.5;" x1="483" x2="643" y1="665" y2="665"/><ellipse cx="493" cy="676.9023" fill="#84BE84" rx="3" ry="3" style="stroke: #038048; stroke-width: 1.0;"/><text fill="#000000" font-family="sans-serif" font-size="11" lengthAdjust="spacingAndGlyphs" textLength="125" x="502" y="679.2104">isInterface() : boolean</text><ellipse cx="493" cy="689.707" fill="#84BE84" rx="3" ry="3" style="stroke: #038048; stroke-width: 1.0;"/><text fill="#000000" font-family="sans-serif" font-size="11" lengthAdjust="spacingAndGlyphs" textLength="107" x="502" y="692.0151">isEnum() : boolean</text><ellipse cx="493" cy="702.5117" fill="#84BE84" rx="3" ry="3" style="stroke: #038048; stroke-width: 1.0;"/><text fill="#000000" font-family="sans-serif" font-size="11" lengthAdjust="spacingAndGlyphs" textLength="136" x="502" y="704.8198">getSuperClass() : Class</text><rect fill="#FEFECE" filter="url(#f1)" height="48" style="stroke: #A80036; stroke-width: 1.5;" width="61" x="679" y="644"/><ellipse cx="694" cy="660" fill="#ADD1B2" rx="11" ry="11" style="stroke: #A80036; stroke-width: 1.0;"/><path d="M696.9688,665.6406 Q696.3906,665.9375 695.75,666.0859 Q695.1094,666.2344 694.4063,666.2344 Q691.9063,666.2344 690.5859,664.5859 Q689.2656,662.9375 689.2656,659.8125 Q689.2656,656.6875 690.5859,655.0313 Q691.9063,653.375 694.4063,653.375 Q695.1094,653.375 695.7578,653.5313 Q696.4063,653.6875 696.9688,653.9844 L696.9688,656.7031 Q696.3438,656.125 695.75,655.8516 Q695.1563,655.5781 694.5313,655.5781 Q693.1875,655.5781 692.5,656.6484 Q691.8125,657.7188 691.8125,659.8125 Q691.8125,661.9063 692.5,662.9766 Q693.1875,664.0469 694.5313,664.0469 Q695.1563,664.0469 695.75,663.7734 Q696.3438,663.5 696.9688,662.9219 L696.9688,665.6406 Z "/><text fill="#000000" font-family="sans-serif" font-size="12" lengthAdjust="spacingAndGlyphs" textLength="29" x="708" y="664.1543">Field</text><line style="stroke: #A80036; stroke-width: 1.5;" x1="680" x2="739" y1="676" y2="676"/><line style="stroke: #A80036; stroke-width: 1.5;" x1="680" x2="739" y1="684" y2="684"/><rect fill="#FEFECE" filter="url(#f1)" height="48" style="stroke: #A80036; stroke-width: 1.5;" width="79" x="774" y="644"/><ellipse cx="789" cy="660" fill="#ADD1B2" rx="11" ry="11" style="stroke: #A80036; stroke-width: 1.0;"/><path d="M791.9688,665.6406 Q791.3906,665.9375 790.75,666.0859 Q790.1094,666.2344 789.4063,666.2344 Q786.9063,666.2344 785.5859,664.5859 Q784.2656,662.9375 784.2656,659.8125 Q784.2656,656.6875 785.5859,655.0313 Q786.9063,653.375 789.4063,653.375 Q790.1094,653.375 790.7578,653.5313 Q791.4063,653.6875 791.9688,653.9844 L791.9688,656.7031 Q791.3438,656.125 790.75,655.8516 Q790.1563,655.5781 789.5313,655.5781 Q788.1875,655.5781 787.5,656.6484 Q786.8125,657.7188 786.8125,659.8125 Q786.8125,661.9063 787.5,662.9766 Q788.1875,664.0469 789.5313,664.0469 Q790.1563,664.0469 790.75,663.7734 Q791.3438,663.5 791.9688,662.9219 L791.9688,665.6406 Z "/><text fill="#000000" font-family="sans-serif" font-size="12" lengthAdjust="spacingAndGlyphs" textLength="47" x="803" y="664.1543">Method</text><line style="stroke: #A80036; stroke-width: 1.5;" x1="775" x2="852" y1="676" y2="676"/><line style="stroke: #A80036; stroke-width: 1.5;" x1="775" x2="852" y1="684" y2="684"/><rect fill="#FEFECE" filter="url(#f1)" height="60.8047" style="stroke: #A80036; stroke-width: 1.5;" width="209" x="1348" y="57.5"/><ellipse cx="1427.75" cy="73.5" fill="#ADD1B2" rx="11" ry="11" style="stroke: #A80036; stroke-width: 1.0;"/><path d="M1430.7188,79.1406 Q1430.1406,79.4375 1429.5,79.5859 Q1428.8594,79.7344 1428.1563,79.7344 Q1425.6563,79.7344 1424.3359,78.0859 Q1423.0156,76.4375 1423.0156,73.3125 Q1423.0156,70.1875 1424.3359,68.5313 Q1425.6563,66.875 1428.1563,66.875 Q1428.8594,66.875 1429.5078,67.0313 Q1430.1563,67.1875 1430.7188,67.4844 L1430.7188,70.2031 Q1430.0938,69.625 1429.5,69.3516 Q1428.9063,69.0781 1428.2813,69.0781 Q1426.9375,69.0781 1426.25,70.1484 Q1425.5625,71.2188 1425.5625,73.3125 Q1425.5625,75.4063 1426.25,76.4766 Q1426.9375,77.5469 1428.2813,77.5469 Q1428.9063,77.5469 1429.5,77.2734 Q1430.0938,77 1430.7188,76.4219 L1430.7188,79.1406 Z "/><text fill="#000000" font-family="sans-serif" font-size="12" lengthAdjust="spacingAndGlyphs" textLength="41" x="1448.25" y="77.6543">Helper</text><line style="stroke: #A80036; stroke-width: 1.5;" x1="1349" x2="1556" y1="89.5" y2="89.5"/><line style="stroke: #A80036; stroke-width: 1.5;" x1="1349" x2="1556" y1="97.5" y2="97.5"/><ellipse cx="1359" cy="109.4023" fill="#84BE84" rx="3" ry="3" style="stroke: #038048; stroke-width: 1.0;"/><text fill="#000000" font-family="sans-serif" font-size="11" lengthAdjust="spacingAndGlyphs" text-decoration="underline" textLength="183" x="1368" y="111.7104">ModifierToPlantUML(int modifier)</text><line style="stroke: #000000; stroke-width: 1.0;" x1="1368" x2="1551" y1="113.7104" y2="113.7104"/><rect fill="#D0FFE0" filter="url(#f1)" height="160.375" style="stroke: #A80036; stroke-width: 1.5;" width="309" x="1005" y="8"/><ellipse cx="1110.75" cy="26.9688" fill="#ADD1B2" rx="11" ry="11" style="stroke: #A80036; stroke-width: 1.0;"/><path d="M1113.7188,32.6094 Q1113.1406,32.9063 1112.5,33.0547 Q1111.8594,33.2031 1111.1563,33.2031 Q1108.6563,33.2031 1107.3359,31.5547 Q1106.0156,29.9063 1106.0156,26.7813 Q1106.0156,23.6563 1107.3359,22 Q1108.6563,20.3438 1111.1563,20.3438 Q1111.8594,20.3438 1112.5078,20.5 Q1113.1563,20.6563 1113.7188,20.9531 L1113.7188,23.6719 Q1113.0938,23.0938 1112.5,22.8203 Q1111.9063,22.5469 1111.2813,22.5469 Q1109.9375,22.5469 1109.25,23.6172 Q1108.5625,24.6875 1108.5625,26.7813 Q1108.5625,28.875 1109.25,29.9453 Q1109.9375,31.0156 1111.2813,31.0156 Q1111.9063,31.0156 1112.5,30.7422 Q1113.0938,30.4688 1113.7188,29.8906 L1113.7188,32.6094 Z "/><text fill="#000000" font-family="sans-serif" font-size="12" font-style="italic" lengthAdjust="spacingAndGlyphs" textLength="90" x="1130.75" y="24.1387">&lt;&lt;Director&gt;&gt;</text><text fill="#000000" font-family="sans-serif" font-size="12" lengthAdjust="spacingAndGlyphs" textLength="89" x="1131.25" y="38.1074">UMLGenerator</text><line style="stroke: #A80036; stroke-width: 1.5;" x1="1006" x2="1313" y1="45.9375" y2="45.9375"/><rect fill="none" height="6" style="stroke: #C82930; stroke-width: 1.0;" width="6" x="1013" y="54.8398"/><text fill="#000000" font-family="sans-serif" font-size="11" lengthAdjust="spacingAndGlyphs" textLength="137" x="1025" y="60.1479">builder : ElementBuilder</text><rect fill="none" height="6" style="stroke: #C82930; stroke-width: 1.0;" width="6" x="1013" y="84.4492"/><text fill="#000000" font-family="sans-serif" font-size="11" lengthAdjust="spacingAndGlyphs" textLength="208" x="1025" y="89.7573">requestedPackages : Set&lt;Package&gt;</text><rect fill="none" height="6" style="stroke: #C82930; stroke-width: 1.0;" width="6" x="1013" y="97.2539"/><text fill="#000000" font-family="sans-serif" font-size="11" lengthAdjust="spacingAndGlyphs" textLength="237" x="1025" y="102.562">requestedClasses : Map&lt;Class, Integer&gt;</text><line style="stroke: #A80036; stroke-width: 1.0; stroke-dasharray: 1.0,2.0;" x1="1006" x2="1075.5" y1="73.1445" y2="73.1445"/><text fill="#000000" font-family="sans-serif" font-size="11" lengthAdjust="spacingAndGlyphs" textLength="168" x="1075.5" y="76.4526">objects to process on (intput)</text><line style="stroke: #A80036; stroke-width: 1.0; stroke-dasharray: 1.0,2.0;" x1="1243.5" x2="1313" y1="73.1445" y2="73.1445"/><line style="stroke: #A80036; stroke-width: 1.0;" x1="1006" x2="1313" y1="109.1563" y2="109.1563"/><ellipse cx="1016" cy="121.0586" fill="#84BE84" rx="3" ry="3" style="stroke: #038048; stroke-width: 1.0;"/><text fill="#000000" font-family="sans-serif" font-size="11" lengthAdjust="spacingAndGlyphs" textLength="153" x="1025" y="123.3667">addRequestedClass(Class)</text><ellipse cx="1016" cy="133.8633" fill="#84BE84" rx="3" ry="3" style="stroke: #038048; stroke-width: 1.0;"/><text fill="#000000" font-family="sans-serif" font-size="11" lengthAdjust="spacingAndGlyphs" textLength="183" x="1025" y="136.1714">addRequestedPackage(Package)</text><ellipse cx="1016" cy="146.668" fill="#84BE84" rx="3" ry="3" style="stroke: #038048; stroke-width: 1.0;"/><text fill="#000000" font-family="sans-serif" font-size="11" lengthAdjust="spacingAndGlyphs" textLength="283" x="1025" y="148.9761">generateClassDiagram() -- ALGORITHM (generate)</text><ellipse cx="1016" cy="159.4727" fill="#84BE84" rx="3" ry="3" style="stroke: #038048; stroke-width: 1.0;"/><text fill="#000000" font-family="sans-serif" font-size="11" lengthAdjust="spacingAndGlyphs" textLength="175" x="1025" y="161.7808">print() -- ALGORITHM (visualize)</text><rect fill="#D0FFE0" filter="url(#f1)" height="105.1563" style="stroke: #A80036; stroke-width: 1.5;" width="266" x="862" y="249"/><ellipse cx="943.75" cy="267.9688" fill="#A9DCDF" rx="11" ry="11" style="stroke: #A80036; stroke-width: 1.0;"/><path d="M943.8594,263.3125 L942.7031,268.3906 L945.0313,268.3906 L943.8594,263.3125 Z M942.375,261.0781 L945.3594,261.0781 L948.7188,273.4688 L946.2656,273.4688 L945.5,270.4063 L942.2188,270.4063 L941.4688,273.4688 L939.0313,273.4688 L942.375,261.0781 Z "/><text fill="#000000" font-family="sans-serif" font-size="12" font-style="italic" lengthAdjust="spacingAndGlyphs" textLength="83" x="969.75" y="265.1387">&lt;&lt;Builder&gt;&gt;</text><text fill="#000000" font-family="sans-serif" font-size="12" font-style="italic" lengthAdjust="spacingAndGlyphs" textLength="94" x="964.25" y="279.1074">ElementBuilder</text><line style="stroke: #A80036; stroke-width: 1.5;" x1="863" x2="1127" y1="286.9375" y2="286.9375"/><rect fill="none" height="6" style="stroke: #C82930; stroke-width: 1.0;" width="6" x="870" y="295.8398"/><text fill="#000000" font-family="sans-serif" font-size="11" lengthAdjust="spacingAndGlyphs" textLength="240" x="882" y="301.1479">umlmodel : Element -- COMPOSITE MODEL</text><line style="stroke: #A80036; stroke-width: 1.5;" x1="863" x2="1127" y1="307.7422" y2="307.7422"/><ellipse cx="873" cy="319.6445" fill="#84BE84" rx="3" ry="3" style="stroke: #038048; stroke-width: 1.0;"/><text fill="#000000" font-family="sans-serif" font-size="11" font-style="italic" lengthAdjust="spacingAndGlyphs" textLength="116" x="882" y="321.9526">createClass() : Class</text><ellipse cx="873" cy="332.4492" fill="#84BE84" rx="3" ry="3" style="stroke: #038048; stroke-width: 1.0;"/><text fill="#000000" font-family="sans-serif" font-size="11" font-style="italic" lengthAdjust="spacingAndGlyphs" textLength="150" x="882" y="334.7573">createPackage() : Package</text><ellipse cx="873" cy="345.2539" fill="#84BE84" rx="3" ry="3" style="stroke: #038048; stroke-width: 1.0;"/><text fill="#000000" font-family="sans-serif" font-size="11" font-style="italic" lengthAdjust="spacingAndGlyphs" textLength="100" x="882" y="347.562">createLink() : Link</text><polygon fill="#FBFB77" filter="url(#f1)" points="692,75.5,692,100.6328,971,100.6328,971,85.5,961,75.5,692,75.5" style="stroke: #A80036; stroke-width: 1.0;"/><polygon fill="#FBFB77" points="692,75.5,692,100.6328,836.768,100.6328,954.079,248.602,844.768,100.6328,971,100.6328,971,85.5,961,75.5,692,75.5" style="stroke: #A80036; stroke-width: 1.0;"/><line style="stroke: #A80036; stroke-width: 1.0;" x1="961" x2="961" y1="75.5" y2="85.5"/><line style="stroke: #A80036; stroke-width: 1.0;" x1="971" x2="961" y1="85.5" y2="85.5"/><text fill="#000000" font-family="sans-serif" font-size="13" lengthAdjust="spacingAndGlyphs" textLength="258" x="698" y="92.5669">This is very similar to an AbstractFactory</text><rect fill="#D0D0FF" filter="url(#f1)" height="79.5469" style="stroke: #A80036; stroke-width: 1.5;" width="165" x="912" y="629"/><ellipse cx="934.65" cy="647.9688" fill="#A9DCDF" rx="11" ry="11" style="stroke: #A80036; stroke-width: 1.0;"/><path d="M934.7594,643.3125 L933.6031,648.3906 L935.9313,648.3906 L934.7594,643.3125 Z M933.275,641.0781 L936.2594,641.0781 L939.6188,653.4688 L937.1656,653.4688 L936.4,650.4063 L933.1188,650.4063 L932.3688,653.4688 L929.9313,653.4688 L933.275,641.0781 Z "/><text fill="#000000" font-family="sans-serif" font-size="12" font-style="italic" lengthAdjust="spacingAndGlyphs" textLength="120" x="948.35" y="645.1387">&lt;&lt; Component &gt;&gt;</text><text fill="#000000" font-family="sans-serif" font-size="12" font-style="italic" lengthAdjust="spacingAndGlyphs" textLength="51" x="982.85" y="659.1074">Element</text><line style="stroke: #A80036; stroke-width: 1.5;" x1="913" x2="1076" y1="666.9375" y2="666.9375"/><line style="stroke: #A80036; stroke-width: 1.5;" x1="913" x2="1076" y1="674.9375" y2="674.9375"/><ellipse cx="923" cy="686.8398" fill="#84BE84" rx="3" ry="3" style="stroke: #038048; stroke-width: 1.0;"/><text fill="#000000" font-family="sans-serif" font-size="11" lengthAdjust="spacingAndGlyphs" textLength="139" x="932" y="689.1479">addElement(Element) {}</text><ellipse cx="923" cy="699.6445" fill="#84BE84" rx="3" ry="3" style="stroke: #038048; stroke-width: 1.0;"/><text fill="#000000" font-family="sans-serif" font-size="11" font-style="italic" lengthAdjust="spacingAndGlyphs" textLength="34" x="932" y="701.9526">print()</text><rect fill="#D0FFE0" filter="url(#f1)" height="92.3516" style="stroke: #A80036; stroke-width: 1.5;" width="190" x="826" y="445"/><ellipse cx="844.15" cy="463.9688" fill="#ADD1B2" rx="11" ry="11" style="stroke: #A80036; stroke-width: 1.0;"/><path d="M847.1188,469.6094 Q846.5406,469.9063 845.9,470.0547 Q845.2594,470.2031 844.5563,470.2031 Q842.0563,470.2031 840.7359,468.5547 Q839.4156,466.9063 839.4156,463.7813 Q839.4156,460.6563 840.7359,459 Q842.0563,457.3438 844.5563,457.3438 Q845.2594,457.3438 845.9078,457.5 Q846.5563,457.6563 847.1188,457.9531 L847.1188,460.6719 Q846.4938,460.0938 845.9,459.8203 Q845.3063,459.5469 844.6813,459.5469 Q843.3375,459.5469 842.65,460.6172 Q841.9625,461.6875 841.9625,463.7813 Q841.9625,465.875 842.65,466.9453 Q843.3375,468.0156 844.6813,468.0156 Q845.3063,468.0156 845.9,467.7422 Q846.4938,467.4688 847.1188,466.8906 L847.1188,469.6094 Z "/><text fill="#000000" font-family="sans-serif" font-size="12" font-style="italic" lengthAdjust="spacingAndGlyphs" textLength="114" x="877.35" y="461.1387">&lt;&lt;ConcBuilder&gt;&gt;</text><text fill="#000000" font-family="sans-serif" font-size="12" lengthAdjust="spacingAndGlyphs" textLength="151" x="858.85" y="475.1074">PlantUMLElementBuilder</text><line style="stroke: #A80036; stroke-width: 1.5;" x1="827" x2="1015" y1="482.9375" y2="482.9375"/><line style="stroke: #A80036; stroke-width: 1.5;" x1="827" x2="1015" y1="490.9375" y2="490.9375"/><ellipse cx="837" cy="502.8398" fill="#84BE84" rx="3" ry="3" style="stroke: #038048; stroke-width: 1.0;"/><text fill="#000000" font-family="sans-serif" font-size="11" lengthAdjust="spacingAndGlyphs" textLength="134" x="846" y="505.1479">createClass() : PuClass</text><ellipse cx="837" cy="515.6445" fill="#84BE84" rx="3" ry="3" style="stroke: #038048; stroke-width: 1.0;"/><text fill="#000000" font-family="sans-serif" font-size="11" lengthAdjust="spacingAndGlyphs" textLength="164" x="846" y="517.9526">createPackage() : PuPackage</text><ellipse cx="837" cy="528.4492" fill="#84BE84" rx="3" ry="3" style="stroke: #038048; stroke-width: 1.0;"/><text fill="#000000" font-family="sans-serif" font-size="11" lengthAdjust="spacingAndGlyphs" textLength="114" x="846" y="530.7573">createLink() : PuLink</text><rect fill="#D0D0FF" filter="url(#f1)" height="73.6094" style="stroke: #A80036; stroke-width: 1.5;" width="147" x="405" y="455"/><ellipse cx="442.05" cy="471" fill="#ADD1B2" rx="11" ry="11" style="stroke: #A80036; stroke-width: 1.0;"/><path d="M445.0188,476.6406 Q444.4406,476.9375 443.8,477.0859 Q443.1594,477.2344 442.4563,477.2344 Q439.9563,477.2344 438.6359,475.5859 Q437.3156,473.9375 437.3156,470.8125 Q437.3156,467.6875 438.6359,466.0313 Q439.9563,464.375 442.4563,464.375 Q443.1594,464.375 443.8078,464.5313 Q444.4563,464.6875 445.0188,464.9844 L445.0188,467.7031 Q444.3938,467.125 443.8,466.8516 Q443.2063,466.5781 442.5813,466.5781 Q441.2375,466.5781 440.55,467.6484 Q439.8625,468.7188 439.8625,470.8125 Q439.8625,472.9063 440.55,473.9766 Q441.2375,475.0469 442.5813,475.0469 Q443.2063,475.0469 443.8,474.7734 Q444.3938,474.5 445.0188,473.9219 L445.0188,476.6406 Z "/><text fill="#000000" font-family="sans-serif" font-size="12" lengthAdjust="spacingAndGlyphs" textLength="66" x="460.95" y="475.1543">Composite</text><line style="stroke: #A80036; stroke-width: 1.5;" x1="406" x2="551" y1="487" y2="487"/><line style="stroke: #A80036; stroke-width: 1.5;" x1="406" x2="551" y1="495" y2="495"/><ellipse cx="416" cy="506.9023" fill="#84BE84" rx="3" ry="3" style="stroke: #038048; stroke-width: 1.0;"/><text fill="#000000" font-family="sans-serif" font-size="11" lengthAdjust="spacingAndGlyphs" textLength="121" x="425" y="509.2104">addElement(Element)</text><ellipse cx="416" cy="519.707" fill="#84BE84" rx="3" ry="3" style="stroke: #038048; stroke-width: 1.0;"/><text fill="#000000" font-family="sans-serif" font-size="11" lengthAdjust="spacingAndGlyphs" textLength="34" x="425" y="522.0151">print()</text><rect fill="#D0D0FF" filter="url(#f1)" height="66.7422" style="stroke: #A80036; stroke-width: 1.5;" width="270" x="30" y="807.5"/><ellipse cx="90.75" cy="826.4688" fill="#ADD1B2" rx="11" ry="11" style="stroke: #A80036; stroke-width: 1.0;"/><path d="M93.7188,832.1094 Q93.1406,832.4063 92.5,832.5547 Q91.8594,832.7031 91.1563,832.7031 Q88.6563,832.7031 87.3359,831.0547 Q86.0156,829.4063 86.0156,826.2813 Q86.0156,823.1563 87.3359,821.5 Q88.6563,819.8438 91.1563,819.8438 Q91.8594,819.8438 92.5078,820 Q93.1563,820.1563 93.7188,820.4531 L93.7188,823.1719 Q93.0938,822.5938 92.5,822.3203 Q91.9063,822.0469 91.2813,822.0469 Q89.9375,822.0469 89.25,823.1172 Q88.5625,824.1875 88.5625,826.2813 Q88.5625,828.375 89.25,829.4453 Q89.9375,830.5156 91.2813,830.5156 Q91.9063,830.5156 92.5,830.2422 Q93.0938,829.9688 93.7188,829.3906 L93.7188,832.1094 Z "/><text fill="#000000" font-family="sans-serif" font-size="12" font-style="italic" lengthAdjust="spacingAndGlyphs" textLength="144" x="109.25" y="823.6387">&lt;&lt;ConcComposite1&gt;&gt;</text><text fill="#000000" font-family="sans-serif" font-size="12" lengthAdjust="spacingAndGlyphs" textLength="54" x="154.25" y="837.6074">Package</text><line style="stroke: #A80036; stroke-width: 1.5;" x1="31" x2="299" y1="845.4375" y2="845.4375"/><line style="stroke: #A80036; stroke-width: 1.5;" x1="31" x2="299" y1="853.4375" y2="853.4375"/><ellipse cx="41" cy="865.3398" fill="#84BE84" rx="3" ry="3" style="stroke: #038048; stroke-width: 1.0;"/><text fill="#000000" font-family="sans-serif" font-size="11" font-style="italic" lengthAdjust="spacingAndGlyphs" textLength="244" x="50" y="867.6479">createClassDeclaration() : ClassDeclaration</text><rect fill="#D0D0FF" filter="url(#f1)" height="79.5469" style="stroke: #A80036; stroke-width: 1.5;" width="172" x="335" y="801"/><ellipse cx="350" cy="819.9688" fill="#ADD1B2" rx="11" ry="11" style="stroke: #A80036; stroke-width: 1.0;"/><path d="M352.9688,825.6094 Q352.3906,825.9063 351.75,826.0547 Q351.1094,826.2031 350.4063,826.2031 Q347.9063,826.2031 346.5859,824.5547 Q345.2656,822.9063 345.2656,819.7813 Q345.2656,816.6563 346.5859,815 Q347.9063,813.3438 350.4063,813.3438 Q351.1094,813.3438 351.7578,813.5 Q352.4063,813.6563 352.9688,813.9531 L352.9688,816.6719 Q352.3438,816.0938 351.75,815.8203 Q351.1563,815.5469 350.5313,815.5469 Q349.1875,815.5469 348.5,816.6172 Q347.8125,817.6875 347.8125,819.7813 Q347.8125,821.875 348.5,822.9453 Q349.1875,824.0156 350.5313,824.0156 Q351.1563,824.0156 351.75,823.7422 Q352.3438,823.4688 352.9688,822.8906 L352.9688,825.6094 Z "/><text fill="#000000" font-family="sans-serif" font-size="12" font-style="italic" lengthAdjust="spacingAndGlyphs" textLength="144" x="362" y="817.1387">&lt;&lt;ConcComposite2&gt;&gt;</text><text fill="#000000" font-family="sans-serif" font-size="12" lengthAdjust="spacingAndGlyphs" textLength="33" x="417.5" y="831.1074">Class</text><line style="stroke: #A80036; stroke-width: 1.5;" x1="336" x2="506" y1="838.9375" y2="838.9375"/><line style="stroke: #A80036; stroke-width: 1.5;" x1="336" x2="506" y1="846.9375" y2="846.9375"/><ellipse cx="346" cy="858.8398" fill="#84BE84" rx="3" ry="3" style="stroke: #038048; stroke-width: 1.0;"/><text fill="#000000" font-family="sans-serif" font-size="11" font-style="italic" lengthAdjust="spacingAndGlyphs" textLength="138" x="355" y="861.1479">createMethod() : Method</text><ellipse cx="346" cy="871.6445" fill="#84BE84" rx="3" ry="3" style="stroke: #038048; stroke-width: 1.0;"/><text fill="#000000" font-family="sans-serif" font-size="11" font-style="italic" lengthAdjust="spacingAndGlyphs" textLength="108" x="355" y="873.9526">createField() : Field</text><rect fill="#D0D0FF" filter="url(#f1)" height="66.7422" style="stroke: #A80036; stroke-width: 1.5;" width="137" x="547" y="807.5"/><ellipse cx="562" cy="826.4688" fill="#ADD1B2" rx="11" ry="11" style="stroke: #A80036; stroke-width: 1.0;"/><path d="M564.9688,832.1094 Q564.3906,832.4063 563.75,832.5547 Q563.1094,832.7031 562.4063,832.7031 Q559.9063,832.7031 558.5859,831.0547 Q557.2656,829.4063 557.2656,826.2813 Q557.2656,823.1563 558.5859,821.5 Q559.9063,819.8438 562.4063,819.8438 Q563.1094,819.8438 563.7578,820 Q564.4063,820.1563 564.9688,820.4531 L564.9688,823.1719 Q564.3438,822.5938 563.75,822.3203 Q563.1563,822.0469 562.5313,822.0469 Q561.1875,822.0469 560.5,823.1172 Q559.8125,824.1875 559.8125,826.2813 Q559.8125,828.375 560.5,829.4453 Q561.1875,830.5156 562.5313,830.5156 Q563.1563,830.5156 563.75,830.2422 Q564.3438,829.9688 564.9688,829.3906 L564.9688,832.1094 Z "/><text fill="#000000" font-family="sans-serif" font-size="12" font-style="italic" lengthAdjust="spacingAndGlyphs" textLength="89" x="584" y="823.6387">&lt;&lt; Leaf_1 &gt;&gt;</text><text fill="#000000" font-family="sans-serif" font-size="12" lengthAdjust="spacingAndGlyphs" textLength="105" x="576" y="837.6074">ClassDeclaration</text><line style="stroke: #A80036; stroke-width: 1.5;" x1="548" x2="683" y1="845.4375" y2="845.4375"/><line style="stroke: #A80036; stroke-width: 1.5;" x1="548" x2="683" y1="853.4375" y2="853.4375"/><ellipse cx="558" cy="865.3398" fill="#84BE84" rx="3" ry="3" style="stroke: #038048; stroke-width: 1.0;"/><text fill="#000000" font-family="sans-serif" font-size="11" lengthAdjust="spacingAndGlyphs" textLength="34" x="567" y="867.6479">print()</text><rect fill="#D0D0FF" filter="url(#f1)" height="66.7422" style="stroke: #A80036; stroke-width: 1.5;" width="252" x="869" y="807.5"/><ellipse cx="948.25" cy="826.4688" fill="#ADD1B2" rx="11" ry="11" style="stroke: #A80036; stroke-width: 1.0;"/><path d="M951.2188,832.1094 Q950.6406,832.4063 950,832.5547 Q949.3594,832.7031 948.6563,832.7031 Q946.1563,832.7031 944.8359,831.0547 Q943.5156,829.4063 943.5156,826.2813 Q943.5156,823.1563 944.8359,821.5 Q946.1563,819.8438 948.6563,819.8438 Q949.3594,819.8438 950.0078,820 Q950.6563,820.1563 951.2188,820.4531 L951.2188,823.1719 Q950.5938,822.5938 950,822.3203 Q949.4063,822.0469 948.7813,822.0469 Q947.4375,822.0469 946.75,823.1172 Q946.0625,824.1875 946.0625,826.2813 Q946.0625,828.375 946.75,829.4453 Q947.4375,830.5156 948.7813,830.5156 Q949.4063,830.5156 950,830.2422 Q950.5938,829.9688 951.2188,829.3906 L951.2188,832.1094 Z "/><text fill="#000000" font-family="sans-serif" font-size="12" font-style="italic" lengthAdjust="spacingAndGlyphs" textLength="89" x="966.75" y="823.6387">&lt;&lt; Leaf_2 &gt;&gt;</text><text fill="#000000" font-family="sans-serif" font-size="12" lengthAdjust="spacingAndGlyphs" textLength="47" x="987.75" y="837.6074">Method</text><line style="stroke: #A80036; stroke-width: 1.5;" x1="870" x2="1120" y1="845.4375" y2="845.4375"/><line style="stroke: #A80036; stroke-width: 1.5;" x1="870" x2="1120" y1="853.4375" y2="853.4375"/><ellipse cx="880" cy="865.3398" fill="#84BE84" rx="3" ry="3" style="stroke: #038048; stroke-width: 1.0;"/><text fill="#000000" font-family="sans-serif" font-size="11" lengthAdjust="spacingAndGlyphs" textLength="226" x="889" y="867.6479">parseGenericParamTypes(Type[] types)</text><rect fill="#D0D0FF" filter="url(#f1)" height="53.9375" style="stroke: #A80036; stroke-width: 1.5;" width="117" x="718" y="814"/><ellipse cx="733" cy="832.9688" fill="#ADD1B2" rx="11" ry="11" style="stroke: #A80036; stroke-width: 1.0;"/><path d="M735.9688,838.6094 Q735.3906,838.9063 734.75,839.0547 Q734.1094,839.2031 733.4063,839.2031 Q730.9063,839.2031 729.5859,837.5547 Q728.2656,835.9063 728.2656,832.7813 Q728.2656,829.6563 729.5859,828 Q730.9063,826.3438 733.4063,826.3438 Q734.1094,826.3438 734.7578,826.5 Q735.4063,826.6563 735.9688,826.9531 L735.9688,829.6719 Q735.3438,829.0938 734.75,828.8203 Q734.1563,828.5469 733.5313,828.5469 Q732.1875,828.5469 731.5,829.6172 Q730.8125,830.6875 730.8125,832.7813 Q730.8125,834.875 731.5,835.9453 Q732.1875,837.0156 733.5313,837.0156 Q734.1563,837.0156 734.75,836.7422 Q735.3438,836.4688 735.9688,835.8906 L735.9688,838.6094 Z "/><text fill="#000000" font-family="sans-serif" font-size="12" font-style="italic" lengthAdjust="spacingAndGlyphs" textLength="89" x="745" y="830.1387">&lt;&lt; Leaf_3 &gt;&gt;</text><text fill="#000000" font-family="sans-serif" font-size="12" lengthAdjust="spacingAndGlyphs" textLength="29" x="775" y="844.1074">Field</text><line style="stroke: #A80036; stroke-width: 1.5;" x1="719" x2="834" y1="851.9375" y2="851.9375"/><line style="stroke: #A80036; stroke-width: 1.5;" x1="719" x2="834" y1="859.9375" y2="859.9375"/><rect fill="#D0D0FF" filter="url(#f1)" height="105.1563" style="stroke: #A80036; stroke-width: 1.5;" width="193" x="1156" y="788.5"/><ellipse cx="1205.75" cy="807.4688" fill="#ADD1B2" rx="11" ry="11" style="stroke: #A80036; stroke-width: 1.0;"/><path d="M1208.7188,813.1094 Q1208.1406,813.4063 1207.5,813.5547 Q1206.8594,813.7031 1206.1563,813.7031 Q1203.6563,813.7031 1202.3359,812.0547 Q1201.0156,810.4063 1201.0156,807.2813 Q1201.0156,804.1563 1202.3359,802.5 Q1203.6563,800.8438 1206.1563,800.8438 Q1206.8594,800.8438 1207.5078,801 Q1208.1563,801.1563 1208.7188,801.4531 L1208.7188,804.1719 Q1208.0938,803.5938 1207.5,803.3203 Q1206.9063,803.0469 1206.2813,803.0469 Q1204.9375,803.0469 1204.25,804.1172 Q1203.5625,805.1875 1203.5625,807.2813 Q1203.5625,809.375 1204.25,810.4453 Q1204.9375,811.5156 1206.2813,811.5156 Q1206.9063,811.5156 1207.5,811.2422 Q1208.0938,810.9688 1208.7188,810.3906 L1208.7188,813.1094 Z "/><text fill="#000000" font-family="sans-serif" font-size="12" font-style="italic" lengthAdjust="spacingAndGlyphs" textLength="89" x="1224.25" y="804.6387">&lt;&lt; Leaf_4 &gt;&gt;</text><text fill="#000000" font-family="sans-serif" font-size="12" lengthAdjust="spacingAndGlyphs" textLength="24" x="1256.75" y="818.6074">Link</text><line style="stroke: #A80036; stroke-width: 1.5;" x1="1157" x2="1348" y1="826.4375" y2="826.4375"/><line style="stroke: #A80036; stroke-width: 1.5;" x1="1157" x2="1348" y1="834.4375" y2="834.4375"/><ellipse cx="1167" cy="846.3398" fill="#84BE84" rx="3" ry="3" style="stroke: #038048; stroke-width: 1.0;"/><text fill="#000000" font-family="sans-serif" font-size="11" lengthAdjust="spacingAndGlyphs" textLength="34" x="1176" y="848.6479">print()</text><ellipse cx="1167" cy="859.1445" fill="#84BE84" rx="3" ry="3" style="stroke: #038048; stroke-width: 1.0;"/><text fill="#000000" font-family="sans-serif" font-size="11" lengthAdjust="spacingAndGlyphs" textLength="166" x="1176" y="861.4526">setA(Element el, String label)</text><ellipse cx="1167" cy="871.9492" fill="#84BE84" rx="3" ry="3" style="stroke: #038048; stroke-width: 1.0;"/><text fill="#000000" font-family="sans-serif" font-size="11" lengthAdjust="spacingAndGlyphs" textLength="167" x="1176" y="874.2573">setB(Element el, String label)</text><ellipse cx="1167" cy="884.7539" fill="#84BE84" rx="3" ry="3" style="stroke: #038048; stroke-width: 1.0;"/><text fill="#000000" font-family="sans-serif" font-size="11" lengthAdjust="spacingAndGlyphs" textLength="159" x="1176" y="887.062">setLinkType(ELinkType type)</text><rect fill="#FEFECE" filter="url(#f1)" height="66.7422" style="stroke: #A80036; stroke-width: 1.5;" width="288" x="6" y="960.5"/><ellipse cx="88.75" cy="979.4688" fill="#ADD1B2" rx="11" ry="11" style="stroke: #A80036; stroke-width: 1.0;"/><path d="M91.7188,985.1094 Q91.1406,985.4063 90.5,985.5547 Q89.8594,985.7031 89.1563,985.7031 Q86.6563,985.7031 85.3359,984.0547 Q84.0156,982.4063 84.0156,979.2813 Q84.0156,976.1563 85.3359,974.5 Q86.6563,972.8438 89.1563,972.8438 Q89.8594,972.8438 90.5078,973 Q91.1563,973.1563 91.7188,973.4531 L91.7188,976.1719 Q91.0938,975.5938 90.5,975.3203 Q89.9063,975.0469 89.2813,975.0469 Q87.9375,975.0469 87.25,976.1172 Q86.5625,977.1875 86.5625,979.2813 Q86.5625,981.375 87.25,982.4453 Q87.9375,983.5156 89.2813,983.5156 Q89.9063,983.5156 90.5,983.2422 Q91.0938,982.9688 91.7188,982.3906 L91.7188,985.1094 Z "/><text fill="#000000" font-family="sans-serif" font-size="12" font-style="italic" lengthAdjust="spacingAndGlyphs" textLength="118" x="107.25" y="976.6387">&lt;&lt; ProductA_1 &gt;&gt;</text><text fill="#000000" font-family="sans-serif" font-size="12" lengthAdjust="spacingAndGlyphs" textLength="70" x="131.25" y="990.6074">PuPackage</text><line style="stroke: #A80036; stroke-width: 1.5;" x1="7" x2="293" y1="998.4375" y2="998.4375"/><line style="stroke: #A80036; stroke-width: 1.5;" x1="7" x2="293" y1="1006.4375" y2="1006.4375"/><ellipse cx="17" cy="1018.3398" fill="#84BE84" rx="3" ry="3" style="stroke: #038048; stroke-width: 1.0;"/><text fill="#000000" font-family="sans-serif" font-size="11" lengthAdjust="spacingAndGlyphs" textLength="262" x="26" y="1020.6479">createClassDeclaration() : PuClassDeclaration</text><rect fill="#FEFECE" filter="url(#f1)" height="79.5469" style="stroke: #A80036; stroke-width: 1.5;" width="178" x="329" y="954"/><ellipse cx="358.4" cy="972.9688" fill="#ADD1B2" rx="11" ry="11" style="stroke: #A80036; stroke-width: 1.0;"/><path d="M361.3688,978.6094 Q360.7906,978.9063 360.15,979.0547 Q359.5094,979.2031 358.8063,979.2031 Q356.3063,979.2031 354.9859,977.5547 Q353.6656,975.9063 353.6656,972.7813 Q353.6656,969.6563 354.9859,968 Q356.3063,966.3438 358.8063,966.3438 Q359.5094,966.3438 360.1578,966.5 Q360.8063,966.6563 361.3688,966.9531 L361.3688,969.6719 Q360.7438,969.0938 360.15,968.8203 Q359.5563,968.5469 358.9313,968.5469 Q357.5875,968.5469 356.9,969.6172 Q356.2125,970.6875 356.2125,972.7813 Q356.2125,974.875 356.9,975.9453 Q357.5875,977.0156 358.9313,977.0156 Q359.5563,977.0156 360.15,976.7422 Q360.7438,976.4688 361.3688,975.8906 L361.3688,978.6094 Z "/><text fill="#000000" font-family="sans-serif" font-size="12" font-style="italic" lengthAdjust="spacingAndGlyphs" textLength="118" x="373.6" y="970.1387">&lt;&lt; ProductA_2 &gt;&gt;</text><text fill="#000000" font-family="sans-serif" font-size="12" lengthAdjust="spacingAndGlyphs" textLength="49" x="408.1" y="984.1074">PuClass</text><line style="stroke: #A80036; stroke-width: 1.5;" x1="330" x2="506" y1="991.9375" y2="991.9375"/><line style="stroke: #A80036; stroke-width: 1.5;" x1="330" x2="506" y1="999.9375" y2="999.9375"/><ellipse cx="340" cy="1011.8398" fill="#84BE84" rx="3" ry="3" style="stroke: #038048; stroke-width: 1.0;"/><text fill="#000000" font-family="sans-serif" font-size="11" lengthAdjust="spacingAndGlyphs" textLength="152" x="349" y="1014.1479">createMethod() : PuMethod</text><ellipse cx="340" cy="1024.6445" fill="#84BE84" rx="3" ry="3" style="stroke: #038048; stroke-width: 1.0;"/><text fill="#000000" font-family="sans-serif" font-size="11" lengthAdjust="spacingAndGlyphs" textLength="122" x="349" y="1026.9526">createField() : PuField</text><rect fill="#FEFECE" filter="url(#f1)" height="53.9375" style="stroke: #A80036; stroke-width: 1.5;" width="153" x="542" y="967"/><ellipse cx="557" cy="985.9688" fill="#ADD1B2" rx="11" ry="11" style="stroke: #A80036; stroke-width: 1.0;"/><path d="M559.9688,991.6094 Q559.3906,991.9063 558.75,992.0547 Q558.1094,992.2031 557.4063,992.2031 Q554.9063,992.2031 553.5859,990.5547 Q552.2656,988.9063 552.2656,985.7813 Q552.2656,982.6563 553.5859,981 Q554.9063,979.3438 557.4063,979.3438 Q558.1094,979.3438 558.7578,979.5 Q559.4063,979.6563 559.9688,979.9531 L559.9688,982.6719 Q559.3438,982.0938 558.75,981.8203 Q558.1563,981.5469 557.5313,981.5469 Q556.1875,981.5469 555.5,982.6172 Q554.8125,983.6875 554.8125,985.7813 Q554.8125,987.875 555.5,988.9453 Q556.1875,990.0156 557.5313,990.0156 Q558.1563,990.0156 558.75,989.7422 Q559.3438,989.4688 559.9688,988.8906 L559.9688,991.6094 Z "/><text fill="#000000" font-family="sans-serif" font-size="12" font-style="italic" lengthAdjust="spacingAndGlyphs" textLength="118" x="572.5" y="983.1387">&lt;&lt; ProductA_3 &gt;&gt;</text><text fill="#000000" font-family="sans-serif" font-size="12" lengthAdjust="spacingAndGlyphs" textLength="121" x="571" y="997.1074">PuClassDeclaration</text><line style="stroke: #A80036; stroke-width: 1.5;" x1="543" x2="694" y1="1004.9375" y2="1004.9375"/><line style="stroke: #A80036; stroke-width: 1.5;" x1="543" x2="694" y1="1012.9375" y2="1012.9375"/><rect fill="#FEFECE" filter="url(#f1)" height="53.9375" style="stroke: #A80036; stroke-width: 1.5;" width="146" x="729" y="967"/><ellipse cx="744" cy="985.9688" fill="#ADD1B2" rx="11" ry="11" style="stroke: #A80036; stroke-width: 1.0;"/><path d="M746.9688,991.6094 Q746.3906,991.9063 745.75,992.0547 Q745.1094,992.2031 744.4063,992.2031 Q741.9063,992.2031 740.5859,990.5547 Q739.2656,988.9063 739.2656,985.7813 Q739.2656,982.6563 740.5859,981 Q741.9063,979.3438 744.4063,979.3438 Q745.1094,979.3438 745.7578,979.5 Q746.4063,979.6563 746.9688,979.9531 L746.9688,982.6719 Q746.3438,982.0938 745.75,981.8203 Q745.1563,981.5469 744.5313,981.5469 Q743.1875,981.5469 742.5,982.6172 Q741.8125,983.6875 741.8125,985.7813 Q741.8125,987.875 742.5,988.9453 Q743.1875,990.0156 744.5313,990.0156 Q745.1563,990.0156 745.75,989.7422 Q746.3438,989.4688 746.9688,988.8906 L746.9688,991.6094 Z "/><text fill="#000000" font-family="sans-serif" font-size="12" font-style="italic" lengthAdjust="spacingAndGlyphs" textLength="118" x="756" y="983.1387">&lt;&lt; ProductA_4 &gt;&gt;</text><text fill="#000000" font-family="sans-serif" font-size="12" lengthAdjust="spacingAndGlyphs" textLength="45" x="792.5" y="997.1074">PuField</text><line style="stroke: #A80036; stroke-width: 1.5;" x1="730" x2="874" y1="1004.9375" y2="1004.9375"/><line style="stroke: #A80036; stroke-width: 1.5;" x1="730" x2="874" y1="1012.9375" y2="1012.9375"/><rect fill="#FEFECE" filter="url(#f1)" height="53.9375" style="stroke: #A80036; stroke-width: 1.5;" width="146" x="922" y="967"/><ellipse cx="937" cy="985.9688" fill="#ADD1B2" rx="11" ry="11" style="stroke: #A80036; stroke-width: 1.0;"/><path d="M939.9688,991.6094 Q939.3906,991.9063 938.75,992.0547 Q938.1094,992.2031 937.4063,992.2031 Q934.9063,992.2031 933.5859,990.5547 Q932.2656,988.9063 932.2656,985.7813 Q932.2656,982.6563 933.5859,981 Q934.9063,979.3438 937.4063,979.3438 Q938.1094,979.3438 938.7578,979.5 Q939.4063,979.6563 939.9688,979.9531 L939.9688,982.6719 Q939.3438,982.0938 938.75,981.8203 Q938.1563,981.5469 937.5313,981.5469 Q936.1875,981.5469 935.5,982.6172 Q934.8125,983.6875 934.8125,985.7813 Q934.8125,987.875 935.5,988.9453 Q936.1875,990.0156 937.5313,990.0156 Q938.1563,990.0156 938.75,989.7422 Q939.3438,989.4688 939.9688,988.8906 L939.9688,991.6094 Z "/><text fill="#000000" font-family="sans-serif" font-size="12" font-style="italic" lengthAdjust="spacingAndGlyphs" textLength="118" x="949" y="983.1387">&lt;&lt; ProductA_5 &gt;&gt;</text><text fill="#000000" font-family="sans-serif" font-size="12" lengthAdjust="spacingAndGlyphs" textLength="63" x="976.5" y="997.1074">PuMethod</text><line style="stroke: #A80036; stroke-width: 1.5;" x1="923" x2="1067" y1="1004.9375" y2="1004.9375"/><line style="stroke: #A80036; stroke-width: 1.5;" x1="923" x2="1067" y1="1012.9375" y2="1012.9375"/><rect fill="#FEFECE" filter="url(#f1)" height="53.9375" style="stroke: #A80036; stroke-width: 1.5;" width="146" x="1179" y="967"/><ellipse cx="1194" cy="985.9688" fill="#ADD1B2" rx="11" ry="11" style="stroke: #A80036; stroke-width: 1.0;"/><path d="M1196.9688,991.6094 Q1196.3906,991.9063 1195.75,992.0547 Q1195.1094,992.2031 1194.4063,992.2031 Q1191.9063,992.2031 1190.5859,990.5547 Q1189.2656,988.9063 1189.2656,985.7813 Q1189.2656,982.6563 1190.5859,981 Q1191.9063,979.3438 1194.4063,979.3438 Q1195.1094,979.3438 1195.7578,979.5 Q1196.4063,979.6563 1196.9688,979.9531 L1196.9688,982.6719 Q1196.3438,982.0938 1195.75,981.8203 Q1195.1563,981.5469 1194.5313,981.5469 Q1193.1875,981.5469 1192.5,982.6172 Q1191.8125,983.6875 1191.8125,985.7813 Q1191.8125,987.875 1192.5,988.9453 Q1193.1875,990.0156 1194.5313,990.0156 Q1195.1563,990.0156 1195.75,989.7422 Q1196.3438,989.4688 1196.9688,988.8906 L1196.9688,991.6094 Z "/><text fill="#000000" font-family="sans-serif" font-size="12" font-style="italic" lengthAdjust="spacingAndGlyphs" textLength="118" x="1206" y="983.1387">&lt;&lt; ProductA_6 &gt;&gt;</text><text fill="#000000" font-family="sans-serif" font-size="12" lengthAdjust="spacingAndGlyphs" textLength="40" x="1245" y="997.1074">PuLink</text><line style="stroke: #A80036; stroke-width: 1.5;" x1="1180" x2="1324" y1="1004.9375" y2="1004.9375"/><line style="stroke: #A80036; stroke-width: 1.5;" x1="1180" x2="1324" y1="1012.9375" y2="1012.9375"/><path d="M1089.41,178.81 C1071.1,202.696 1051.95,227.683 1035.72,248.862 " fill="none" style="stroke: #A80036; stroke-width: 1.0;"/><polygon fill="none" points="1097.47,168.295,1090.6448,170.6225,1090.1683,177.8179,1096.9934,175.4903,1097.47,168.295" style="stroke: #A80036; stroke-width: 1.0;"/><path d="M1017.54,366.719 C1023.86,387.891 1029.85,411.7 1033,434 C1040.08,484.17 1040.68,497.919 1033,548 C1028.76,575.64 1019.38,605.636 1010.99,628.847 " fill="none" style="stroke: #A80036; stroke-width: 1.0;"/><polygon fill="none" points="1013.7,354.254,1011.6444,361.1659,1017.2339,365.7218,1019.2896,358.8099,1013.7,354.254" style="stroke: #A80036; stroke-width: 1.0;"/><text fill="#000000" font-family="sans-serif" font-size="13" lengthAdjust="spacingAndGlyphs" textLength="8" x="1009.4341" y="374.1504">1</text><text fill="#000000" font-family="sans-serif" font-size="13" lengthAdjust="spacingAndGlyphs" textLength="8" x="1017.321" y="617.9195">n</text><path d="M967.259,372.852 C957.834,396.925 947.552,423.185 939.08,444.822 " fill="none" style="stroke: #A80036; stroke-width: 1.0;"/><polygon fill="none" points="960.773,370.217,974.583,354.145,973.81,375.321,960.773,370.217" style="stroke: #A80036; stroke-width: 1.0;"/><path d="M940.249,537.303 C951.376,564.067 965.31,597.583 976.336,624.106 " fill="none" style="stroke: #A80036; stroke-width: 1.0; stroke-dasharray: 7.0,7.0;"/><polygon fill="#A80036" points="978.36,628.974,978.6003,619.1281,976.4414,624.3568,971.2127,622.1979,978.36,628.974" style="stroke: #A80036; stroke-width: 1.0;"/><text fill="#000000" font-family="sans-serif" font-size="13" lengthAdjust="spacingAndGlyphs" textLength="18" x="967.6106" y="617.8705">ins</text><path d="M946.898,616.647 C928.59,603.434 907.218,590.36 886,581 C776.024,532.488 636.44,508.853 552.292,498.657 " fill="none" style="stroke: #A80036; stroke-width: 1.0; stroke-dasharray: 7.0,7.0;"/><polygon fill="none" points="951.415,611.288,963.081,628.977,942.93,622.424,951.415,611.288" style="stroke: #A80036; stroke-width: 1.0;"/><path d="M565.314,504.193 C642.659,516.505 757.524,539.767 851,581 C878.856,593.288 906.976,611.978 931.131,628.977 " fill="none" style="stroke: #A80036; stroke-width: 1.0;"/><polygon fill="none" points="552.279,502.164,557.5927,507.0388,564.1363,504.0088,558.8226,499.1339,552.279,502.164" style="stroke: #A80036; stroke-width: 1.0;"/><text fill="#000000" font-family="sans-serif" font-size="13" lengthAdjust="spacingAndGlyphs" textLength="8" x="560.0368" y="512.5515">1</text><text fill="#000000" font-family="sans-serif" font-size="13" lengthAdjust="spacingAndGlyphs" textLength="8" x="912.3665" y="617.8211">n</text><path d="M385.635,514.135 C345.417,527.711 300.497,548.856 269,581 C205.883,645.415 179.63,752.994 169.958,807.361 " fill="none" style="stroke: #A80036; stroke-width: 1.0;"/><polygon fill="none" points="383.741,507.392,404.921,508.063,387.946,520.746,383.741,507.392" style="stroke: #A80036; stroke-width: 1.0;"/><path d="M385.702,516.351 C353.122,529.821 319.98,550.289 301,581 C265.017,639.222 272.864,672.606 301,735 C312.827,761.227 334.705,783.573 356.574,800.89 " fill="none" style="stroke: #A80036; stroke-width: 1.0;"/><polygon fill="none" points="383.524,509.691,404.708,509.204,388.452,522.796,383.524,509.691" style="stroke: #A80036; stroke-width: 1.0;"/><path d="M907.166,717.138 C894.202,723.51 880.874,729.671 868,735 C795.658,764.943 771.115,755.25 700,788 C687.995,793.529 675.626,800.446 664.168,807.44 " fill="none" style="stroke: #A80036; stroke-width: 1.0;"/><polygon fill="none" points="904.16,710.814,925.168,708.051,910.468,723.312,904.16,710.814" style="stroke: #A80036; stroke-width: 1.0;"/><path d="M995,728.214 C995,754.659 995,784.858 995,807.348 " fill="none" style="stroke: #A80036; stroke-width: 1.0;"/><polygon fill="none" points="988,728.029,995,708.029,1002,728.029,988,728.029" style="stroke: #A80036; stroke-width: 1.0;"/><path d="M929.45,720.482 C890.361,751.182 842.313,788.918 810.509,813.897 " fill="none" style="stroke: #A80036; stroke-width: 1.0;"/><polygon fill="none" points="925.253,714.878,945.306,708.029,933.9,725.888,925.253,714.878" style="stroke: #A80036; stroke-width: 1.0;"/><path d="M1070.22,719.341 C1102.67,741.061 1140.64,766.468 1173.45,788.43 " fill="none" style="stroke: #A80036; stroke-width: 1.0;"/><polygon fill="none" points="1066.05,724.971,1053.32,708.029,1073.83,713.336,1066.05,724.971" style="stroke: #A80036; stroke-width: 1.0;"/><path d="M159.729,894.766 C157.593,916.549 155.192,941.0379 153.31,960.2378 " fill="none" style="stroke: #A80036; stroke-width: 1.0;"/><polygon fill="none" points="152.79,893.798,161.708,874.576,166.723,895.164,152.79,893.798" style="stroke: #A80036; stroke-width: 1.0;"/><path d="M419.815,901.429 C419.47,919.017 419.102,937.792 418.788,953.8042 " fill="none" style="stroke: #A80036; stroke-width: 1.0;"/><polygon fill="none" points="412.821,901.058,420.212,881.199,426.818,901.332,412.821,901.058" style="stroke: #A80036; stroke-width: 1.0;"/><path d="M616.054,894.772 C616.53,919.053 617.072,946.6949 617.463,966.626 " fill="none" style="stroke: #A80036; stroke-width: 1.0;"/><polygon fill="none" points="609.052,894.71,615.658,874.576,623.049,894.435,609.052,894.71" style="stroke: #A80036; stroke-width: 1.0;"/><path d="M783.941,887.729 C788.338,913.603 793.649,944.8605 797.37,966.7541 " fill="none" style="stroke: #A80036; stroke-width: 1.0;"/><polygon fill="none" points="777.038,888.891,780.588,868.001,790.84,886.546,777.038,888.891" style="stroke: #A80036; stroke-width: 1.0;"/><path d="M995,894.772 C995,919.053 995,946.6949 995,966.626 " fill="none" style="stroke: #A80036; stroke-width: 1.0;"/><polygon fill="none" points="988,894.577,995,874.576,1002,894.576,988,894.577" style="stroke: #A80036; stroke-width: 1.0;"/><path d="M1252,913.77 C1252,932.617 1252,951.7679 1252,966.6301 " fill="none" style="stroke: #A80036; stroke-width: 1.0;"/><polygon fill="none" points="1245,913.654,1252,893.654,1259,913.654,1245,913.654" style="stroke: #A80036; stroke-width: 1.0;"/><path d="M352.343,698.698 C340.478,710.466 326.453,723.758 313,735 C285.717,757.799 253.831,781.031 226.658,799.912 " fill="none" style="stroke: #A80036; stroke-width: 1.0;"/><polygon fill="none" points="215.718,807.456,222.9282,807.3426,225.5967,800.6434,218.3865,800.7568,215.718,807.456" style="stroke: #A80036; stroke-width: 1.0;"/><path d="M527.534,711.209 C507.751,735.31 483.009,765.453 462.35,790.623 " fill="none" style="stroke: #A80036; stroke-width: 1.0;"/><polygon fill="none" points="454.067,800.714,460.9656,798.6143,461.6808,791.4387,454.7821,793.5384,454.067,800.714" style="stroke: #A80036; stroke-width: 1.0;"/><path d="M575.988,711.209 C583.631,736.637 593.295,768.79 601.093,794.731 " fill="none" style="stroke: #A80036; stroke-width: 1.0;"/><polygon fill="none" points="604.866,807.285,606.9697,800.3876,601.412,795.7928,599.3083,802.6902,604.866,807.285" style="stroke: #A80036; stroke-width: 1.0;"/><path d="M718.316,692.055 C729.284,720.375 747.657,767.817 760.719,801.544 " fill="none" style="stroke: #A80036; stroke-width: 1.0;"/><polygon fill="none" points="765.439,813.731,767.0025,806.6914,761.1058,802.5407,759.5423,809.5802,765.439,813.731" style="stroke: #A80036; stroke-width: 1.0;"/><path d="M825.687,692.063 C833.425,705.506 844.1,722.096 856,735 C878.133,759.001 906.211,781.549 931.329,799.627 " fill="none" style="stroke: #A80036; stroke-width: 1.0;"/><polygon fill="none" points="942.256,807.349,939.6645,800.6197,932.456,800.4236,935.0476,807.153,942.256,807.349" style="stroke: #A80036; stroke-width: 1.0;"/><polygon fill="#DDDDDD" points="1281,1052,1281,1110.8906,1565,1110.8906,1565,1052,1281,1052" style="stroke: #000000; stroke-width: 1.0;"/><text fill="#000000" font-family="sans-serif" font-size="14" lengthAdjust="spacingAndGlyphs" textLength="262" x="1287" y="1069.9951">ProductA_x: PlantUML model products</text><text fill="#000000" font-family="sans-serif" font-size="14" lengthAdjust="spacingAndGlyphs" textLength="272" x="1287" y="1086.292">ProductB_x: Other UML model products</text><text fill="#000000" font-family="sans-serif" font-size="14" lengthAdjust="spacingAndGlyphs" textLength="213" x="1287" y="1102.5889">ProductX_1: Package products</text></g></svg>