<?xml version="1.0" encoding="UTF-8" standalone="yes"?><svg xmlns="http://www.w3.org/2000/svg" xmlns:xlink="http://www.w3.org/1999/xlink" height="764pt" style="width:1360px;height:764px;" version="1.1" viewBox="0 0 1360 764" width="1360pt"><defs><filter height="300%" id="f1" width="300%" x="-1" y="-1"><feGaussianBlur result="blurOut" stdDeviation="2.0"/><feColorMatrix in="blurOut" result="blurOut2" type="matrix" values="0 0 0 0 0 0 0 0 0 0 0 0 0 0 0 0 0 0 .4 0"/><feOffset dx="4.0" dy="4.0" in="blurOut2" result="blurOut3"/><feBlend in="SourceGraphic" in2="blurOut3" mode="normal"/></filter></defs><g><polygon fill="#FFFFFF" filter="url(#f1)" points="332,328,407,328,414,350.2969,904,350.2969,904,466,332,466,332,328" style="stroke: #000000; stroke-width: 2.0;"/><line style="stroke: #000000; stroke-width: 2.0;" x1="332" x2="414" y1="350.2969" y2="350.2969"/><text fill="#000000" font-family="sans-serif" font-size="14" font-weight="bold" lengthAdjust="spacingAndGlyphs" textLength="69" x="335" y="343.9951">java.lang</text><rect fill="#FEFECE" filter="url(#f1)" height="60.8047" style="stroke: #A80036; stroke-width: 1.5;" width="131" x="348.75" y="376.5"/><ellipse cx="384" cy="392.5" fill="#ADD1B2" rx="11" ry="11" style="stroke: #A80036; stroke-width: 1.0;"/><path d="M386.3438,388.1719 L386.5156,388.25 C386.7344,387.9375 386.9375,387.8438 387.2344,387.8438 C387.5313,387.8438 387.8125,387.9844 387.9688,388.25 C388.0625,388.4063 388.0781,388.5313 388.0781,388.9688 L388.0781,390.3906 C388.0781,390.8125 388.0469,391 387.9375,391.1563 C387.7656,391.375 387.5,391.5156 387.2344,391.5156 C387.0156,391.5156 386.7813,391.4063 386.6406,391.2656 C386.5,391.1406 386.4688,391.0156 386.4063,390.6094 C386.3125,390.2031 386.1406,389.9844 385.6563,389.7031 C385.1875,389.4531 384.5781,389.2969 384,389.2969 C382.2656,389.2969 381.0156,390.6094 381.0156,392.3906 L381.0156,393.4844 C381.0156,395.1875 382.3125,396.2813 384.3594,396.2813 C385.125,396.2813 385.8125,396.1563 386.2344,395.8906 C386.4219,395.7969 386.4219,395.7969 386.875,395.3125 C387.0625,395.125 387.2656,395.0469 387.4844,395.0469 C387.9531,395.0469 388.3438,395.4375 388.3438,395.8906 C388.3438,396.2813 388.0156,396.7344 387.4375,397.1406 C386.6875,397.6875 385.5313,397.9844 384.3125,397.9844 C381.4219,397.9844 379.3125,396.0938 379.3125,393.5156 L379.3125,392.3906 C379.3125,389.6719 381.3125,387.5938 383.9375,387.5938 C384.8125,387.5938 385.4063,387.7344 386.3438,388.1719 Z "/><text fill="#000000" font-family="sans-serif" font-size="12" lengthAdjust="spacingAndGlyphs" textLength="54" x="402.5" y="396.6543">Package</text><line style="stroke: #A80036; stroke-width: 1.5;" x1="349.75" x2="478.75" y1="408.5" y2="408.5"/><line style="stroke: #A80036; stroke-width: 1.5;" x1="349.75" x2="478.75" y1="416.5" y2="416.5"/><ellipse cx="359.75" cy="428.4023" fill="#84BE84" rx="3" ry="3" style="stroke: #038048; stroke-width: 1.0;"/><text fill="#000000" font-family="sans-serif" font-size="11" lengthAdjust="spacingAndGlyphs" textLength="105" x="368.75" y="430.7104">getName() : String</text><rect fill="#FEFECE" filter="url(#f1)" height="86.4141" style="stroke: #A80036; stroke-width: 1.5;" width="162" x="515" y="364"/><ellipse cx="575.25" cy="380" fill="#ADD1B2" rx="11" ry="11" style="stroke: #A80036; stroke-width: 1.0;"/><path d="M577.5938,375.6719 L577.7656,375.75 C577.9844,375.4375 578.1875,375.3438 578.4844,375.3438 C578.7813,375.3438 579.0625,375.4844 579.2188,375.75 C579.3125,375.9063 579.3281,376.0313 579.3281,376.4688 L579.3281,377.8906 C579.3281,378.3125 579.2969,378.5 579.1875,378.6563 C579.0156,378.875 578.75,379.0156 578.4844,379.0156 C578.2656,379.0156 578.0313,378.9063 577.8906,378.7656 C577.75,378.6406 577.7188,378.5156 577.6563,378.1094 C577.5625,377.7031 577.3906,377.4844 576.9063,377.2031 C576.4375,376.9531 575.8281,376.7969 575.25,376.7969 C573.5156,376.7969 572.2656,378.1094 572.2656,379.8906 L572.2656,380.9844 C572.2656,382.6875 573.5625,383.7813 575.6094,383.7813 C576.375,383.7813 577.0625,383.6563 577.4844,383.3906 C577.6719,383.2969 577.6719,383.2969 578.125,382.8125 C578.3125,382.625 578.5156,382.5469 578.7344,382.5469 C579.2031,382.5469 579.5938,382.9375 579.5938,383.3906 C579.5938,383.7813 579.2656,384.2344 578.6875,384.6406 C577.9375,385.1875 576.7813,385.4844 575.5625,385.4844 C572.6719,385.4844 570.5625,383.5938 570.5625,381.0156 L570.5625,379.8906 C570.5625,377.1719 572.5625,375.0938 575.1875,375.0938 C576.0625,375.0938 576.6563,375.2344 577.5938,375.6719 Z "/><text fill="#000000" font-family="sans-serif" font-size="12" lengthAdjust="spacingAndGlyphs" textLength="33" x="595.75" y="384.1543">Class</text><line style="stroke: #A80036; stroke-width: 1.5;" x1="516" x2="676" y1="396" y2="396"/><line style="stroke: #A80036; stroke-width: 1.5;" x1="516" x2="676" y1="404" y2="404"/><ellipse cx="526" cy="415.9023" fill="#84BE84" rx="3" ry="3" style="stroke: #038048; stroke-width: 1.0;"/><text fill="#000000" font-family="sans-serif" font-size="11" lengthAdjust="spacingAndGlyphs" textLength="125" x="535" y="418.2104">isInterface() : boolean</text><ellipse cx="526" cy="428.707" fill="#84BE84" rx="3" ry="3" style="stroke: #038048; stroke-width: 1.0;"/><text fill="#000000" font-family="sans-serif" font-size="11" lengthAdjust="spacingAndGlyphs" textLength="107" x="535" y="431.0151">isEnum() : boolean</text><ellipse cx="526" cy="441.5117" fill="#84BE84" rx="3" ry="3" style="stroke: #038048; stroke-width: 1.0;"/><text fill="#000000" font-family="sans-serif" font-size="11" lengthAdjust="spacingAndGlyphs" textLength="136" x="535" y="443.8198">getSuperClass() : Class</text><rect fill="#FEFECE" filter="url(#f1)" height="48" style="stroke: #A80036; stroke-width: 1.5;" width="61" x="712.75" y="383"/><ellipse cx="727.75" cy="399" fill="#ADD1B2" rx="11" ry="11" style="stroke: #A80036; stroke-width: 1.0;"/><path d="M730.0938,394.6719 L730.2656,394.75 C730.4844,394.4375 730.6875,394.3438 730.9844,394.3438 C731.2813,394.3438 731.5625,394.4844 731.7188,394.75 C731.8125,394.9063 731.8281,395.0313 731.8281,395.4688 L731.8281,396.8906 C731.8281,397.3125 731.7969,397.5 731.6875,397.6563 C731.5156,397.875 731.25,398.0156 730.9844,398.0156 C730.7656,398.0156 730.5313,397.9063 730.3906,397.7656 C730.25,397.6406 730.2188,397.5156 730.1563,397.1094 C730.0625,396.7031 729.8906,396.4844 729.4063,396.2031 C728.9375,395.9531 728.3281,395.7969 727.75,395.7969 C726.0156,395.7969 724.7656,397.1094 724.7656,398.8906 L724.7656,399.9844 C724.7656,401.6875 726.0625,402.7813 728.1094,402.7813 C728.875,402.7813 729.5625,402.6563 729.9844,402.3906 C730.1719,402.2969 730.1719,402.2969 730.625,401.8125 C730.8125,401.625 731.0156,401.5469 731.2344,401.5469 C731.7031,401.5469 732.0938,401.9375 732.0938,402.3906 C732.0938,402.7813 731.7656,403.2344 731.1875,403.6406 C730.4375,404.1875 729.2813,404.4844 728.0625,404.4844 C725.1719,404.4844 723.0625,402.5938 723.0625,400.0156 L723.0625,398.8906 C723.0625,396.1719 725.0625,394.0938 727.6875,394.0938 C728.5625,394.0938 729.1563,394.2344 730.0938,394.6719 Z "/><text fill="#000000" font-family="sans-serif" font-size="12" lengthAdjust="spacingAndGlyphs" textLength="29" x="741.75" y="403.1543">Field</text><line style="stroke: #A80036; stroke-width: 1.5;" x1="713.75" x2="772.75" y1="415" y2="415"/><line style="stroke: #A80036; stroke-width: 1.5;" x1="713.75" x2="772.75" y1="423" y2="423"/><rect fill="#FEFECE" filter="url(#f1)" height="48" style="stroke: #A80036; stroke-width: 1.5;" width="79" x="808.75" y="383"/><ellipse cx="823.75" cy="399" fill="#ADD1B2" rx="11" ry="11" style="stroke: #A80036; stroke-width: 1.0;"/><path d="M826.0938,394.6719 L826.2656,394.75 C826.4844,394.4375 826.6875,394.3438 826.9844,394.3438 C827.2813,394.3438 827.5625,394.4844 827.7188,394.75 C827.8125,394.9063 827.8281,395.0313 827.8281,395.4688 L827.8281,396.8906 C827.8281,397.3125 827.7969,397.5 827.6875,397.6563 C827.5156,397.875 827.25,398.0156 826.9844,398.0156 C826.7656,398.0156 826.5313,397.9063 826.3906,397.7656 C826.25,397.6406 826.2188,397.5156 826.1563,397.1094 C826.0625,396.7031 825.8906,396.4844 825.4063,396.2031 C824.9375,395.9531 824.3281,395.7969 823.75,395.7969 C822.0156,395.7969 820.7656,397.1094 820.7656,398.8906 L820.7656,399.9844 C820.7656,401.6875 822.0625,402.7813 824.1094,402.7813 C824.875,402.7813 825.5625,402.6563 825.9844,402.3906 C826.1719,402.2969 826.1719,402.2969 826.625,401.8125 C826.8125,401.625 827.0156,401.5469 827.2344,401.5469 C827.7031,401.5469 828.0938,401.9375 828.0938,402.3906 C828.0938,402.7813 827.7656,403.2344 827.1875,403.6406 C826.4375,404.1875 825.2813,404.4844 824.0625,404.4844 C821.1719,404.4844 819.0625,402.5938 819.0625,400.0156 L819.0625,398.8906 C819.0625,396.1719 821.0625,394.0938 823.6875,394.0938 C824.5625,394.0938 825.1563,394.2344 826.0938,394.6719 Z "/><text fill="#000000" font-family="sans-serif" font-size="12" lengthAdjust="spacingAndGlyphs" textLength="47" x="837.75" y="403.1543">Method</text><line style="stroke: #A80036; stroke-width: 1.5;" x1="809.75" x2="886.75" y1="415" y2="415"/><line style="stroke: #A80036; stroke-width: 1.5;" x1="809.75" x2="886.75" y1="423" y2="423"/><rect fill="#FEFECE" filter="url(#f1)" height="60.8047" style="stroke: #A80036; stroke-width: 1.5;" width="209" x="1120.75" y="20.5"/><ellipse cx="1200.5" cy="36.5" fill="#ADD1B2" rx="11" ry="11" style="stroke: #A80036; stroke-width: 1.0;"/><path d="M1202.8438,32.1719 L1203.0156,32.25 C1203.2344,31.9375 1203.4375,31.8438 1203.7344,31.8438 C1204.0313,31.8438 1204.3125,31.9844 1204.4688,32.25 C1204.5625,32.4063 1204.5781,32.5313 1204.5781,32.9688 L1204.5781,34.3906 C1204.5781,34.8125 1204.5469,35 1204.4375,35.1563 C1204.2656,35.375 1204,35.5156 1203.7344,35.5156 C1203.5156,35.5156 1203.2813,35.4063 1203.1406,35.2656 C1203,35.1406 1202.9688,35.0156 1202.9063,34.6094 C1202.8125,34.2031 1202.6406,33.9844 1202.1563,33.7031 C1201.6875,33.4531 1201.0781,33.2969 1200.5,33.2969 C1198.7656,33.2969 1197.5156,34.6094 1197.5156,36.3906 L1197.5156,37.4844 C1197.5156,39.1875 1198.8125,40.2813 1200.8594,40.2813 C1201.625,40.2813 1202.3125,40.1563 1202.7344,39.8906 C1202.9219,39.7969 1202.9219,39.7969 1203.375,39.3125 C1203.5625,39.125 1203.7656,39.0469 1203.9844,39.0469 C1204.4531,39.0469 1204.8438,39.4375 1204.8438,39.8906 C1204.8438,40.2813 1204.5156,40.7344 1203.9375,41.1406 C1203.1875,41.6875 1202.0313,41.9844 1200.8125,41.9844 C1197.9219,41.9844 1195.8125,40.0938 1195.8125,37.5156 L1195.8125,36.3906 C1195.8125,33.6719 1197.8125,31.5938 1200.4375,31.5938 C1201.3125,31.5938 1201.9063,31.7344 1202.8438,32.1719 Z "/><text fill="#000000" font-family="sans-serif" font-size="12" lengthAdjust="spacingAndGlyphs" textLength="41" x="1221" y="40.6543">Helper</text><line style="stroke: #A80036; stroke-width: 1.5;" x1="1121.75" x2="1328.75" y1="52.5" y2="52.5"/><line style="stroke: #A80036; stroke-width: 1.5;" x1="1121.75" x2="1328.75" y1="60.5" y2="60.5"/><ellipse cx="1131.75" cy="72.4023" fill="#84BE84" rx="3" ry="3" style="stroke: #038048; stroke-width: 1.0;"/><text fill="#000000" font-family="sans-serif" font-size="11" lengthAdjust="spacingAndGlyphs" text-decoration="underline" textLength="183" x="1140.75" y="74.7104">ModifierToPlantUML(int modifier)</text><line style="stroke: #000000; stroke-width: 1.0;" x1="1140.75" x2="1323.75" y1="76.7104" y2="76.7104"/><rect fill="#FEFECE" filter="url(#f1)" height="150.4375" style="stroke: #A80036; stroke-width: 1.5;" width="255" x="998.75" y="154"/><ellipse cx="1077.5" cy="170" fill="#ADD1B2" rx="11" ry="11" style="stroke: #A80036; stroke-width: 1.0;"/><path d="M1079.8438,165.6719 L1080.0156,165.75 C1080.2344,165.4375 1080.4375,165.3438 1080.7344,165.3438 C1081.0313,165.3438 1081.3125,165.4844 1081.4688,165.75 C1081.5625,165.9063 1081.5781,166.0313 1081.5781,166.4688 L1081.5781,167.8906 C1081.5781,168.3125 1081.5469,168.5 1081.4375,168.6563 C1081.2656,168.875 1081,169.0156 1080.7344,169.0156 C1080.5156,169.0156 1080.2813,168.9063 1080.1406,168.7656 C1080,168.6406 1079.9688,168.5156 1079.9063,168.1094 C1079.8125,167.7031 1079.6406,167.4844 1079.1563,167.2031 C1078.6875,166.9531 1078.0781,166.7969 1077.5,166.7969 C1075.7656,166.7969 1074.5156,168.1094 1074.5156,169.8906 L1074.5156,170.9844 C1074.5156,172.6875 1075.8125,173.7813 1077.8594,173.7813 C1078.625,173.7813 1079.3125,173.6563 1079.7344,173.3906 C1079.9219,173.2969 1079.9219,173.2969 1080.375,172.8125 C1080.5625,172.625 1080.7656,172.5469 1080.9844,172.5469 C1081.4531,172.5469 1081.8438,172.9375 1081.8438,173.3906 C1081.8438,173.7813 1081.5156,174.2344 1080.9375,174.6406 C1080.1875,175.1875 1079.0313,175.4844 1077.8125,175.4844 C1074.9219,175.4844 1072.8125,173.5938 1072.8125,171.0156 L1072.8125,169.8906 C1072.8125,167.1719 1074.8125,165.0938 1077.4375,165.0938 C1078.3125,165.0938 1078.9063,165.2344 1079.8438,165.6719 Z "/><text fill="#000000" font-family="sans-serif" font-size="12" lengthAdjust="spacingAndGlyphs" textLength="89" x="1098" y="174.1543">UMLGenerator</text><line style="stroke: #A80036; stroke-width: 1.5;" x1="999.75" x2="1252.75" y1="186" y2="186"/><rect fill="none" height="6" style="stroke: #C82930; stroke-width: 1.0;" width="6" x="1006.75" y="194.9023"/><text fill="#000000" font-family="sans-serif" font-size="11" lengthAdjust="spacingAndGlyphs" textLength="137" x="1018.75" y="200.2104">builder : ElementBuilder</text><rect fill="none" height="6" style="stroke: #C82930; stroke-width: 1.0;" width="6" x="1006.75" y="207.707"/><text fill="#000000" font-family="sans-serif" font-size="11" lengthAdjust="spacingAndGlyphs" textLength="111" x="1018.75" y="213.0151">Element[] elements</text><rect fill="none" height="6" style="stroke: #C82930; stroke-width: 1.0;" width="6" x="1006.75" y="220.5117"/><text fill="#000000" font-family="sans-serif" font-size="11" lengthAdjust="spacingAndGlyphs" textLength="200" x="1018.75" y="225.8198">Set&lt;Package&gt; requestedPackages</text><rect fill="none" height="6" style="stroke: #C82930; stroke-width: 1.0;" width="6" x="1006.75" y="233.3164"/><text fill="#000000" font-family="sans-serif" font-size="11" lengthAdjust="spacingAndGlyphs" textLength="229" x="1018.75" y="238.6245">Map&lt;Class, Integer&gt; requestedClasses</text><line style="stroke: #A80036; stroke-width: 1.5;" x1="999.75" x2="1252.75" y1="245.2188" y2="245.2188"/><ellipse cx="1009.75" cy="257.1211" fill="#84BE84" rx="3" ry="3" style="stroke: #038048; stroke-width: 1.0;"/><text fill="#000000" font-family="sans-serif" font-size="11" lengthAdjust="spacingAndGlyphs" textLength="153" x="1018.75" y="259.4292">addRequestedClass(Class)</text><ellipse cx="1009.75" cy="269.9258" fill="#84BE84" rx="3" ry="3" style="stroke: #038048; stroke-width: 1.0;"/><text fill="#000000" font-family="sans-serif" font-size="11" lengthAdjust="spacingAndGlyphs" textLength="183" x="1018.75" y="272.2339">addRequestedPackage(Package)</text><ellipse cx="1009.75" cy="282.7305" fill="#84BE84" rx="3" ry="3" style="stroke: #038048; stroke-width: 1.0;"/><text fill="#000000" font-family="sans-serif" font-size="11" lengthAdjust="spacingAndGlyphs" textLength="143" x="1018.75" y="285.0386">generateClassDiagram();</text><ellipse cx="1009.75" cy="295.5352" fill="#84BE84" rx="3" ry="3" style="stroke: #038048; stroke-width: 1.0;"/><text fill="#000000" font-family="sans-serif" font-size="11" lengthAdjust="spacingAndGlyphs" textLength="34" x="1018.75" y="297.8433">print()</text><rect fill="#FEFECE" filter="url(#f1)" height="86.4141" style="stroke: #A80036; stroke-width: 1.5;" width="176" x="909" y="8"/><ellipse cx="946.5" cy="24" fill="#A9DCDF" rx="11" ry="11" style="stroke: #A80036; stroke-width: 1.0;"/><path d="M948.0781,25.8125 L944.0313,25.8125 L943.6406,26.7969 L944.0313,26.7969 C944.4844,26.7969 944.625,26.8281 944.7969,26.9531 C945.0156,27.125 945.1406,27.375 945.1406,27.6563 C945.1406,27.9375 945,28.2344 944.7344,28.375 C944.6094,28.4688 944.3906,28.5 944.0313,28.5 L941.7656,28.5 C941.0156,28.5 940.6406,28.2188 940.6406,27.6563 C940.6406,27.3594 940.7969,27.0781 941.0469,26.9219 C941.2031,26.8125 941.3594,26.7969 941.7813,26.7969 L944.4219,20.2813 L943.3438,20.2813 C942.9063,20.2813 942.7344,20.25 942.5625,20.1406 C942.3438,19.9688 942.2031,19.7188 942.2031,19.4375 C942.2031,19.1563 942.3594,18.875 942.6094,18.7031 C942.7656,18.6094 942.8906,18.5938 943.3438,18.5938 L947.0156,18.5938 L950.4063,26.7969 C950.875,26.7969 951.0313,26.8281 951.2031,26.9688 C951.4219,27.125 951.5625,27.375 951.5625,27.6563 C951.5625,27.9375 951.4063,28.2344 951.1563,28.375 C951.0156,28.4688 950.7969,28.5 950.4375,28.5 L948.0781,28.5 C947.6563,28.5 947.4531,28.4531 947.3125,28.3281 C947.0938,28.1719 946.9531,27.9219 946.9531,27.6563 C946.9531,27.3594 947.1094,27.0781 947.3594,26.9219 C947.5156,26.8125 947.625,26.7969 948.0781,26.7969 L948.4688,26.7969 Z M947.375,24.1094 L946.0469,20.8438 L944.7031,24.1094 Z "/><text fill="#000000" font-family="sans-serif" font-size="12" font-style="italic" lengthAdjust="spacingAndGlyphs" textLength="94" x="965.5" y="28.1543">ElementBuilder</text><line style="stroke: #A80036; stroke-width: 1.5;" x1="910" x2="1084" y1="40" y2="40"/><line style="stroke: #A80036; stroke-width: 1.5;" x1="910" x2="1084" y1="48" y2="48"/><ellipse cx="920" cy="59.9023" fill="#84BE84" rx="3" ry="3" style="stroke: #038048; stroke-width: 1.0;"/><text fill="#000000" font-family="sans-serif" font-size="11" font-style="italic" lengthAdjust="spacingAndGlyphs" textLength="116" x="929" y="62.2104">createClass() : Class</text><ellipse cx="920" cy="72.707" fill="#84BE84" rx="3" ry="3" style="stroke: #038048; stroke-width: 1.0;"/><text fill="#000000" font-family="sans-serif" font-size="11" font-style="italic" lengthAdjust="spacingAndGlyphs" textLength="150" x="929" y="75.0151">createPackage() : Package</text><ellipse cx="920" cy="85.5117" fill="#84BE84" rx="3" ry="3" style="stroke: #038048; stroke-width: 1.0;"/><text fill="#000000" font-family="sans-serif" font-size="11" font-style="italic" lengthAdjust="spacingAndGlyphs" textLength="100" x="929" y="87.8198">createLink() : Link</text><rect fill="#FEFECE" filter="url(#f1)" height="86.4141" style="stroke: #A80036; stroke-width: 1.5;" width="190" x="773" y="186"/><ellipse cx="791.15" cy="202" fill="#ADD1B2" rx="11" ry="11" style="stroke: #A80036; stroke-width: 1.0;"/><path d="M793.4938,197.6719 L793.6656,197.75 C793.8844,197.4375 794.0875,197.3438 794.3844,197.3438 C794.6813,197.3438 794.9625,197.4844 795.1188,197.75 C795.2125,197.9063 795.2281,198.0313 795.2281,198.4688 L795.2281,199.8906 C795.2281,200.3125 795.1969,200.5 795.0875,200.6563 C794.9156,200.875 794.65,201.0156 794.3844,201.0156 C794.1656,201.0156 793.9313,200.9063 793.7906,200.7656 C793.65,200.6406 793.6188,200.5156 793.5563,200.1094 C793.4625,199.7031 793.2906,199.4844 792.8063,199.2031 C792.3375,198.9531 791.7281,198.7969 791.15,198.7969 C789.4156,198.7969 788.1656,200.1094 788.1656,201.8906 L788.1656,202.9844 C788.1656,204.6875 789.4625,205.7813 791.5094,205.7813 C792.275,205.7813 792.9625,205.6563 793.3844,205.3906 C793.5719,205.2969 793.5719,205.2969 794.025,204.8125 C794.2125,204.625 794.4156,204.5469 794.6344,204.5469 C795.1031,204.5469 795.4938,204.9375 795.4938,205.3906 C795.4938,205.7813 795.1656,206.2344 794.5875,206.6406 C793.8375,207.1875 792.6813,207.4844 791.4625,207.4844 C788.5719,207.4844 786.4625,205.5938 786.4625,203.0156 L786.4625,201.8906 C786.4625,199.1719 788.4625,197.0938 791.0875,197.0938 C791.9625,197.0938 792.5563,197.2344 793.4938,197.6719 Z "/><text fill="#000000" font-family="sans-serif" font-size="12" lengthAdjust="spacingAndGlyphs" textLength="151" x="805.85" y="206.1543">PlantUMLElementBuilder</text><line style="stroke: #A80036; stroke-width: 1.5;" x1="774" x2="962" y1="218" y2="218"/><line style="stroke: #A80036; stroke-width: 1.5;" x1="774" x2="962" y1="226" y2="226"/><ellipse cx="784" cy="237.9023" fill="#84BE84" rx="3" ry="3" style="stroke: #038048; stroke-width: 1.0;"/><text fill="#000000" font-family="sans-serif" font-size="11" lengthAdjust="spacingAndGlyphs" textLength="134" x="793" y="240.2104">createClass() : PuClass</text><ellipse cx="784" cy="250.707" fill="#84BE84" rx="3" ry="3" style="stroke: #038048; stroke-width: 1.0;"/><text fill="#000000" font-family="sans-serif" font-size="11" lengthAdjust="spacingAndGlyphs" textLength="164" x="793" y="253.0151">createPackage() : PuPackage</text><ellipse cx="784" cy="263.5117" fill="#84BE84" rx="3" ry="3" style="stroke: #038048; stroke-width: 1.0;"/><text fill="#000000" font-family="sans-serif" font-size="11" lengthAdjust="spacingAndGlyphs" textLength="114" x="793" y="265.8198">createLink() : PuLink</text><rect fill="#FEFECE" filter="url(#f1)" height="79.5469" style="stroke: #A80036; stroke-width: 1.5;" width="148" x="923" y="367"/><ellipse cx="938" cy="385.9688" fill="#B4A7E5" rx="11" ry="11" style="stroke: #A80036; stroke-width: 1.0;"/><path d="M938.9531,382.75 L938.9531,389.2656 L940.6719,389.2656 C941.125,389.2656 941.2656,389.2969 941.4375,389.4219 C941.6719,389.5938 941.7813,389.8438 941.7813,390.125 C941.7813,390.6875 941.4219,390.9688 940.6719,390.9688 L935.5313,390.9688 C935.125,390.9688 934.9219,390.9219 934.7656,390.7969 C934.5469,390.6406 934.4063,390.375 934.4063,390.125 C934.4063,389.8281 934.5625,389.5469 934.8125,389.3906 C934.9688,389.2813 935.0938,389.2656 935.5313,389.2656 L937.25,389.2656 L937.25,382.75 L935.5313,382.75 C935.1094,382.75 934.9219,382.7188 934.7656,382.6094 C934.5469,382.4375 934.4063,382.1875 934.4063,381.9063 C934.4063,381.625 934.5625,381.3281 934.8125,381.1719 C934.9688,381.0781 935.0938,381.0625 935.5313,381.0625 L940.6719,381.0625 C941.125,381.0625 941.2656,381.0938 941.4375,381.2031 C941.6719,381.375 941.7813,381.6406 941.7813,381.9063 C941.7813,382.2031 941.6406,382.4844 941.375,382.6406 C941.25,382.7188 941.0625,382.75 940.6719,382.75 Z "/><text fill="#000000" font-family="sans-serif" font-size="12" font-style="italic" lengthAdjust="spacingAndGlyphs" textLength="120" x="950" y="383.1387">&lt;&lt; Component &gt;&gt;</text><text fill="#000000" font-family="sans-serif" font-size="12" font-style="italic" lengthAdjust="spacingAndGlyphs" textLength="51" x="984.5" y="397.1074">Element</text><line style="stroke: #A80036; stroke-width: 1.5;" x1="924" x2="1070" y1="404.9375" y2="404.9375"/><line style="stroke: #A80036; stroke-width: 1.5;" x1="924" x2="1070" y1="412.9375" y2="412.9375"/><ellipse cx="934" cy="424.8398" fill="#84BE84" rx="3" ry="3" style="stroke: #038048; stroke-width: 1.0;"/><text fill="#000000" font-family="sans-serif" font-size="11" lengthAdjust="spacingAndGlyphs" textLength="121" x="943" y="427.1479">addElement(Element)</text><ellipse cx="934" cy="437.6445" fill="#84BE84" rx="3" ry="3" style="stroke: #038048; stroke-width: 1.0;"/><text fill="#000000" font-family="sans-serif" font-size="11" lengthAdjust="spacingAndGlyphs" textLength="34" x="943" y="439.9526">print()</text><rect fill="#FEFECE" filter="url(#f1)" height="60.8047" style="stroke: #A80036; stroke-width: 1.5;" width="98" x="443" y="198.5"/><ellipse cx="458" cy="214.5" fill="#ADD1B2" rx="11" ry="11" style="stroke: #A80036; stroke-width: 1.0;"/><path d="M460.3438,210.1719 L460.5156,210.25 C460.7344,209.9375 460.9375,209.8438 461.2344,209.8438 C461.5313,209.8438 461.8125,209.9844 461.9688,210.25 C462.0625,210.4063 462.0781,210.5313 462.0781,210.9688 L462.0781,212.3906 C462.0781,212.8125 462.0469,213 461.9375,213.1563 C461.7656,213.375 461.5,213.5156 461.2344,213.5156 C461.0156,213.5156 460.7813,213.4063 460.6406,213.2656 C460.5,213.1406 460.4688,213.0156 460.4063,212.6094 C460.3125,212.2031 460.1406,211.9844 459.6563,211.7031 C459.1875,211.4531 458.5781,211.2969 458,211.2969 C456.2656,211.2969 455.0156,212.6094 455.0156,214.3906 L455.0156,215.4844 C455.0156,217.1875 456.3125,218.2813 458.3594,218.2813 C459.125,218.2813 459.8125,218.1563 460.2344,217.8906 C460.4219,217.7969 460.4219,217.7969 460.875,217.3125 C461.0625,217.125 461.2656,217.0469 461.4844,217.0469 C461.9531,217.0469 462.3438,217.4375 462.3438,217.8906 C462.3438,218.2813 462.0156,218.7344 461.4375,219.1406 C460.6875,219.6875 459.5313,219.9844 458.3125,219.9844 C455.4219,219.9844 453.3125,218.0938 453.3125,215.5156 L453.3125,214.3906 C453.3125,211.6719 455.3125,209.5938 457.9375,209.5938 C458.8125,209.5938 459.4063,209.7344 460.3438,210.1719 Z "/><text fill="#000000" font-family="sans-serif" font-size="12" lengthAdjust="spacingAndGlyphs" textLength="66" x="472" y="218.6543">Composite</text><line style="stroke: #A80036; stroke-width: 1.5;" x1="444" x2="540" y1="230.5" y2="230.5"/><line style="stroke: #A80036; stroke-width: 1.5;" x1="444" x2="540" y1="238.5" y2="238.5"/><ellipse cx="454" cy="250.4023" fill="#84BE84" rx="3" ry="3" style="stroke: #038048; stroke-width: 1.0;"/><text fill="#000000" font-family="sans-serif" font-size="11" lengthAdjust="spacingAndGlyphs" textLength="34" x="463" y="252.7104">print()</text><rect fill="#FEFECE" filter="url(#f1)" height="60.8047" style="stroke: #A80036; stroke-width: 1.5;" width="270" x="35" y="532.5"/><ellipse cx="138.75" cy="548.5" fill="#ADD1B2" rx="11" ry="11" style="stroke: #A80036; stroke-width: 1.0;"/><path d="M141.0938,544.1719 L141.2656,544.25 C141.4844,543.9375 141.6875,543.8438 141.9844,543.8438 C142.2813,543.8438 142.5625,543.9844 142.7188,544.25 C142.8125,544.4063 142.8281,544.5313 142.8281,544.9688 L142.8281,546.3906 C142.8281,546.8125 142.7969,547 142.6875,547.1563 C142.5156,547.375 142.25,547.5156 141.9844,547.5156 C141.7656,547.5156 141.5313,547.4063 141.3906,547.2656 C141.25,547.1406 141.2188,547.0156 141.1563,546.6094 C141.0625,546.2031 140.8906,545.9844 140.4063,545.7031 C139.9375,545.4531 139.3281,545.2969 138.75,545.2969 C137.0156,545.2969 135.7656,546.6094 135.7656,548.3906 L135.7656,549.4844 C135.7656,551.1875 137.0625,552.2813 139.1094,552.2813 C139.875,552.2813 140.5625,552.1563 140.9844,551.8906 C141.1719,551.7969 141.1719,551.7969 141.625,551.3125 C141.8125,551.125 142.0156,551.0469 142.2344,551.0469 C142.7031,551.0469 143.0938,551.4375 143.0938,551.8906 C143.0938,552.2813 142.7656,552.7344 142.1875,553.1406 C141.4375,553.6875 140.2813,553.9844 139.0625,553.9844 C136.1719,553.9844 134.0625,552.0938 134.0625,549.5156 L134.0625,548.3906 C134.0625,545.6719 136.0625,543.5938 138.6875,543.5938 C139.5625,543.5938 140.1563,543.7344 141.0938,544.1719 Z "/><text fill="#000000" font-family="sans-serif" font-size="12" lengthAdjust="spacingAndGlyphs" textLength="54" x="159.25" y="552.6543">Package</text><line style="stroke: #A80036; stroke-width: 1.5;" x1="36" x2="304" y1="564.5" y2="564.5"/><line style="stroke: #A80036; stroke-width: 1.5;" x1="36" x2="304" y1="572.5" y2="572.5"/><ellipse cx="46" cy="584.4023" fill="#84BE84" rx="3" ry="3" style="stroke: #038048; stroke-width: 1.0;"/><text fill="#000000" font-family="sans-serif" font-size="11" font-style="italic" lengthAdjust="spacingAndGlyphs" textLength="244" x="55" y="586.7104">createClassDeclaration() : ClassDeclaration</text><rect fill="#FEFECE" filter="url(#f1)" height="73.6094" style="stroke: #A80036; stroke-width: 1.5;" width="164" x="340" y="526"/><ellipse cx="401.25" cy="542" fill="#ADD1B2" rx="11" ry="11" style="stroke: #A80036; stroke-width: 1.0;"/><path d="M403.5938,537.6719 L403.7656,537.75 C403.9844,537.4375 404.1875,537.3438 404.4844,537.3438 C404.7813,537.3438 405.0625,537.4844 405.2188,537.75 C405.3125,537.9063 405.3281,538.0313 405.3281,538.4688 L405.3281,539.8906 C405.3281,540.3125 405.2969,540.5 405.1875,540.6563 C405.0156,540.875 404.75,541.0156 404.4844,541.0156 C404.2656,541.0156 404.0313,540.9063 403.8906,540.7656 C403.75,540.6406 403.7188,540.5156 403.6563,540.1094 C403.5625,539.7031 403.3906,539.4844 402.9063,539.2031 C402.4375,538.9531 401.8281,538.7969 401.25,538.7969 C399.5156,538.7969 398.2656,540.1094 398.2656,541.8906 L398.2656,542.9844 C398.2656,544.6875 399.5625,545.7813 401.6094,545.7813 C402.375,545.7813 403.0625,545.6563 403.4844,545.3906 C403.6719,545.2969 403.6719,545.2969 404.125,544.8125 C404.3125,544.625 404.5156,544.5469 404.7344,544.5469 C405.2031,544.5469 405.5938,544.9375 405.5938,545.3906 C405.5938,545.7813 405.2656,546.2344 404.6875,546.6406 C403.9375,547.1875 402.7813,547.4844 401.5625,547.4844 C398.6719,547.4844 396.5625,545.5938 396.5625,543.0156 L396.5625,541.8906 C396.5625,539.1719 398.5625,537.0938 401.1875,537.0938 C402.0625,537.0938 402.6563,537.2344 403.5938,537.6719 Z "/><text fill="#000000" font-family="sans-serif" font-size="12" lengthAdjust="spacingAndGlyphs" textLength="33" x="421.75" y="546.1543">Class</text><line style="stroke: #A80036; stroke-width: 1.5;" x1="341" x2="503" y1="558" y2="558"/><line style="stroke: #A80036; stroke-width: 1.5;" x1="341" x2="503" y1="566" y2="566"/><ellipse cx="351" cy="577.9023" fill="#84BE84" rx="3" ry="3" style="stroke: #038048; stroke-width: 1.0;"/><text fill="#000000" font-family="sans-serif" font-size="11" font-style="italic" lengthAdjust="spacingAndGlyphs" textLength="138" x="360" y="580.2104">createMethod() : Method</text><ellipse cx="351" cy="590.707" fill="#84BE84" rx="3" ry="3" style="stroke: #038048; stroke-width: 1.0;"/><text fill="#000000" font-family="sans-serif" font-size="11" font-style="italic" lengthAdjust="spacingAndGlyphs" textLength="108" x="360" y="593.0151">createField() : Field</text><rect fill="#FEFECE" filter="url(#f1)" height="66.7422" style="stroke: #A80036; stroke-width: 1.5;" width="288" x="6" y="682.5"/><ellipse cx="88.75" cy="701.4688" fill="#ADD1B2" rx="11" ry="11" style="stroke: #A80036; stroke-width: 1.0;"/><path d="M91.0938,697.1406 L91.2656,697.2188 C91.4844,696.9063 91.6875,696.8125 91.9844,696.8125 C92.2813,696.8125 92.5625,696.9531 92.7188,697.2188 C92.8125,697.375 92.8281,697.5 92.8281,697.9375 L92.8281,699.3594 C92.8281,699.7813 92.7969,699.9688 92.6875,700.125 C92.5156,700.3438 92.25,700.4844 91.9844,700.4844 C91.7656,700.4844 91.5313,700.375 91.3906,700.2344 C91.25,700.1094 91.2188,699.9844 91.1563,699.5781 C91.0625,699.1719 90.8906,698.9531 90.4063,698.6719 C89.9375,698.4219 89.3281,698.2656 88.75,698.2656 C87.0156,698.2656 85.7656,699.5781 85.7656,701.3594 L85.7656,702.4531 C85.7656,704.1563 87.0625,705.25 89.1094,705.25 C89.875,705.25 90.5625,705.125 90.9844,704.8594 C91.1719,704.7656 91.1719,704.7656 91.625,704.2813 C91.8125,704.0938 92.0156,704.0156 92.2344,704.0156 C92.7031,704.0156 93.0938,704.4063 93.0938,704.8594 C93.0938,705.25 92.7656,705.7031 92.1875,706.1094 C91.4375,706.6563 90.2813,706.9531 89.0625,706.9531 C86.1719,706.9531 84.0625,705.0625 84.0625,702.4844 L84.0625,701.3594 C84.0625,698.6406 86.0625,696.5625 88.6875,696.5625 C89.5625,696.5625 90.1563,696.7031 91.0938,697.1406 Z "/><text fill="#000000" font-family="sans-serif" font-size="12" font-style="italic" lengthAdjust="spacingAndGlyphs" textLength="118" x="107.25" y="698.6387">&lt;&lt; ProductB_1 &gt;&gt;</text><text fill="#000000" font-family="sans-serif" font-size="12" lengthAdjust="spacingAndGlyphs" textLength="70" x="131.25" y="712.6074">PuPackage</text><line style="stroke: #A80036; stroke-width: 1.5;" x1="7" x2="293" y1="720.4375" y2="720.4375"/><line style="stroke: #A80036; stroke-width: 1.5;" x1="7" x2="293" y1="728.4375" y2="728.4375"/><ellipse cx="17" cy="740.3398" fill="#84BE84" rx="3" ry="3" style="stroke: #038048; stroke-width: 1.0;"/><text fill="#000000" font-family="sans-serif" font-size="11" lengthAdjust="spacingAndGlyphs" textLength="262" x="26" y="742.6479">createClassDeclaration() : PuClassDeclaration</text><rect fill="#FEFECE" filter="url(#f1)" height="79.5469" style="stroke: #A80036; stroke-width: 1.5;" width="178" x="329" y="676"/><ellipse cx="358.4" cy="694.9688" fill="#ADD1B2" rx="11" ry="11" style="stroke: #A80036; stroke-width: 1.0;"/><path d="M360.7438,690.6406 L360.9156,690.7188 C361.1344,690.4063 361.3375,690.3125 361.6344,690.3125 C361.9313,690.3125 362.2125,690.4531 362.3688,690.7188 C362.4625,690.875 362.4781,691 362.4781,691.4375 L362.4781,692.8594 C362.4781,693.2813 362.4469,693.4688 362.3375,693.625 C362.1656,693.8438 361.9,693.9844 361.6344,693.9844 C361.4156,693.9844 361.1813,693.875 361.0406,693.7344 C360.9,693.6094 360.8688,693.4844 360.8063,693.0781 C360.7125,692.6719 360.5406,692.4531 360.0563,692.1719 C359.5875,691.9219 358.9781,691.7656 358.4,691.7656 C356.6656,691.7656 355.4156,693.0781 355.4156,694.8594 L355.4156,695.9531 C355.4156,697.6563 356.7125,698.75 358.7594,698.75 C359.525,698.75 360.2125,698.625 360.6344,698.3594 C360.8219,698.2656 360.8219,698.2656 361.275,697.7813 C361.4625,697.5938 361.6656,697.5156 361.8844,697.5156 C362.3531,697.5156 362.7438,697.9063 362.7438,698.3594 C362.7438,698.75 362.4156,699.2031 361.8375,699.6094 C361.0875,700.1563 359.9313,700.4531 358.7125,700.4531 C355.8219,700.4531 353.7125,698.5625 353.7125,695.9844 L353.7125,694.8594 C353.7125,692.1406 355.7125,690.0625 358.3375,690.0625 C359.2125,690.0625 359.8063,690.2031 360.7438,690.6406 Z "/><text fill="#000000" font-family="sans-serif" font-size="12" font-style="italic" lengthAdjust="spacingAndGlyphs" textLength="118" x="373.6" y="692.1387">&lt;&lt; ProductA_2 &gt;&gt;</text><text fill="#000000" font-family="sans-serif" font-size="12" lengthAdjust="spacingAndGlyphs" textLength="49" x="408.1" y="706.1074">PuClass</text><line style="stroke: #A80036; stroke-width: 1.5;" x1="330" x2="506" y1="713.9375" y2="713.9375"/><line style="stroke: #A80036; stroke-width: 1.5;" x1="330" x2="506" y1="721.9375" y2="721.9375"/><ellipse cx="340" cy="733.8398" fill="#84BE84" rx="3" ry="3" style="stroke: #038048; stroke-width: 1.0;"/><text fill="#000000" font-family="sans-serif" font-size="11" lengthAdjust="spacingAndGlyphs" textLength="152" x="349" y="736.1479">createMethod() : PuMethod</text><ellipse cx="340" cy="746.6445" fill="#84BE84" rx="3" ry="3" style="stroke: #038048; stroke-width: 1.0;"/><text fill="#000000" font-family="sans-serif" font-size="11" lengthAdjust="spacingAndGlyphs" textLength="122" x="349" y="748.9526">createField() : PuField</text><rect fill="#FEFECE" filter="url(#f1)" height="66.7422" style="stroke: #A80036; stroke-width: 1.5;" width="137" x="546.75" y="529.5"/><ellipse cx="561.75" cy="548.4688" fill="#ADD1B2" rx="11" ry="11" style="stroke: #A80036; stroke-width: 1.0;"/><path d="M564.0938,544.1406 L564.2656,544.2188 C564.4844,543.9063 564.6875,543.8125 564.9844,543.8125 C565.2813,543.8125 565.5625,543.9531 565.7188,544.2188 C565.8125,544.375 565.8281,544.5 565.8281,544.9375 L565.8281,546.3594 C565.8281,546.7813 565.7969,546.9688 565.6875,547.125 C565.5156,547.3438 565.25,547.4844 564.9844,547.4844 C564.7656,547.4844 564.5313,547.375 564.3906,547.2344 C564.25,547.1094 564.2188,546.9844 564.1563,546.5781 C564.0625,546.1719 563.8906,545.9531 563.4063,545.6719 C562.9375,545.4219 562.3281,545.2656 561.75,545.2656 C560.0156,545.2656 558.7656,546.5781 558.7656,548.3594 L558.7656,549.4531 C558.7656,551.1563 560.0625,552.25 562.1094,552.25 C562.875,552.25 563.5625,552.125 563.9844,551.8594 C564.1719,551.7656 564.1719,551.7656 564.625,551.2813 C564.8125,551.0938 565.0156,551.0156 565.2344,551.0156 C565.7031,551.0156 566.0938,551.4063 566.0938,551.8594 C566.0938,552.25 565.7656,552.7031 565.1875,553.1094 C564.4375,553.6563 563.2813,553.9531 562.0625,553.9531 C559.1719,553.9531 557.0625,552.0625 557.0625,549.4844 L557.0625,548.3594 C557.0625,545.6406 559.0625,543.5625 561.6875,543.5625 C562.5625,543.5625 563.1563,543.7031 564.0938,544.1406 Z "/><text fill="#000000" font-family="sans-serif" font-size="12" font-style="italic" lengthAdjust="spacingAndGlyphs" textLength="89" x="583.75" y="545.6387">&lt;&lt; Leaf_1 &gt;&gt;</text><text fill="#000000" font-family="sans-serif" font-size="12" lengthAdjust="spacingAndGlyphs" textLength="105" x="575.75" y="559.6074">ClassDeclaration</text><line style="stroke: #A80036; stroke-width: 1.5;" x1="547.75" x2="682.75" y1="567.4375" y2="567.4375"/><line style="stroke: #A80036; stroke-width: 1.5;" x1="547.75" x2="682.75" y1="575.4375" y2="575.4375"/><ellipse cx="557.75" cy="587.3398" fill="#84BE84" rx="3" ry="3" style="stroke: #038048; stroke-width: 1.0;"/><text fill="#000000" font-family="sans-serif" font-size="11" lengthAdjust="spacingAndGlyphs" textLength="34" x="566.75" y="589.6479">print()</text><rect fill="#FEFECE" filter="url(#f1)" height="66.7422" style="stroke: #A80036; stroke-width: 1.5;" width="252" x="871" y="529.5"/><ellipse cx="950.25" cy="548.4688" fill="#ADD1B2" rx="11" ry="11" style="stroke: #A80036; stroke-width: 1.0;"/><path d="M952.5938,544.1406 L952.7656,544.2188 C952.9844,543.9063 953.1875,543.8125 953.4844,543.8125 C953.7813,543.8125 954.0625,543.9531 954.2188,544.2188 C954.3125,544.375 954.3281,544.5 954.3281,544.9375 L954.3281,546.3594 C954.3281,546.7813 954.2969,546.9688 954.1875,547.125 C954.0156,547.3438 953.75,547.4844 953.4844,547.4844 C953.2656,547.4844 953.0313,547.375 952.8906,547.2344 C952.75,547.1094 952.7188,546.9844 952.6563,546.5781 C952.5625,546.1719 952.3906,545.9531 951.9063,545.6719 C951.4375,545.4219 950.8281,545.2656 950.25,545.2656 C948.5156,545.2656 947.2656,546.5781 947.2656,548.3594 L947.2656,549.4531 C947.2656,551.1563 948.5625,552.25 950.6094,552.25 C951.375,552.25 952.0625,552.125 952.4844,551.8594 C952.6719,551.7656 952.6719,551.7656 953.125,551.2813 C953.3125,551.0938 953.5156,551.0156 953.7344,551.0156 C954.2031,551.0156 954.5938,551.4063 954.5938,551.8594 C954.5938,552.25 954.2656,552.7031 953.6875,553.1094 C952.9375,553.6563 951.7813,553.9531 950.5625,553.9531 C947.6719,553.9531 945.5625,552.0625 945.5625,549.4844 L945.5625,548.3594 C945.5625,545.6406 947.5625,543.5625 950.1875,543.5625 C951.0625,543.5625 951.6563,543.7031 952.5938,544.1406 Z "/><text fill="#000000" font-family="sans-serif" font-size="12" font-style="italic" lengthAdjust="spacingAndGlyphs" textLength="89" x="968.75" y="545.6387">&lt;&lt; Leaf_3 &gt;&gt;</text><text fill="#000000" font-family="sans-serif" font-size="12" lengthAdjust="spacingAndGlyphs" textLength="47" x="989.75" y="559.6074">Method</text><line style="stroke: #A80036; stroke-width: 1.5;" x1="872" x2="1122" y1="567.4375" y2="567.4375"/><line style="stroke: #A80036; stroke-width: 1.5;" x1="872" x2="1122" y1="575.4375" y2="575.4375"/><ellipse cx="882" cy="587.3398" fill="#84BE84" rx="3" ry="3" style="stroke: #038048; stroke-width: 1.0;"/><text fill="#000000" font-family="sans-serif" font-size="11" lengthAdjust="spacingAndGlyphs" textLength="226" x="891" y="589.6479">parseGenericParamTypes(Type[] types)</text><rect fill="#FEFECE" filter="url(#f1)" height="105.1563" style="stroke: #A80036; stroke-width: 1.5;" width="193" x="1158.75" y="510.5"/><ellipse cx="1208.5" cy="529.4688" fill="#ADD1B2" rx="11" ry="11" style="stroke: #A80036; stroke-width: 1.0;"/><path d="M1210.8438,525.1406 L1211.0156,525.2188 C1211.2344,524.9063 1211.4375,524.8125 1211.7344,524.8125 C1212.0313,524.8125 1212.3125,524.9531 1212.4688,525.2188 C1212.5625,525.375 1212.5781,525.5 1212.5781,525.9375 L1212.5781,527.3594 C1212.5781,527.7813 1212.5469,527.9688 1212.4375,528.125 C1212.2656,528.3438 1212,528.4844 1211.7344,528.4844 C1211.5156,528.4844 1211.2813,528.375 1211.1406,528.2344 C1211,528.1094 1210.9688,527.9844 1210.9063,527.5781 C1210.8125,527.1719 1210.6406,526.9531 1210.1563,526.6719 C1209.6875,526.4219 1209.0781,526.2656 1208.5,526.2656 C1206.7656,526.2656 1205.5156,527.5781 1205.5156,529.3594 L1205.5156,530.4531 C1205.5156,532.1563 1206.8125,533.25 1208.8594,533.25 C1209.625,533.25 1210.3125,533.125 1210.7344,532.8594 C1210.9219,532.7656 1210.9219,532.7656 1211.375,532.2813 C1211.5625,532.0938 1211.7656,532.0156 1211.9844,532.0156 C1212.4531,532.0156 1212.8438,532.4063 1212.8438,532.8594 C1212.8438,533.25 1212.5156,533.7031 1211.9375,534.1094 C1211.1875,534.6563 1210.0313,534.9531 1208.8125,534.9531 C1205.9219,534.9531 1203.8125,533.0625 1203.8125,530.4844 L1203.8125,529.3594 C1203.8125,526.6406 1205.8125,524.5625 1208.4375,524.5625 C1209.3125,524.5625 1209.9063,524.7031 1210.8438,525.1406 Z "/><text fill="#000000" font-family="sans-serif" font-size="12" font-style="italic" lengthAdjust="spacingAndGlyphs" textLength="89" x="1227" y="526.6387">&lt;&lt; Leaf_4 &gt;&gt;</text><text fill="#000000" font-family="sans-serif" font-size="12" lengthAdjust="spacingAndGlyphs" textLength="24" x="1259.5" y="540.6074">Link</text><line style="stroke: #A80036; stroke-width: 1.5;" x1="1159.75" x2="1350.75" y1="548.4375" y2="548.4375"/><line style="stroke: #A80036; stroke-width: 1.5;" x1="1159.75" x2="1350.75" y1="556.4375" y2="556.4375"/><ellipse cx="1169.75" cy="568.3398" fill="#84BE84" rx="3" ry="3" style="stroke: #038048; stroke-width: 1.0;"/><text fill="#000000" font-family="sans-serif" font-size="11" lengthAdjust="spacingAndGlyphs" textLength="34" x="1178.75" y="570.6479">print()</text><ellipse cx="1169.75" cy="581.1445" fill="#84BE84" rx="3" ry="3" style="stroke: #038048; stroke-width: 1.0;"/><text fill="#000000" font-family="sans-serif" font-size="11" lengthAdjust="spacingAndGlyphs" textLength="166" x="1178.75" y="583.4526">setA(Element el, String label)</text><ellipse cx="1169.75" cy="593.9492" fill="#84BE84" rx="3" ry="3" style="stroke: #038048; stroke-width: 1.0;"/><text fill="#000000" font-family="sans-serif" font-size="11" lengthAdjust="spacingAndGlyphs" textLength="167" x="1178.75" y="596.2573">setB(Element el, String label)</text><ellipse cx="1169.75" cy="606.7539" fill="#84BE84" rx="3" ry="3" style="stroke: #038048; stroke-width: 1.0;"/><text fill="#000000" font-family="sans-serif" font-size="11" lengthAdjust="spacingAndGlyphs" textLength="159" x="1178.75" y="609.062">setLinkType(ELinkType type)</text><rect fill="#FEFECE" filter="url(#f1)" height="53.9375" style="stroke: #A80036; stroke-width: 1.5;" width="117" x="718.75" y="536"/><ellipse cx="733.75" cy="554.9688" fill="#ADD1B2" rx="11" ry="11" style="stroke: #A80036; stroke-width: 1.0;"/><path d="M736.0938,550.6406 L736.2656,550.7188 C736.4844,550.4063 736.6875,550.3125 736.9844,550.3125 C737.2813,550.3125 737.5625,550.4531 737.7188,550.7188 C737.8125,550.875 737.8281,551 737.8281,551.4375 L737.8281,552.8594 C737.8281,553.2813 737.7969,553.4688 737.6875,553.625 C737.5156,553.8438 737.25,553.9844 736.9844,553.9844 C736.7656,553.9844 736.5313,553.875 736.3906,553.7344 C736.25,553.6094 736.2188,553.4844 736.1563,553.0781 C736.0625,552.6719 735.8906,552.4531 735.4063,552.1719 C734.9375,551.9219 734.3281,551.7656 733.75,551.7656 C732.0156,551.7656 730.7656,553.0781 730.7656,554.8594 L730.7656,555.9531 C730.7656,557.6563 732.0625,558.75 734.1094,558.75 C734.875,558.75 735.5625,558.625 735.9844,558.3594 C736.1719,558.2656 736.1719,558.2656 736.625,557.7813 C736.8125,557.5938 737.0156,557.5156 737.2344,557.5156 C737.7031,557.5156 738.0938,557.9063 738.0938,558.3594 C738.0938,558.75 737.7656,559.2031 737.1875,559.6094 C736.4375,560.1563 735.2813,560.4531 734.0625,560.4531 C731.1719,560.4531 729.0625,558.5625 729.0625,555.9844 L729.0625,554.8594 C729.0625,552.1406 731.0625,550.0625 733.6875,550.0625 C734.5625,550.0625 735.1563,550.2031 736.0938,550.6406 Z "/><text fill="#000000" font-family="sans-serif" font-size="12" font-style="italic" lengthAdjust="spacingAndGlyphs" textLength="89" x="745.75" y="552.1387">&lt;&lt; Leaf_2 &gt;&gt;</text><text fill="#000000" font-family="sans-serif" font-size="12" lengthAdjust="spacingAndGlyphs" textLength="29" x="775.75" y="566.1074">Field</text><line style="stroke: #A80036; stroke-width: 1.5;" x1="719.75" x2="834.75" y1="573.9375" y2="573.9375"/><line style="stroke: #A80036; stroke-width: 1.5;" x1="719.75" x2="834.75" y1="581.9375" y2="581.9375"/><rect fill="#FEFECE" filter="url(#f1)" height="53.9375" style="stroke: #A80036; stroke-width: 1.5;" width="153" x="542.75" y="689"/><ellipse cx="557.75" cy="707.9688" fill="#ADD1B2" rx="11" ry="11" style="stroke: #A80036; stroke-width: 1.0;"/><path d="M560.0938,703.6406 L560.2656,703.7188 C560.4844,703.4063 560.6875,703.3125 560.9844,703.3125 C561.2813,703.3125 561.5625,703.4531 561.7188,703.7188 C561.8125,703.875 561.8281,704 561.8281,704.4375 L561.8281,705.8594 C561.8281,706.2813 561.7969,706.4688 561.6875,706.625 C561.5156,706.8438 561.25,706.9844 560.9844,706.9844 C560.7656,706.9844 560.5313,706.875 560.3906,706.7344 C560.25,706.6094 560.2188,706.4844 560.1563,706.0781 C560.0625,705.6719 559.8906,705.4531 559.4063,705.1719 C558.9375,704.9219 558.3281,704.7656 557.75,704.7656 C556.0156,704.7656 554.7656,706.0781 554.7656,707.8594 L554.7656,708.9531 C554.7656,710.6563 556.0625,711.75 558.1094,711.75 C558.875,711.75 559.5625,711.625 559.9844,711.3594 C560.1719,711.2656 560.1719,711.2656 560.625,710.7813 C560.8125,710.5938 561.0156,710.5156 561.2344,710.5156 C561.7031,710.5156 562.0938,710.9063 562.0938,711.3594 C562.0938,711.75 561.7656,712.2031 561.1875,712.6094 C560.4375,713.1563 559.2813,713.4531 558.0625,713.4531 C555.1719,713.4531 553.0625,711.5625 553.0625,708.9844 L553.0625,707.8594 C553.0625,705.1406 555.0625,703.0625 557.6875,703.0625 C558.5625,703.0625 559.1563,703.2031 560.0938,703.6406 Z "/><text fill="#000000" font-family="sans-serif" font-size="12" font-style="italic" lengthAdjust="spacingAndGlyphs" textLength="118" x="573.25" y="705.1387">&lt;&lt; ProductA_3 &gt;&gt;</text><text fill="#000000" font-family="sans-serif" font-size="12" lengthAdjust="spacingAndGlyphs" textLength="121" x="571.75" y="719.1074">PuClassDeclaration</text><line style="stroke: #A80036; stroke-width: 1.5;" x1="543.75" x2="694.75" y1="726.9375" y2="726.9375"/><line style="stroke: #A80036; stroke-width: 1.5;" x1="543.75" x2="694.75" y1="734.9375" y2="734.9375"/><rect fill="#FEFECE" filter="url(#f1)" height="53.9375" style="stroke: #A80036; stroke-width: 1.5;" width="146" x="731" y="689"/><ellipse cx="746" cy="707.9688" fill="#ADD1B2" rx="11" ry="11" style="stroke: #A80036; stroke-width: 1.0;"/><path d="M748.3438,703.6406 L748.5156,703.7188 C748.7344,703.4063 748.9375,703.3125 749.2344,703.3125 C749.5313,703.3125 749.8125,703.4531 749.9688,703.7188 C750.0625,703.875 750.0781,704 750.0781,704.4375 L750.0781,705.8594 C750.0781,706.2813 750.0469,706.4688 749.9375,706.625 C749.7656,706.8438 749.5,706.9844 749.2344,706.9844 C749.0156,706.9844 748.7813,706.875 748.6406,706.7344 C748.5,706.6094 748.4688,706.4844 748.4063,706.0781 C748.3125,705.6719 748.1406,705.4531 747.6563,705.1719 C747.1875,704.9219 746.5781,704.7656 746,704.7656 C744.2656,704.7656 743.0156,706.0781 743.0156,707.8594 L743.0156,708.9531 C743.0156,710.6563 744.3125,711.75 746.3594,711.75 C747.125,711.75 747.8125,711.625 748.2344,711.3594 C748.4219,711.2656 748.4219,711.2656 748.875,710.7813 C749.0625,710.5938 749.2656,710.5156 749.4844,710.5156 C749.9531,710.5156 750.3438,710.9063 750.3438,711.3594 C750.3438,711.75 750.0156,712.2031 749.4375,712.6094 C748.6875,713.1563 747.5313,713.4531 746.3125,713.4531 C743.4219,713.4531 741.3125,711.5625 741.3125,708.9844 L741.3125,707.8594 C741.3125,705.1406 743.3125,703.0625 745.9375,703.0625 C746.8125,703.0625 747.4063,703.2031 748.3438,703.6406 Z "/><text fill="#000000" font-family="sans-serif" font-size="12" font-style="italic" lengthAdjust="spacingAndGlyphs" textLength="118" x="758" y="705.1387">&lt;&lt; ProductA_4 &gt;&gt;</text><text fill="#000000" font-family="sans-serif" font-size="12" lengthAdjust="spacingAndGlyphs" textLength="45" x="794.5" y="719.1074">PuField</text><line style="stroke: #A80036; stroke-width: 1.5;" x1="732" x2="876" y1="726.9375" y2="726.9375"/><line style="stroke: #A80036; stroke-width: 1.5;" x1="732" x2="876" y1="734.9375" y2="734.9375"/><rect fill="#FEFECE" filter="url(#f1)" height="53.9375" style="stroke: #A80036; stroke-width: 1.5;" width="146" x="924" y="689"/><ellipse cx="939" cy="707.9688" fill="#ADD1B2" rx="11" ry="11" style="stroke: #A80036; stroke-width: 1.0;"/><path d="M941.3438,703.6406 L941.5156,703.7188 C941.7344,703.4063 941.9375,703.3125 942.2344,703.3125 C942.5313,703.3125 942.8125,703.4531 942.9688,703.7188 C943.0625,703.875 943.0781,704 943.0781,704.4375 L943.0781,705.8594 C943.0781,706.2813 943.0469,706.4688 942.9375,706.625 C942.7656,706.8438 942.5,706.9844 942.2344,706.9844 C942.0156,706.9844 941.7813,706.875 941.6406,706.7344 C941.5,706.6094 941.4688,706.4844 941.4063,706.0781 C941.3125,705.6719 941.1406,705.4531 940.6563,705.1719 C940.1875,704.9219 939.5781,704.7656 939,704.7656 C937.2656,704.7656 936.0156,706.0781 936.0156,707.8594 L936.0156,708.9531 C936.0156,710.6563 937.3125,711.75 939.3594,711.75 C940.125,711.75 940.8125,711.625 941.2344,711.3594 C941.4219,711.2656 941.4219,711.2656 941.875,710.7813 C942.0625,710.5938 942.2656,710.5156 942.4844,710.5156 C942.9531,710.5156 943.3438,710.9063 943.3438,711.3594 C943.3438,711.75 943.0156,712.2031 942.4375,712.6094 C941.6875,713.1563 940.5313,713.4531 939.3125,713.4531 C936.4219,713.4531 934.3125,711.5625 934.3125,708.9844 L934.3125,707.8594 C934.3125,705.1406 936.3125,703.0625 938.9375,703.0625 C939.8125,703.0625 940.4063,703.2031 941.3438,703.6406 Z "/><text fill="#000000" font-family="sans-serif" font-size="12" font-style="italic" lengthAdjust="spacingAndGlyphs" textLength="118" x="951" y="705.1387">&lt;&lt; ProductA_5 &gt;&gt;</text><text fill="#000000" font-family="sans-serif" font-size="12" lengthAdjust="spacingAndGlyphs" textLength="63" x="978.5" y="719.1074">PuMethod</text><line style="stroke: #A80036; stroke-width: 1.5;" x1="925" x2="1069" y1="726.9375" y2="726.9375"/><line style="stroke: #A80036; stroke-width: 1.5;" x1="925" x2="1069" y1="734.9375" y2="734.9375"/><rect fill="#FEFECE" filter="url(#f1)" height="53.9375" style="stroke: #A80036; stroke-width: 1.5;" width="146" x="1182" y="689"/><ellipse cx="1197" cy="707.9688" fill="#ADD1B2" rx="11" ry="11" style="stroke: #A80036; stroke-width: 1.0;"/><path d="M1199.3438,703.6406 L1199.5156,703.7188 C1199.7344,703.4063 1199.9375,703.3125 1200.2344,703.3125 C1200.5313,703.3125 1200.8125,703.4531 1200.9688,703.7188 C1201.0625,703.875 1201.0781,704 1201.0781,704.4375 L1201.0781,705.8594 C1201.0781,706.2813 1201.0469,706.4688 1200.9375,706.625 C1200.7656,706.8438 1200.5,706.9844 1200.2344,706.9844 C1200.0156,706.9844 1199.7813,706.875 1199.6406,706.7344 C1199.5,706.6094 1199.4688,706.4844 1199.4063,706.0781 C1199.3125,705.6719 1199.1406,705.4531 1198.6563,705.1719 C1198.1875,704.9219 1197.5781,704.7656 1197,704.7656 C1195.2656,704.7656 1194.0156,706.0781 1194.0156,707.8594 L1194.0156,708.9531 C1194.0156,710.6563 1195.3125,711.75 1197.3594,711.75 C1198.125,711.75 1198.8125,711.625 1199.2344,711.3594 C1199.4219,711.2656 1199.4219,711.2656 1199.875,710.7813 C1200.0625,710.5938 1200.2656,710.5156 1200.4844,710.5156 C1200.9531,710.5156 1201.3438,710.9063 1201.3438,711.3594 C1201.3438,711.75 1201.0156,712.2031 1200.4375,712.6094 C1199.6875,713.1563 1198.5313,713.4531 1197.3125,713.4531 C1194.4219,713.4531 1192.3125,711.5625 1192.3125,708.9844 L1192.3125,707.8594 C1192.3125,705.1406 1194.3125,703.0625 1196.9375,703.0625 C1197.8125,703.0625 1198.4063,703.2031 1199.3438,703.6406 Z "/><text fill="#000000" font-family="sans-serif" font-size="12" font-style="italic" lengthAdjust="spacingAndGlyphs" textLength="118" x="1209" y="705.1387">&lt;&lt; ProductA_6 &gt;&gt;</text><text fill="#000000" font-family="sans-serif" font-size="12" lengthAdjust="spacingAndGlyphs" textLength="40" x="1248" y="719.1074">PuLink</text><line style="stroke: #A80036; stroke-width: 1.5;" x1="1183" x2="1327" y1="726.9375" y2="726.9375"/><line style="stroke: #A80036; stroke-width: 1.5;" x1="1183" x2="1327" y1="734.9375" y2="734.9375"/><path d="M954.084,110.552 C936.018,135.2 915.399,163.332 898.87,185.883 " fill="none" style="stroke: #A80036; stroke-width: 1.0;"/><polygon fill="none" points="948.632,106.149,966.101,94.156,959.924,114.426,948.632,106.149" style="stroke: #A80036; stroke-width: 1.0;"/><path d="M1027.9,94.156 C1038.76,108.978 1051.39,126.208 1063.9,143.273 " fill="none" style="stroke: #A80036; stroke-width: 1.0;"/><polygon fill="none" points="1071.65,153.854,1071.3291,146.65,1064.5559,144.1755,1064.8768,151.3794,1071.65,153.854" style="stroke: #A80036; stroke-width: 1.0;"/><path d="M898.899,272.156 C918.922,299.475 944.939,334.971 965.148,362.543 " fill="none" style="stroke: #A80036; stroke-width: 1.0; stroke-dasharray: 7.0,7.0;"/><polygon fill="#A80036" points="968.34,366.898,966.246,357.2743,965.3843,362.8652,959.7935,362.0034,968.34,366.898" style="stroke: #A80036; stroke-width: 1.0;"/><path d="M423.538,250.282 C384.039,264.699 335.518,287.357 301,320 C236.09,381.385 196.11,482.218 179.274,532.114 " fill="none" style="stroke: #A80036; stroke-width: 1.0;"/><polygon fill="none" points="421.485,243.585,442.675,243.672,426.056,256.818,421.485,243.585" style="stroke: #A80036; stroke-width: 1.0;"/><path d="M424.063,249.94 C390.038,263.748 351.932,285.92 332,320 C297.446,379.082 305.453,410.914 332,474 C340.391,493.941 355.752,511.619 371.437,525.803 " fill="none" style="stroke: #A80036; stroke-width: 1.0;"/><polygon fill="none" points="421.743,243.335,442.929,242.929,426.621,256.458,421.743,243.335" style="stroke: #A80036; stroke-width: 1.0;"/><path d="M967.649,352.096 C954.646,339.558 938.835,327.653 922,320 C861.367,292.439 838.396,316.619 773,304 C691.031,288.183 597.461,259.138 541.135,242.529 " fill="none" style="stroke: #A80036; stroke-width: 1.0; stroke-dasharray: 7.0,7.0;"/><polygon fill="none" points="972.945,347.51,981.519,366.888,962.733,357.086,972.945,347.51" style="stroke: #A80036; stroke-width: 1.0;"/><path d="M553.824,255.098 C603.289,271.34 674.162,291.681 738,304 C803.396,316.619 826.367,292.439 887,320 C910.423,330.647 931.862,349.526 949.86,366.888 " fill="none" style="stroke: #A80036; stroke-width: 1.0;"/><polygon fill="none" points="541.412,250.958,545.8384,256.6507,552.7957,254.7543,548.3693,249.0616,541.412,250.958" style="stroke: #A80036; stroke-width: 1.0;"/><text fill="#000000" font-family="sans-serif" font-size="13" lengthAdjust="spacingAndGlyphs" textLength="8" x="548.9231" y="248.9405">1</text><text fill="#000000" font-family="sans-serif" font-size="13" lengthAdjust="spacingAndGlyphs" textLength="8" x="933.2019" y="355.858">n</text><path d="M367.243,437.511 C327.611,462.524 270.598,498.508 228.051,525.361 " fill="none" style="stroke: #A80036; stroke-width: 1.0;"/><polygon fill="none" points="217.014,532.327,224.2229,532.507,227.1617,525.9219,219.9528,525.7419,217.014,532.327" style="stroke: #A80036; stroke-width: 1.0;"/><path d="M548.454,450.081 C524.946,470.887 496.563,496.008 472.648,517.174 " fill="none" style="stroke: #A80036; stroke-width: 1.0;"/><polygon fill="none" points="462.699,525.979,469.8429,524.9971,471.6842,518.025,464.5403,519.0069,462.699,525.979" style="stroke: #A80036; stroke-width: 1.0;"/><path d="M933.253,458.618 C923.816,464.488 913.919,469.849 904,474 C819.474,509.374 786.767,477.749 701,510 C687.772,514.974 674.305,522.007 662.074,529.297 " fill="none" style="stroke: #A80036; stroke-width: 1.0; stroke-dasharray: 7.0,7.0;"/><polygon fill="none" points="929.667,452.595,950.178,447.275,937.461,464.225,929.667,452.595" style="stroke: #A80036; stroke-width: 1.0;"/><path d="M603.654,470.041 C606.155,490.309 608.833,512.015 610.959,529.246 " fill="none" style="stroke: #A80036; stroke-width: 1.0;"/><polygon fill="none" points="596.694,470.788,601.192,450.081,610.588,469.074,596.694,470.788" style="stroke: #A80036; stroke-width: 1.0;"/><path d="M752.419,450.662 C758.458,478.014 766.101,512.635 771.249,535.95 " fill="none" style="stroke: #A80036; stroke-width: 1.0;"/><polygon fill="none" points="745.567,452.094,748.09,431.055,759.237,449.076,745.567,452.094" style="stroke: #A80036; stroke-width: 1.0;"/><path d="M925.64,458.765 C918.339,463.922 911.026,469.073 904,474 C874.131,494.946 840.155,518.473 814.866,535.927 " fill="none" style="stroke: #A80036; stroke-width: 1.0; stroke-dasharray: 7.0,7.0;"/><polygon fill="none" points="921.626,453.03,941.995,447.19,929.714,464.458,921.626,453.03" style="stroke: #A80036; stroke-width: 1.0;"/><path d="M880.028,446.336 C888.018,455.548 896.684,465.25 905,474 C922.968,492.905 943.918,513.078 961.284,529.335 " fill="none" style="stroke: #A80036; stroke-width: 1.0;"/><polygon fill="none" points="874.663,450.832,867.001,431.076,885.31,441.742,874.663,450.832" style="stroke: #A80036; stroke-width: 1.0;"/><path d="M997,467.422 C997,488.451 997,511.327 997,529.313 " fill="none" style="stroke: #A80036; stroke-width: 1.0; stroke-dasharray: 7.0,7.0;"/><polygon fill="none" points="990,467.259,997,447.259,1004,467.259,990,467.259" style="stroke: #A80036; stroke-width: 1.0;"/><path d="M1079.63,457.323 C1108.06,474.292 1139.95,493.329 1168.67,510.469 " fill="none" style="stroke: #A80036; stroke-width: 1.0; stroke-dasharray: 7.0,7.0;"/><polygon fill="none" points="1076.02,463.321,1062.44,447.06,1083.2,451.3,1076.02,463.321" style="stroke: #A80036; stroke-width: 1.0;"/><path d="M163.419,613.69 C160.43,636.252 156.979,662.3115 154.324,682.35 " fill="none" style="stroke: #A80036; stroke-width: 1.0;"/><polygon fill="none" points="156.483,612.74,166.049,593.833,170.362,614.579,156.483,612.74" style="stroke: #A80036; stroke-width: 1.0;"/><path d="M420.505,620.455 C420.015,638.937 419.482,659.0488 419.034,675.9527 " fill="none" style="stroke: #A80036; stroke-width: 1.0;"/><polygon fill="none" points="413.515,619.976,421.042,600.168,427.51,620.347,413.515,619.976" style="stroke: #A80036; stroke-width: 1.0;"/><path d="M616.403,616.972 C617.048,641.301 617.783,669.0643 618.306,688.8191 " fill="none" style="stroke: #A80036; stroke-width: 1.0;"/><polygon fill="none" points="609.4,616.943,615.868,596.765,623.395,616.572,609.4,616.943" style="stroke: #A80036; stroke-width: 1.0;"/><path d="M785.229,610.023 C789.862,635.929 795.476,667.3283 799.351,688.9992 " fill="none" style="stroke: #A80036; stroke-width: 1.0;"/><polygon fill="none" points="778.333,611.222,781.703,590.302,792.114,608.758,778.333,611.222" style="stroke: #A80036; stroke-width: 1.0;"/><path d="M997,616.972 C997,641.301 997,669.0643 997,688.8191 " fill="none" style="stroke: #A80036; stroke-width: 1.0;"/><polygon fill="none" points="990,616.765,997,596.765,1004,616.765,990,616.765" style="stroke: #A80036; stroke-width: 1.0;"/><path d="M1255,635.727 C1255,654.65 1255,673.8902 1255,688.6762 " fill="none" style="stroke: #A80036; stroke-width: 1.0;"/><polygon fill="none" points="1248,635.543,1255,615.543,1262,635.543,1248,635.543" style="stroke: #A80036; stroke-width: 1.0;"/><path d="M1063.82,314.833 C1050.44,333.088 1036.93,351.525 1025.59,366.996 " fill="none" style="stroke: #A80036; stroke-width: 1.0;"/><polygon fill="none" points="1071.67,304.13,1064.8968,306.6046,1064.5759,313.8085,1071.3491,311.334,1071.67,304.13" style="stroke: #A80036; stroke-width: 1.0;"/><text fill="#000000" font-family="sans-serif" font-size="13" lengthAdjust="spacingAndGlyphs" textLength="8" x="1056.5258" y="324.7024">1</text><text fill="#000000" font-family="sans-serif" font-size="13" lengthAdjust="spacingAndGlyphs" textLength="8" x="1020.0548" y="355.9819">n</text></g></svg>